<svg xmlns="http://www.w3.org/2000/svg" xmlns:xlink="http://www.w3.org/1999/xlink" width="346" height="200" viewBox="0 0 346 200"><defs><style>.a{stroke:#cecece;stroke-linejoin:round;fill:url(#a);}.a,.g,.j,.p{stroke-linecap:round;}.b{clip-path:url(#b);}.c{fill:#333;}.d{fill:url(#c);}.e{fill:url(#d);}.f{fill:#ff5657;}.g,.j,.p{fill:none;stroke:#1f161e;stroke-miterlimit:10;}.g{stroke-width:0.69px;}.h{fill:#f8cdba;}.i{fill:#6fcfee;}.j{stroke-width:0.55px;}.k{fill:#fff;}.l{fill:url(#i);}.m{fill:url(#j);}.n{fill:#1f161e;}.o{fill:#a1f176;}</style><linearGradient id="a" x1="-0.222" y1="-0.496" x2="0.609" y2="1.913" gradientUnits="objectBoundingBox"><stop offset="0" stop-color="#1685c7"/><stop offset="1" stop-color="#1bb4e6"/></linearGradient><clipPath id="b"><rect class="a" width="346" height="200" rx="10" transform="translate(1510 136)"/></clipPath><linearGradient id="c" x1="0.5" x2="0.5" y2="1" gradientUnits="objectBoundingBox"><stop offset="0" stop-color="#4e4e4e"/><stop offset="1" stop-color="#0e0e0e"/></linearGradient><linearGradient id="d" x1="0.5" x2="0.5" y2="1" gradientUnits="objectBoundingBox"><stop offset="0" stop-color="#ffd7bc"/><stop offset="1" stop-color="#ffc69f"/></linearGradient><linearGradient id="i" y1="0.5" x2="1" y2="0.5" gradientUnits="objectBoundingBox"><stop offset="0" stop-color="#6fcfee"/><stop offset="1" stop-color="#1685c7"/></linearGradient><linearGradient id="j" y1="0.5" x2="1" y2="0.5" gradientUnits="objectBoundingBox"><stop offset="0" stop-color="#ddf2fa"/><stop offset="1" stop-color="#6fcfee"/></linearGradient></defs><g class="b" transform="translate(-1510 -136)"><g transform="translate(185 -40.682)"><g transform="translate(1457 192.43) rotate(-3)"><g transform="translate(0 0)"><g transform="translate(0 0)"><g transform="matrix(0.999, 0.052, -0.052, 0.999, 16.82, 170.463)"><path d="M26.972,0c.233,1.812,2.123,12.371.811,14.349-2.356,3.59-25.008,5-26.2,4.079S-.526,15.394.341,14.638,9.9,10.926,11,9.925s2.223-5.668,1.256-7.991" transform="translate(105.289 302.673)"/><path d="M26.972,0c.233,1.8,2.112,12.371.811,14.349-2.356,3.579-25.008,4.991-26.2,4.079S-.526,15.394.341,14.638,9.9,10.915,11,9.914s2.223-5.668,1.256-7.98" transform="translate(0 288.693)"/><path class="c" d="M55.845,11.926C54.188,16.905,27.2,166.553,25.5,174.667S-2.107,284.8.138,288.181s18.039,7.891,21.985,5.635,72.712-155.6,77.8-174.722S99.925,0,99.925,0Z" transform="translate(8.161 0)"/><path class="d" d="M0,8.163c1.045,8.191,16.872,143.246,21.529,164.586s.389,124.484,3.835,126.1c4.446,3.668,27.542,3.668,27.542,3.668C57.1,298.844,71.912,18.177,71.912,18.177S35.1-14.878,0,8.163Z" transform="translate(84.591 4.875)"/></g><path class="e" d="M0,19.336c0,2.886,15.918,3.053,15.907,0V0H0Z" transform="translate(113.71 66.087)"/><circle class="e" cx="20.657" cy="20.657" r="20.657" transform="translate(93.507 32.398)"/><ellipse class="f" cx="3.435" cy="1.789" rx="3.435" ry="1.789" transform="translate(90.938 58.172) rotate(-5.768)"/><ellipse class="f" cx="3.452" cy="1.798" rx="3.452" ry="1.798" transform="translate(113.038 55.943) rotate(-5.93)"/><path class="g" d="M1.612,0C1.057.977-1.829,5.162,1.8,6.36" transform="translate(101.486 55.043)"/><path class="g" d="M0,2.786C1.021,2.653,2.486,1.243,3.208,0" transform="translate(110.668 62.358)"/><circle class="h" cx="4.551" cy="4.551" r="4.551" transform="translate(126.32 45.941)"/><path class="d" d="M41.226,39.705c0,6.05,6.66,9.99,8.947,9.99A2.5,2.5,0,0,0,53,47.1c0-2.531-1.5-4.706-4.629-7.448C48.918,38.706,53,33.722,53,26.7c0-7.437-4.562-13.664-7.615-13.664a5.916,5.916,0,0,0-5.417,4.8C39.972,7.437,28.872,0,22.211,0c-6.172,0-7.226,2.686-7.226,4.873,0,4.773,3.763,9.89,5.184,11.1-3.452-2.542-8.88-5.106-13.509-5.106C3.73,10.867,0,11.7,0,15.74c0,7.4,6.938,11.688,9.258,12.887a20.879,20.879,0,0,1,3.33-4.74c-.422,1.4,1.288,3.941,4.562,4.518C19.026,28.816,41.226,25.819,41.226,39.705Z" transform="translate(86.537 14.805)"/><path class="e" d="M16.55,18.063A114.4,114.4,0,0,0,27.66,15.256C29.62,14.483,21.2,5.012,17.3,2.27S5.811-.794,1.6,1.656,1.228,13.685,16.55,18.063Z" transform="matrix(0.883, 0.469, -0.469, 0.883, 13.908, 0)"/><path class="e" d="M10.809,22.443A99.493,99.493,0,0,1,.175,18.358C-1.368,17.448,7.734,5.526,10.809,2.3s12.282-2.886,15.6,0S24.75,15.147,10.809,22.443Z" transform="translate(161.022 264.077) rotate(180)"/><path class="i" d="M145.357,61.065c20.347,11.611,44.034,80.687,44.034,85.982S146.1,231.619,143.5,231.619c-2.22-2.364-11.622-13.564-11.622-13.564,2.353-3.608,17.76-38.307,18.3-39.761-3.752.622-74.027-2.251-85.466-13.691s-8.108-63.955-9.873-66.453S5.828,92.167,0,83.21C2.4,38.964.747,1.388,3.566.245s11.966,1.976,12.377,4.04c-1.11,2.908,18.19,52.473,20.066,55.07C45.788,58.345,136.876,56.214,145.357,61.065Z" transform="translate(15.973 22.439)"/><path class="j" d="M0,0C1.92,3.419,21.368,36.531,21.157,39.306s-2.786,21.956-5.794,30.359" transform="translate(150.795 131.012)"/><path class="j" d="M.091,19.181A101.1,101.1,0,0,1,1.1,0" transform="translate(71.06 101.996)"/></g></g></g><g transform="translate(1427.238 245.92)"><g transform="translate(-8 -7)"><circle class="k" cx="38" cy="38" r="38" transform="translate(-0.237 -0.237)"/><g transform="translate(15.105 9.441)"><path class="l" d="M447.62,201.872c-23.578,0-22.653,22.449-22.653,22.449,0,11.225,8.456,18.049,12.662,22.45,1.967,2.056,7.385,9.764,9.991,9.764s8.024-7.707,9.99-9.764c4.206-4.4,12.662-11.225,12.662-22.45C470.273,224.321,471.2,201.872,447.62,201.872Z" transform="translate(-424.962 -200.619)"/><path class="i" d="M463.657,220.448c.013,10.571-7.225,21.331-9.918,25.769s-3.12,8.531-5.38,10.086a1.743,1.743,0,0,1-1.86,0c-2.26-1.555-2.687-5.65-5.38-10.086s-9.932-15.2-9.919-25.769c.015-12.3,7.7-19.792,16.228-19.792S463.643,208.146,463.657,220.448Z" transform="translate(-424.771 -200.656)"/><path class="m" d="M456.741,220.448c.007,10.571-4.235,21.331-5.814,25.769s-1.646,8.531-2.971,10.086a1.117,1.117,0,0,1-1.454,0c-1.325-1.555-1.392-5.65-2.971-10.086s-5.821-15.2-5.814-25.769c.009-12.3,4.515-19.792,9.512-19.792S456.732,208.146,456.741,220.448Z" transform="translate(-424.571 -200.656)"/></g></g></g><g transform="translate(1324.587 222.583)"><path class="n" d="M85.549,218.47c2.047,9.764,16.916,130.884,12.054,159.8S13.469,467.812,10,468.872c-4.045-2.969-10-12.7-10-12.7s58.125-67.339,59.209-70.041S46.5,227.425,46.5,227.425Z" transform="translate(28.982 -39.916)"/><path class="d" d="M35.11,243.282,94.416,485.173H114.4L94.149,232.83Z" transform="translate(-15.246 -42.66)"/><path class="o" d="M66.869,74.55c-8.187,0-50.893,1.383-58.611,16.414s-.445,84.505,4.352,87.2c2.589,1.448,3.293.04,4.045,2.985s8.09,31.9,8.09,31.9c4.66.129,72.6-10.1,94.65-22.069-.129-3.325-1.2-11.973-1.2-12.636,2.929,1.2,6.472,1.448,7.451,0,8.6-13.033-4.231-80.978-13.429-94.65C108.3,77.826,80.007,74.59,66.869,74.55Z" transform="translate(-4.882 -12.424)"/><path class="e" d="M68.41,73.214c0,2.16,20.8,2.16,20.8,0V51.35H68.41Z" transform="translate(-16.996 -7.992)"/><ellipse class="e" cx="20.233" cy="20.232" rx="20.233" ry="20.232" transform="translate(45.961 11.161)"/><path class="d" d="M78.455,0C89.426,0,96.271,7.225,96.271,16.485c0,7.7-.287,11.845-2.381,12.947A17.066,17.066,0,0,0,85.8,17.22c-1.846,1.488-5.024,5.092-9.263,6.2s-15.27.9-24.182,7.691c-2.905-2.779-5.819-6.391-5.819-10.649s1.794-9.6,12.356-12.684C65.86,5.746,66.825,0,78.455,0Z" transform="translate(-7.583 0)"/><ellipse class="f" cx="3.543" cy="1.844" rx="3.543" ry="1.844" transform="translate(81.556 33.715)"/><ellipse class="f" cx="3.543" cy="1.844" rx="3.543" ry="1.844" transform="translate(59.269 33.715)"/><path class="p" d="M60.6,37c.663.946,4.045,4.919.477,6.52" transform="translate(15.843 -5.251)"/><path class="p" d="M75,50.186c-1.06,0-2.71-1.327-3.576-2.516" transform="translate(-5.218 -7.289)"/><ellipse class="e" cx="4.676" cy="4.676" rx="4.676" ry="4.676" transform="translate(42.815 29.047)"/><path class="p" d="M16.34,123.76c.364,4.466,1.788,26.534,1.254,29.439,6.787,2.362,68.965,31.841,79.684,35.053" transform="translate(17.058 -21.824)"/><path class="p" d="M22.166,115.15c1.424,5,6.245,27.691,2.856,38.232" transform="translate(83.417 -20.18)"/><path class="p" d="M123.906,190.74c-3.236,2.273-34.26,16-77.136,10.824" transform="translate(-34.187 -34.619)"/><path class="e" d="M22.925,161.58c-2.079.332,4.7-5.08,8.543-3.066s9.02,11.131,7.96,13.251a2.734,2.734,0,0,1-4.045,1.343C34.339,172.428,26.573,161,22.925,161.58Z" transform="translate(69.755 -28.377)"/><path class="n" d="M122.769,513.58c-1.108.809-10.937,7.459-11.018,11.649s9.133,18.081,11.018,18.477,3.187-1.173,3.187-3.98-3.511-7.726-3.042-9.91,5.008-6.181,7.337-6.253" transform="translate(-93.1 -96.29)"/><path class="n" d="M20.178,544.76c0,1.925-1.116,14.012,1.124,15.136s26.866,1.788,27.983.671,1.8-3.47.809-4.142-10.517-2.581-11.8-3.471-3.082-5.663-2.427-8.195" transform="translate(60.885 -102.246)"/></g></g></g></svg>