<svg xmlns="http://www.w3.org/2000/svg" width="200" height="40" viewBox="0 0 200 40"><defs><style>.a{fill:#fff;}</style></defs><g transform="translate(-1320 -459)"><g transform="translate(4)"><path class="a" d="M0,0H19a0,0,0,0,1,0,0V25a8,8,0,0,1-8,8H8a8,8,0,0,1-8-8V0A0,0,0,0,1,0,0Z" transform="translate(1356 466)"/><path class="a" d="M0,0H19a0,0,0,0,1,0,0V25a8,8,0,0,1-8,8H8a8,8,0,0,1-8-8V0A0,0,0,0,1,0,0Z" transform="translate(1458 466)"/></g><rect class="a" width="200" height="14" rx="7" transform="translate(1320 459)"/></g></svg>