<svg xmlns="http://www.w3.org/2000/svg" width="147.5" height="147.5" viewBox="0 0 147.5 147.5"><defs><style>.a{fill:#fff;}</style></defs><g transform="translate(0)"><path class="a" d="M133.995,143.866c-6.505,0-15.628-6.484-31.487-22.379-7.645-7.626-17.108-18.578-26.146-29.144,3.993-2.816,9.974-5.072,17.3-6.526,2.426-.481,5.276-1.063,8.023-1.732,8.914,7.778,15.24,13.583,19.915,18.27,11.641,11.662,18.284,19.839,20.9,25.73,3.021,6.751.721,10.308-1.618,12.654l-.055.057A9.371,9.371,0,0,1,133.995,143.866Zm-85.244-68.2h0c-4.467-1.708-9.367-5.331-15.426-11.4C21.612,52.529,6.018,33.241,1.518,27.609l-.148-.184L.41,26.2l.109-1.473a.8.8,0,0,0-.185-.508C-.089,23.548-.8,22.432,3.22,17.2L34.238,48.288a3.879,3.879,0,0,0,2.714,1.155,3.207,3.207,0,0,0,2.292-.924,3.569,3.569,0,0,0-.234-5.014L7.622,12.046c.6-.64,1.263-1.31,1.952-2,1-1,1.936-1.9,2.861-2.743L43.784,38.721A3.876,3.876,0,0,0,46.5,39.877a3.165,3.165,0,0,0,3.21-3.384,3.875,3.875,0,0,0-1.15-2.556L17.64,2.953C20.231.992,22.18,0,23.433,0a1.755,1.755,0,0,1,1.031.3c.065.043.121.087.174.127.133.1.229.176.325.176A.17.17,0,0,0,25,.6l1.7-.334,1.43,1.168.158.132.288.24c8.452,7.044,28.905,24.224,36.256,31.588,6.7,6.717,10.3,11.837,11.654,16.6-3.969,4.071-8.386,8.593-10.57,10.783C63.693,63,56.354,69.244,48.752,75.669Z" transform="translate(0.534 0.081)"/><path class="a" d="M6.514,0A3.327,3.327,0,0,0,4.953.57,3.363,3.363,0,0,0,3.419,3.424V41.029c0,.7.027,4.415.081,9.341.081,9.637.243,23.823.243,28.776,0,3.069-.7,13.136-1.453,23.769C1.211,118.232,0,135.621,0,143.561c0,18.9.942,27.188,10.229,27.188,7.806,0,17.093-7.079,17.093-40.862,0-11.091-2.692-19.22-4.63-25.142-1.238-3.714-2.207-6.649-2.207-9.018,0-4.818,3.365-10.875,6.891-17.255,4.9-8.856,10.444-18.87,10.471-30.364C37.821,39.871,35.667,12.064,8.156.274A3.77,3.77,0,0,0,6.514,0Z" transform="translate(120.738 0) rotate(45)"/></g></svg>