<svg xmlns="http://www.w3.org/2000/svg" width="14" height="16" viewBox="0 0 14 16"><path d="M12.5,0H1.5A1.538,1.538,0,0,0,0,1.5v13A1.538,1.538,0,0,0,1.5,16h11A1.538,1.538,0,0,0,14,14.5V1.5A1.538,1.538,0,0,0,12.5,0ZM4,13.6a.43.43,0,0,1-.4.4H2.4a.43.43,0,0,1-.4-.4V12.4a.43.43,0,0,1,.4-.4H3.6a.43.43,0,0,1,.4.4v1.2Zm0-4a.43.43,0,0,1-.4.4H2.4A.43.43,0,0,1,2,9.6V8.4A.43.43,0,0,1,2.4,8H3.6a.43.43,0,0,1,.4.4V9.6Zm4,4a.43.43,0,0,1-.4.4H6.4a.43.43,0,0,1-.4-.4V12.4a.43.43,0,0,1,.4-.4H7.6a.43.43,0,0,1,.4.4Zm0-4a.43.43,0,0,1-.4.4H6.4A.43.43,0,0,1,6,9.6V8.4A.43.43,0,0,1,6.4,8H7.6a.43.43,0,0,1,.4.4Zm4,4a.43.43,0,0,1-.4.4H10.4a.43.43,0,0,1-.4-.4V8.4a.43.43,0,0,1,.4-.4h1.2a.43.43,0,0,1,.4.4v5.2Zm0-8a.43.43,0,0,1-.4.4H2.4A.43.43,0,0,1,2,5.6V2.4A.43.43,0,0,1,2.4,2h9.2a.43.43,0,0,1,.4.4Z"/></svg>