<svg xmlns="http://www.w3.org/2000/svg" width="18" height="18" viewBox="0 0 18 18"><defs><style>.a{fill:none;stroke:#272727;stroke-width:2px;}</style></defs><path class="a" d="M6,0A2.025,2.025,0,0,0,4.56.56,2.025,2.025,0,0,0,4,2a3.735,3.735,0,0,0,.56,1.44A1.441,1.441,0,0,1,4.62,4H0V16H4.62a1.975,1.975,0,0,0-.06-.56A3.735,3.735,0,0,1,4,14a2.025,2.025,0,0,1,.56-1.44A2.025,2.025,0,0,1,6,12a2.025,2.025,0,0,1,1.44.56A2.025,2.025,0,0,1,8,14a3.735,3.735,0,0,1-.56,1.44,1.441,1.441,0,0,0-.06.56H12V11.38a1.975,1.975,0,0,1,.56.06A3.735,3.735,0,0,0,14,12a2,2,0,1,0,0-4,3.735,3.735,0,0,0-1.44.56,1.441,1.441,0,0,1-.56.06V4H7.38a1.975,1.975,0,0,1,.06-.56A3.735,3.735,0,0,0,8,2,2.025,2.025,0,0,0,7.44.56,2.025,2.025,0,0,0,6,0Z" transform="translate(1 1)"/></svg>