<svg xmlns="http://www.w3.org/2000/svg" width="20" height="11.268" viewBox="0 0 20 11.268"><defs><style>.a{fill:#3ddb85;}</style></defs><path class="a" d="M116.921,110.738a.833.833,0,1,1,.833-.833.834.834,0,0,1-.833.833m-9.205,0a.833.833,0,1,1,.833-.833.834.834,0,0,1-.833.833m9.5-5.017,1.664-2.883a.346.346,0,0,0-.6-.346l-1.685,2.919a10.463,10.463,0,0,0-8.561,0l-1.685-2.919a.346.346,0,0,0-.6.346l1.664,2.883a9.828,9.828,0,0,0-5.1,7.866h20a9.828,9.828,0,0,0-5.1-7.866" transform="translate(-102.319 -102.32)"/></svg>