<?xml version="1.0" encoding="iso-8859-1"?>
<!-- Generator: Adobe Illustrator 19.0.0, SVG Export Plug-In . SVG Version: 6.00 Build 0)  -->
<svg version="1.1" id="Layer_1" xmlns="http://www.w3.org/2000/svg" xmlns:xlink="http://www.w3.org/1999/xlink" x="0px" y="0px"
	 viewBox="0 0 330 330" style="enable-background:new 0 0 330 330;" xml:space="preserve">
<g id="XMLID_8_">
	<path id="XMLID_9_" d="M205.606,74.393c-5.857-5.857-15.355-5.858-21.213,0.001l-80,80.002c-2.813,2.813-4.394,6.628-4.394,10.607
		c0,3.979,1.58,7.794,4.394,10.607l80,79.998C187.322,258.536,191.161,260,195,260s7.678-1.464,10.606-4.394
		c5.858-5.858,5.858-15.355,0-21.213l-69.393-69.392l69.393-69.395C211.465,89.748,211.465,80.251,205.606,74.393z"/>
	<path id="XMLID_10_" d="M165,0C74.019,0,0,74.019,0,165s74.019,165,165,165s165-74.019,165-165S255.981,0,165,0z M165,300
		c-74.439,0-135-60.561-135-135S90.561,30,165,30s135,60.561,135,135S239.439,300,165,300z"/>
</g>
<g>
</g>
<g>
</g>
<g>
</g>
<g>
</g>
<g>
</g>
<g>
</g>
<g>
</g>
<g>
</g>
<g>
</g>
<g>
</g>
<g>
</g>
<g>
</g>
<g>
</g>
<g>
</g>
<g>
</g>
</svg>
