<svg xmlns="http://www.w3.org/2000/svg" width="22" height="16" viewBox="0 0 22 16"><defs><style>.a{fill:#fff;}.b{fill:#83de56;}.b,.c{fill-rule:evenodd;}.c{fill:#4e8f2e;}</style></defs><path class="a" d="M5.5,2.538A1.269,1.269,0,1,0,4.231,1.269,1.269,1.269,0,0,0,5.5,2.538ZM8,6.48l-.616-.312-.256-.777a2.883,2.883,0,0,0-2.7-2.007,5.814,5.814,0,0,0-2.467.666A2.522,2.522,0,0,0,.644,5.272l-.177.36A.849.849,0,0,0,.842,6.766a.835.835,0,0,0,1.124-.378l.177-.36a.84.84,0,0,1,.436-.407l.709-.286-.4,1.6a1.7,1.7,0,0,0,.394,1.555l1.584,1.729a1.706,1.706,0,0,1,.394.732l.484,1.938a.846.846,0,1,0,1.642-.41L6.8,10.131A1.691,1.691,0,0,0,6.4,9.4L5.2,8.085l.455-1.816L5.8,6.7a1.686,1.686,0,0,0,.838.978L7.253,8a.835.835,0,0,0,1.124-.378A.856.856,0,0,0,8,6.48ZM1.947,10.2a1.641,1.641,0,0,1-.375.568L.25,12.093a.846.846,0,0,0,1.2,1.2l1.57-1.57a1.719,1.719,0,0,0,.375-.568l.357-.894C2.285,8.664,2.724,9.153,2.494,8.838L1.947,10.2Z" transform="translate(-0.002 0)"/><g transform="translate(12 0)"><g transform="translate(0)"><path class="b" d="M42,36.635c0-.351-.21-.635-.469-.635H32.469c-.259,0-.469.284-.469.635V48.9c0,.351.21.635.469.635h9.063c.259,0,.469-.284.469-.635Z" transform="translate(-32 -36)"/><g transform="translate(5 0.207)"><path class="c" d="M21,38.384a.478.478,0,0,0-.138-.351.245.245,0,0,0-.293-.04l-4.278,2.372a.666.666,0,0,0-.291.587V53.119a.717.717,0,0,0,.208.527.367.367,0,0,0,.439.06l3.917-2.172A1,1,0,0,0,21,50.654Z" transform="translate(-16 -37.961)"/></g></g></g></svg>