<svg xmlns="http://www.w3.org/2000/svg" width="21" height="24" viewBox="0 0 21 24">
  <path id="Icon_awesome-paste" data-name="Icon awesome-paste" d="M6,8.625A2.628,2.628,0,0,1,8.625,6H15V2.625A1.125,1.125,0,0,0,13.875,1.5H10.1A3,3,0,0,0,4.9,1.5H1.125A1.125,1.125,0,0,0,0,2.625v15.75A1.125,1.125,0,0,0,1.125,19.5H6Zm1.5-6.75A1.125,1.125,0,1,1,6.375,3,1.125,1.125,0,0,1,7.5,1.875ZM16.125,13.5H21v9.375A1.125,1.125,0,0,1,19.875,24H8.625A1.125,1.125,0,0,1,7.5,22.875V8.625A1.125,1.125,0,0,1,8.625,7.5H15v4.875A1.128,1.128,0,0,0,16.125,13.5ZM21,11.716V12H16.5V7.5h.284a1.125,1.125,0,0,1,.8.329L20.67,10.92a1.125,1.125,0,0,1,.33.8Z"/>
</svg>
