<svg xmlns="http://www.w3.org/2000/svg" width="49.997" height="29.998" viewBox="0 0 49.997 29.998"><defs><style>.a{fill:#272727;}</style></defs><path class="a" d="M45,4.5H16.035A5,5,0,0,0,12.5,5.965L.732,17.731a2.5,2.5,0,0,0,0,3.535L12.5,33.033A5,5,0,0,0,16.034,34.5H45a5,5,0,0,0,5-5V9.5A5,5,0,0,0,45,4.5ZM38.381,24.347a1.25,1.25,0,0,1,0,1.768l-1.767,1.767a1.25,1.25,0,0,1-1.768,0L30,23.034,25.15,27.882a1.25,1.25,0,0,1-1.768,0l-1.767-1.767a1.25,1.25,0,0,1,0-1.768L26.463,19.5l-4.848-4.848a1.25,1.25,0,0,1,0-1.768l1.767-1.767a1.25,1.25,0,0,1,1.768,0L30,15.964l4.848-4.848a1.25,1.25,0,0,1,1.768,0l1.767,1.767a1.25,1.25,0,0,1,0,1.768L33.533,19.5Z" transform="translate(0 -4.5)"/></svg>