<svg id="Capa_1" enable-background="new 0 0 512 512" height="512" viewBox="0 0 512 512" width="512" xmlns="http://www.w3.org/2000/svg"><g><path d="m436.789 145.816c-4.146-36.758-35.424-65.42-73.271-65.42-6.813 0-13.489.917-19.901 2.709-2.416-46.235-40.792-83.105-87.617-83.105s-85.201 36.87-87.616 83.104c-6.412-1.792-13.089-2.709-19.901-2.709-37.848 0-69.126 28.663-73.271 65.42-42.111 3.832-75.212 39.339-75.212 82.432 0 45.638 37.132 82.767 82.772 82.767h59.787l9.515 200.986h207.852l9.515-200.986h59.787c45.641 0 82.772-37.129 82.772-82.767 0-43.093-33.101-78.6-75.211-82.431zm-161.098 73.681h-39.383v-9.504c0-10.857 8.834-19.691 19.691-19.691s19.691 8.833 19.691 19.691v9.504zm77.105 30c8.118 0 14.723 6.604 14.723 14.723v16.687h-223.038v-16.687c0-8.118 6.604-14.723 14.723-14.723zm-21.483 232.503h-150.625l-8.101-171.093h166.826zm97.915-200.986h-31.709v-16.794c0-24.66-20.063-44.723-44.723-44.723h-47.104v-9.504c0-27.4-22.291-49.691-49.691-49.691s-49.691 22.291-49.691 49.691v9.504h-47.104c-24.66 0-44.723 20.063-44.723 44.723v16.794h-31.711c-29.098 0-52.772-23.672-52.772-52.767 0-29.099 23.674-52.773 52.772-52.773h24.015s-2.039-9.326-2.042-21.34c-.006-24.117 19.62-43.738 43.737-43.738 9.391 0 18.342 2.936 25.888 8.491l23.893 17.588v-48.738c0-31.836 25.9-57.737 57.737-57.737s57.737 25.901 57.737 57.737v48.737l23.893-17.588c7.546-5.555 16.497-8.491 25.888-8.491 24.117 0 43.737 19.621 43.737 43.738 0 12.701-2.042 21.34-2.042 21.34h24.015c29.099 0 52.772 23.674 52.772 52.773 0 29.096-23.674 52.768-52.772 52.768z"/><path d="m210.31 340.916h30v107.675h-30z"/><path d="m270.415 340.916h30v107.675h-30z"/></g></svg>