<svg xmlns="http://www.w3.org/2000/svg" width="79" height="56" viewBox="0 0 79 56"><defs><style>.a{fill:none;}.b,.c{fill:#fff;}.c,.d{fill-rule:evenodd;}.d{fill:#4e8f2e;}</style></defs><rect class="a" width="79" height="56"/><g transform="translate(11 8)"><path class="b" d="M13.748,6.345a3.173,3.173,0,1,0-3.173-3.173A3.173,3.173,0,0,0,13.748,6.345ZM19.994,16.2l-1.54-.78-.641-1.943A7.207,7.207,0,0,0,11.058,8.46c-2.379-.007-3.695.668-6.167,1.666A6.3,6.3,0,0,0,1.606,13.18l-.443.9A2.122,2.122,0,0,0,2.1,16.914a2.087,2.087,0,0,0,2.809-.945l.443-.9a2.1,2.1,0,0,1,1.091-1.018l1.771-.714-1,4.012A4.245,4.245,0,0,0,8.2,21.237l3.959,4.323a4.266,4.266,0,0,1,.985,1.831l1.21,4.845a2.115,2.115,0,0,0,4.1-1.024l-1.467-5.883A4.228,4.228,0,0,0,16,23.5l-3.007-3.285,1.137-4.541.364,1.091a4.215,4.215,0,0,0,2.1,2.446l1.54.78a2.087,2.087,0,0,0,2.809-.945,2.14,2.14,0,0,0-.945-2.842ZM4.865,25.5a4.1,4.1,0,0,1-.939,1.421l-3.3,3.311a2.115,2.115,0,1,0,2.988,2.994L7.535,29.3a4.3,4.3,0,0,0,.939-1.421l.892-2.234C5.711,21.66,6.808,22.883,6.233,22.1L4.865,25.5Z" transform="translate(-0.002 0)"/><g transform="translate(31.732 0)"><g transform="translate(0)"><path class="c" d="M57.386,37.587c0-.876-.533-1.587-1.19-1.587H33.19c-.657,0-1.19.71-1.19,1.587V68.261c0,.876.533,1.587,1.19,1.587H56.2c.657,0,1.19-.71,1.19-1.587Z" transform="translate(-32 -36)"/><g transform="translate(12.693 0.518)"><path class="d" d="M28.693,39.019a1.186,1.186,0,0,0-.351-.878.629.629,0,0,0-.743-.1l-10.86,5.93A1.657,1.657,0,0,0,16,45.438V75.856a1.778,1.778,0,0,0,.527,1.317.943.943,0,0,0,1.114.151l9.943-5.429a2.486,2.486,0,0,0,1.108-2.2Z" transform="translate(-16 -37.961)"/></g></g></g></g></svg>