<svg enable-background="new 0 0 24 24" height="512" viewBox="0 0 24 24" width="512" xmlns="http://www.w3.org/2000/svg"><path d="m23 11.75v-9.5c0-1.241-1.01-2.25-2.25-2.25h-17.5c-1.24 0-2.25 1.009-2.25 2.25v9.5c0 1.241 1.01 2.25 2.25 2.25h17.5c1.24 0 2.25-1.009 2.25-2.25zm-16.5-4.75c0 .414-.336.75-.75.75h-1c-.414 0-.75-.336-.75-.75s.336-.75.75-.75h1c.414 0 .75.336.75.75zm9 0c0 1.93-1.57 3.5-3.5 3.5s-3.5-1.57-3.5-3.5 1.57-3.5 3.5-3.5 3.5 1.57 3.5 3.5zm4.5 0c0 .414-.336.75-.75.75h-1c-.414 0-.75-.336-.75-.75s.336-.75.75-.75h1c.414 0 .75.336.75.75z"/><path d="m8.293 20.707 3 3c.391.391 1.023.391 1.414 0l3-3c.286-.286.372-.716.217-1.09-.154-.373-.52-.617-.924-.617h-6c-.404 0-.77.244-.924.617-.155.374-.069.804.217 1.09z"/><path d="m12 15c.553 0 1 .448 1 1v6.25c0 .552-.447 1-1 1s-1-.448-1-1v-6.25c0-.552.447-1 1-1z"/></svg>