<svg id="diterima" xmlns="http://www.w3.org/2000/svg" width="24" height="24" viewBox="0 0 24 24">
  <circle id="Ellipse_386" data-name="Ellipse 386" cx="12" cy="12" r="12" fill="#1685c7"/>
  <path id="Icon_awesome-box" data-name="Icon awesome-box" d="M11.941,4.327,10.755.769A1.122,1.122,0,0,0,9.689,0H6.375V4.5H11.97A1.071,1.071,0,0,0,11.941,4.327ZM5.625,0H2.311A1.122,1.122,0,0,0,1.245.769L.059,4.327A1.07,1.07,0,0,0,.03,4.5H5.625ZM0,5.25v5.625A1.125,1.125,0,0,0,1.125,12h9.75A1.125,1.125,0,0,0,12,10.875V5.25Z" transform="translate(6 6)" fill="#fff"/>
</svg>
