<svg id="Capa_1" enable-background="new 0 0 512 512" height="512" viewBox="0 0 512 512" width="512" xmlns="http://www.w3.org/2000/svg"><g><path d="m286 330c8.284 0 15-6.716 15-15v-45h135c8.284 0 15-6.716 15-15v-240c0-8.284-6.716-15-15-15h-360c-8.284 0-15 6.716-15 15v240c0 8.284 6.716 15 15 15h135v45c0 8.284 6.716 15 15 15h15v92h-15c-24.813 0-45 20.187-45 45v15h-45c-8.284 0-15 6.716-15 15s6.716 15 15 15h240c8.284 0 15-6.716 15-15s-6.716-15-15-15h-45v-15c0-24.813-20.187-45-45-45h-15v-92zm15 137v15h-90v-15c0-8.271 6.729-15 15-15h60c8.271 0 15 6.729 15 15zm-210-437h330v210h-330zm180 240v30h-30v-30z"/><path d="m196 90h180c8.284 0 15-6.716 15-15s-6.716-15-15-15h-180c-8.284 0-15 6.716-15 15s6.716 15 15 15z"/><path d="m136 150h240c8.284 0 15-6.716 15-15s-6.716-15-15-15h-240c-8.284 0-15 6.716-15 15s6.716 15 15 15z"/><path d="m301 195c0-8.284-6.716-15-15-15h-150c-8.284 0-15 6.716-15 15s6.716 15 15 15h150c8.284 0 15-6.716 15-15z"/></g></svg>