<svg xmlns="http://www.w3.org/2000/svg" width="12" height="12" viewBox="0 0 12 12">
  <path id="close" d="M12.256,11.669a.935.935,0,0,1-.283.687L10.6,13.729a.976.976,0,0,1-1.374,0l-2.97-2.97-2.97,2.97a.935.935,0,0,1-.687.283.935.935,0,0,1-.687-.283L.539,12.355a.976.976,0,0,1,0-1.374l2.97-2.97L.539,5.042a.976.976,0,0,1,0-1.374L1.913,2.295A.935.935,0,0,1,2.6,2.012a.935.935,0,0,1,.687.283l2.97,2.97,2.97-2.97a.976.976,0,0,1,1.374,0l1.374,1.374a.976.976,0,0,1,0,1.374L9,8.012l2.97,2.97a.935.935,0,0,1,.283.687Z" transform="translate(-0.256 -2.012)" fill="#cecece"/>
</svg>
