<?xml version="1.0" encoding="iso-8859-1"?>
<!-- Generator: Adobe Illustrator 19.0.0, SVG Export Plug-In . SVG Version: 6.00 Build 0)  -->
<svg version="1.1" id="Capa_1" xmlns="http://www.w3.org/2000/svg" xmlns:xlink="http://www.w3.org/1999/xlink" x="0px" y="0px"
	 viewBox="0 0 512 512" style="enable-background:new 0 0 512 512;" xml:space="preserve">
<g>
	<g>
		<path d="M412.213,0H91v30.038l300-0.037V90h60v392H121V309.889c-10.371-0.41-20.422-2.082-30-4.88V512h390V68.787L412.213,0z"/>
	</g>
</g>
<g>
	<g>
		<path d="M185.871,111.299l10.6-18.359l-25.98-15l-10.578,18.322c-6.035-2.314-12.362-4.031-18.912-5.074v-31.15h-30v31.15
			c-6.55,1.043-12.878,2.76-18.912,5.074L81.509,77.94l-25.98,15l10.6,18.359C44.709,128.733,31,155.294,31,185
			c0,52.383,42.617,95,95,95s95-42.617,95-95C221,155.294,207.291,128.733,185.871,111.299z M126,250c-35.841,0-65-29.159-65-65
			s29.159-65,65-65s65,29.159,65,65S161.841,250,126,250z"/>
	</g>
</g>
<g>
	<g>
		<rect x="111" y="145.04" width="30" height="54.962"/>
	</g>
</g>
<g>
	<g>
		<path d="M373.132,166.229L151,388.36V452h63.64l222.132-222.132L373.132,166.229z M202.213,422H181v-21.213l192.132-192.132
			l21.213,21.213L202.213,422z"/>
	</g>
</g>
<g>
</g>
<g>
</g>
<g>
</g>
<g>
</g>
<g>
</g>
<g>
</g>
<g>
</g>
<g>
</g>
<g>
</g>
<g>
</g>
<g>
</g>
<g>
</g>
<g>
</g>
<g>
</g>
<g>
</g>
</svg>
