<svg id="cari_driver" data-name="cari driver" xmlns="http://www.w3.org/2000/svg" width="24" height="24" viewBox="0 0 24 24">
  <circle id="Ellipse_386" data-name="Ellipse 386" cx="12" cy="12" r="12" fill="#1685c7"/>
  <path id="Icon_awesome-search" data-name="Icon awesome-search" d="M13.809,12.105,11.082,9.379a.656.656,0,0,0-.465-.191h-.446a5.685,5.685,0,1,0-.984.984v.446a.656.656,0,0,0,.191.465l2.726,2.726a.654.654,0,0,0,.927,0l.774-.774A.659.659,0,0,0,13.809,12.105ZM5.688,9.188a3.5,3.5,0,1,1,3.5-3.5A3.5,3.5,0,0,1,5.688,9.188Z" transform="translate(5 4.999)" fill="#fff"/>
</svg>
