<svg xmlns="http://www.w3.org/2000/svg" xmlns:xlink="http://www.w3.org/1999/xlink" width="64" height="56.314" viewBox="0 0 64 56.314"><defs><style>.a{fill:#e4f8ff;opacity:0;}.b{fill:url(#a);}.c{fill:#6fcfee;}.d{fill:url(#b);}</style><linearGradient id="a" y1="0.5" x2="1" y2="0.5" gradientUnits="objectBoundingBox"><stop offset="0" stop-color="#6fcfee"/><stop offset="1" stop-color="#1685c7"/></linearGradient><linearGradient id="b" y1="0.5" x2="1" y2="0.5" gradientUnits="objectBoundingBox"><stop offset="0" stop-color="#ddf2fa"/><stop offset="1" stop-color="#6fcfee"/></linearGradient></defs><g transform="translate(3.5 0.5)"><path class="a" d="M46.254,0a3,3,0,0,1,2.608,1.518l14.3,25.157a3,3,0,0,1,0,2.964L48.863,54.8a3,3,0,0,1-2.608,1.518H17.746A3,3,0,0,1,15.137,54.8L.842,29.639a3,3,0,0,1,0-2.964l14.3-25.157A3,3,0,0,1,17.746,0Z" transform="translate(-3.5 -0.5)"/><g transform="translate(-445.616 -136.668)"><g transform="translate(456.616 142.668)"><path class="b" d="M474.445,145.537c-18.553,0-17.825,17.665-17.825,17.665,0,8.833,6.653,14.2,9.964,17.665,1.547,1.618,5.811,7.683,7.862,7.683s6.314-6.065,7.862-7.683c3.31-3.463,9.964-8.833,9.964-17.665C492.27,163.2,493,145.537,474.445,145.537Z" transform="translate(-456.616 -144.551)"/><path class="c" d="M496.872,158.242c.01,8.318-5.686,16.785-7.805,20.277s-2.455,6.713-4.234,7.937a1.373,1.373,0,0,1-1.464,0c-1.779-1.224-2.114-4.446-4.234-7.937s-7.815-11.96-7.805-20.277c.012-9.68,6.062-15.574,12.77-15.574S496.861,148.562,496.872,158.242Z" transform="translate(-466.273 -142.668)"/><path class="d" d="M501.677,158.242c.006,8.318-3.333,16.785-4.575,20.277s-1.3,6.713-2.338,7.937a.881.881,0,0,1-1.145,0c-1.043-1.224-1.1-4.446-2.338-7.937s-4.58-11.959-4.575-20.277c.007-9.68,3.553-15.574,7.484-15.574S501.67,148.562,501.677,158.242Z" transform="translate(-476.363 -142.668)"/></g></g></g></svg>