<svg xmlns="http://www.w3.org/2000/svg" xmlns:xlink="http://www.w3.org/1999/xlink" width="1056.994" height="200" viewBox="0 0 1056.994 200"><defs><style>.a{fill:url(#a);}.b,.c,.e,.j{fill:#fff;}.b{font-size:14px;font-family:Poppins-Regular, Poppins;}.c{font-size:32px;font-family:Poppins-Bold, Poppins;font-weight:700;}.d{fill:none;stroke-linecap:round;stroke-linejoin:round;}.f{fill:url(#b);}.g{fill:#6fcfee;}.h{fill:url(#c);}.i,.j{stroke:none;}</style><linearGradient id="a" x1="0.5" x2="0.5" y2="1" gradientUnits="objectBoundingBox"><stop offset="0" stop-color="#67d0ff"/><stop offset="1" stop-color="#40c4ff"/></linearGradient><linearGradient id="b" y1="0.5" x2="1" y2="0.5" gradientUnits="objectBoundingBox"><stop offset="0" stop-color="#6fcfee"/><stop offset="1" stop-color="#1685c7"/></linearGradient><linearGradient id="c" y1="0.5" x2="1" y2="0.5" gradientUnits="objectBoundingBox"><stop offset="0" stop-color="#ddf2fa"/><stop offset="1" stop-color="#6fcfee"/></linearGradient></defs><g transform="translate(-561 -540)"><path class="a" d="M-928.372,200h-955.369a24,24,0,0,1-22.716-16.257l-25.906-76a24.006,24.006,0,0,1,0-15.487l25.906-76A24,24,0,0,1-1883.741,0H-926.56a24,24,0,0,1,22.717,16.257l25.906,76a24,24,0,0,1,0,15.487l-25.906,76A24,24,0,0,1-926.56,200Z" transform="translate(2494.647 540)"/><g transform="translate(842 569)"><g transform="translate(0 56)"><text class="b" transform="translate(3 45)"><tspan x="58.528" y="15">Upgrade Bisnis Anda, semakin mudah, kompetitif dan </tspan><tspan x="106.541" y="35">menguntungkan dengan fitur premium</tspan></text><text class="c" transform="translate(3)"><tspan x="110.736" y="34">Olsera Premium</tspan></text></g><g transform="translate(223)"><g class="d"><path class="i" d="M14.667,4.758a22.574,22.574,0,0,1,19.665,0l.04.019A22.574,22.574,0,0,1,46.553,20.1l.049.217a22.574,22.574,0,0,1-4.332,19.034l-.089.112A22.574,22.574,0,0,1,24.5,48h0A22.574,22.574,0,0,1,6.818,39.459l-.089-.112A22.574,22.574,0,0,1,2.4,20.313l.049-.217A22.574,22.574,0,0,1,14.628,4.777Z"/><path class="j" d="M 24.5 2.503883361816406 C 21.13636589050293 2.503883361816406 17.77272987365723 3.255180358886719 14.66741943359375 4.757774353027344 L 14.62783050537109 4.776935577392578 C 8.449798583984375 7.766345977783203 3.967288970947266 13.40399551391602 2.446979522705078 20.0967845916748 L 2.397769927978516 20.31339454650879 C 0.8818893432617188 26.9867057800293 2.474998474121094 33.98739624023438 6.729278564453125 39.34762573242188 L 6.818080902099609 39.45949554443359 C 11.1003303527832 44.85496520996094 17.6117000579834 48.00000381469727 24.5 47.99999618530273 C 24.50041961669922 47.99999618530273 24.49961280822754 47.99999618530273 24.50003242492676 47.99999618530273 C 31.38787651062012 47.99999618530273 37.89993286132813 44.85463714599609 42.18191909790039 39.45949554443359 L 42.27072143554688 39.34761428833008 C 46.52500152587891 33.98739624023438 48.11811065673828 26.9866943359375 46.60223007202148 20.31339454650879 L 46.55300903320313 20.09676551818848 C 45.03269958496094 13.40398406982422 40.55018997192383 7.766345977783203 34.37216949462891 4.776935577392578 L 34.33258056640625 4.757774353027344 C 31.22727012634277 3.255180358886719 27.86363410949707 2.503883361816406 24.5 2.503883361816406 M 24.5 1.503883361816406 C 28.03524017333984 1.503883361816406 31.58591079711914 2.317794799804688 34.76815032958984 3.857616424560547 L 34.80780029296875 3.876804351806641 C 37.97328948974609 5.408523559570313 40.80335235595703 7.673114776611328 42.99197006225586 10.42573547363281 C 45.18058013916016 13.1783561706543 46.74917984008789 16.44594573974609 47.52817153930664 19.8752555847168 L 47.5773811340332 20.09183502197266 C 48.35411071777344 23.51121520996094 48.35340881347656 27.12577438354492 47.57535934448242 30.5448055267334 C 46.79730987548828 33.96383666992188 45.23384857177734 37.22276306152344 43.05400085449219 39.96928405761719 L 42.96519088745117 40.08118438720703 C 40.77114868164063 42.84558486938477 37.93144989013672 45.11821365356445 34.75310134887695 46.65338516235352 C 31.57476043701172 48.18855667114258 28.02930068969727 48.99999618530273 24.50003051757813 48.99999618530273 C 20.97052955627441 49.00000381469727 17.42502975463867 48.18860626220703 14.24684143066406 46.65351486206055 C 11.06866073608398 45.11842346191406 8.228981018066406 42.84574508666992 6.034801483154297 40.0811653137207 L 5.946041107177734 39.96934509277344 C 3.766151428222656 37.22276306152344 2.202690124511719 33.96383666992188 1.424640655517578 30.5448055267334 C 0.6465911865234375 27.12577438354492 0.6458892822265625 23.51121520996094 1.422611236572266 20.09188461303711 L 1.471828460693359 19.875244140625 C 2.250808715820313 16.44595336914063 3.819408416748047 13.17836380004883 6.008018493652344 10.42573547363281 C 8.196640014648438 7.673114776611328 11.02671051025391 5.408523559570313 14.1922607421875 3.876773834228516 L 14.23178863525391 3.857646942138672 C 17.41408920288086 2.317794799804688 20.96475982666016 1.503883361816406 24.5 1.503883361816406 Z"/></g><path class="e" d="M13.473,4.36a20.755,20.755,0,0,1,18.054,0l.022.011A20.755,20.755,0,0,1,42.76,18.454l.028.122A20.755,20.755,0,0,1,38.8,36.1l-.05.063A20.755,20.755,0,0,1,22.5,44h0A20.755,20.755,0,0,1,6.254,36.162L6.2,36.1A20.755,20.755,0,0,1,2.212,18.576l.028-.122A20.755,20.755,0,0,1,13.451,4.371Z" transform="translate(2 2)"/><g transform="translate(11.5 10)"><path class="f" d="M437.963,201.872c-13.528,0-13,12.881-13,12.881,0,6.441,4.852,10.356,7.265,12.881,1.128,1.18,4.237,5.6,5.733,5.6s4.6-4.422,5.732-5.6c2.413-2.525,7.265-6.441,7.265-12.881C450.96,214.753,451.491,201.872,437.963,201.872Z" transform="translate(-424.962 -201.153)"/><path class="g" d="M449.823,212.012c.008,6.065-4.146,12.239-5.691,14.786s-1.79,4.895-3.087,5.787a1,1,0,0,1-1.067,0c-1.3-.892-1.542-3.242-3.087-5.787s-5.7-8.72-5.691-14.786c.009-7.059,4.421-11.356,9.311-11.356S449.814,204.954,449.823,212.012Z" transform="translate(-427.511 -200.656)"/><path class="h" d="M448.632,212.012c0,6.065-2.43,12.239-3.336,14.786s-.944,4.895-1.7,5.787a.641.641,0,0,1-.834,0c-.761-.892-.8-3.242-1.7-5.787s-3.34-8.72-3.336-14.786c.005-7.059,2.591-11.356,5.458-11.356S448.627,204.954,448.632,212.012Z" transform="translate(-430.174 -200.656)"/></g></g></g></g></svg>