<svg xmlns="http://www.w3.org/2000/svg" width="79" height="56" viewBox="0 0 79 56"><defs><style>.a{fill:none;}.b,.c{fill:#fff;}.c,.d{fill-rule:evenodd;}.d{fill:#0085cd;}</style></defs><rect class="a" width="79" height="56"/><g transform="translate(11 8)"><path class="b" d="M7.41,6.345a3.173,3.173,0,1,1,3.173-3.173A3.173,3.173,0,0,1,7.41,6.345ZM1.164,16.2l1.54-.78.641-1.943A7.207,7.207,0,0,1,10.1,8.46c2.379-.007,3.695.668,6.167,1.666a6.3,6.3,0,0,1,3.285,3.054l.443.9a2.122,2.122,0,0,1-.939,2.836,2.087,2.087,0,0,1-2.809-.945l-.443-.9a2.1,2.1,0,0,0-1.091-1.018l-1.771-.714,1,4.012a4.245,4.245,0,0,1-.985,3.886L9,25.559a4.266,4.266,0,0,0-.985,1.831l-1.21,4.845a2.115,2.115,0,0,1-4.1-1.024l1.467-5.883A4.228,4.228,0,0,1,5.156,23.5l3.007-3.285L7.026,15.671l-.364,1.091a4.215,4.215,0,0,1-2.1,2.446l-1.54.78a2.087,2.087,0,0,1-2.809-.945A2.14,2.14,0,0,1,1.164,16.2Zm15.129,9.3a4.1,4.1,0,0,0,.939,1.421l3.3,3.311a2.115,2.115,0,1,1-2.988,2.994L13.623,29.3a4.3,4.3,0,0,1-.939-1.421l-.892-2.234c3.655-3.986,2.558-2.763,3.133-3.549l1.368,3.4Z" transform="translate(-0.002)"/><g transform="translate(31.732 0)"><g transform="translate(0)"><path class="c" d="M57.386,37.587c0-.876-.533-1.587-1.19-1.587H33.19c-.657,0-1.19.71-1.19,1.587V68.261c0,.876.533,1.587,1.19,1.587H56.2c.657,0,1.19-.71,1.19-1.587Z" transform="translate(-32 -36)"/><g transform="translate(12.693 0.518)"><path class="d" d="M28.693,39.019a1.186,1.186,0,0,0-.351-.878.629.629,0,0,0-.743-.1l-10.86,5.93A1.657,1.657,0,0,0,16,45.438V75.856a1.778,1.778,0,0,0,.527,1.317.943.943,0,0,0,1.114.151l9.943-5.429a2.486,2.486,0,0,0,1.108-2.2Z" transform="translate(-16 -37.961)"/></g></g></g></g></svg>