<svg xmlns="http://www.w3.org/2000/svg" width="27.002" height="20.998" viewBox="0 0 27.002 20.998"><path d="M13.142,6.95,4.5,14.068V21.75a.75.75,0,0,0,.75.75l5.253-.014a.75.75,0,0,0,.746-.75V17.25A.75.75,0,0,1,12,16.5h3a.75.75,0,0,1,.75.75v4.483a.75.75,0,0,0,.75.752l5.251.015a.75.75,0,0,0,.75-.75V14.063L13.86,6.95A.571.571,0,0,0,13.142,6.95Zm13.651,4.838-3.919-3.23V2.065a.563.563,0,0,0-.562-.562H19.688a.563.563,0,0,0-.562.563v3.4l-4.2-3.453a2.25,2.25,0,0,0-2.859,0L.2,11.788a.563.563,0,0,0-.075.792l1.2,1.453a.562.562,0,0,0,.793.076L13.142,5.028a.571.571,0,0,1,.717,0l11.026,9.082a.562.562,0,0,0,.792-.075l1.2-1.453a.563.563,0,0,0-.08-.794Z" transform="translate(0.001 -1.502)"/></svg>