<svg xmlns="http://www.w3.org/2000/svg" xmlns:xlink="http://www.w3.org/1999/xlink" width="37.091" height="32" viewBox="0 0 37.091 32"><defs><style>.a{fill:#e4f8ff;}.b{fill:url(#a);}.c{fill:#6fcfee;}.d{fill:url(#b);}</style><linearGradient id="a" y1="0.5" x2="1" y2="0.5" gradientUnits="objectBoundingBox"><stop offset="0" stop-color="#6fcfee"/><stop offset="1" stop-color="#1685c7"/></linearGradient><linearGradient id="b" y1="0.5" x2="1" y2="0.5" gradientUnits="objectBoundingBox"><stop offset="0" stop-color="#ddf2fa"/><stop offset="1" stop-color="#6fcfee"/></linearGradient></defs><path class="a" d="M24.937,0a5,5,0,0,1,4.326,2.493l6.375,11a5,5,0,0,1,0,5.014l-6.375,11A5,5,0,0,1,24.937,32H12.154a5,5,0,0,1-4.326-2.493l-6.375-11a5,5,0,0,1,0-5.014l6.375-11A5,5,0,0,1,12.154,0Z"/><g transform="translate(8.403 3.767)"><path class="b" d="M466.948,145.537c-10.752,0-10.33,10.238-10.33,10.238,0,5.119,3.856,8.231,5.774,10.238.9.938,3.368,4.453,4.556,4.453s3.659-3.515,4.556-4.453c1.918-2.007,5.774-5.119,5.774-10.238C477.279,155.775,477.7,145.537,466.948,145.537Z" transform="translate(-456.616 -144.965)"/><path class="c" d="M486.133,151.694c.006,4.82-3.3,9.728-4.523,11.752s-1.423,3.891-2.454,4.6a.8.8,0,0,1-.848,0c-1.031-.709-1.225-2.577-2.454-4.6s-4.529-6.931-4.523-11.752c.007-5.61,3.513-9.026,7.4-9.026S486.127,146.084,486.133,151.694Z" transform="translate(-468.4 -142.668)"/><path class="d" d="M495.383,151.694c0,4.821-1.931,9.728-2.651,11.752s-.751,3.891-1.355,4.6a.51.51,0,0,1-.663,0c-.6-.709-.635-2.577-1.355-4.6s-2.655-6.931-2.651-11.752c0-5.61,2.059-9.026,4.338-9.026S495.379,146.084,495.383,151.694Z" transform="translate(-480.712 -142.668)"/></g></svg>