<svg xmlns="http://www.w3.org/2000/svg" width="64" height="64" viewBox="0 0 64 64"><defs><style>.a{fill:#ff931e;}.b{fill:#fff;}</style></defs><g transform="translate(-3 -1)"><rect class="a" width="64" height="64" rx="32" transform="translate(3 1)"/><g transform="translate(12 -17.999)"><g transform="translate(0 30.999)"><path class="b" d="M36.774,47.14l-4.6-2.3V32.333a1.333,1.333,0,0,0-2.641-.262A15.4,15.4,0,0,1,14.4,44.333H4a4,4,0,0,0-4,4v5.333a4,4,0,0,0,4,4H5.333v12A1.333,1.333,0,0,0,6.667,71H12a1.333,1.333,0,0,0,1.333-1.333V64.333A6.71,6.71,0,0,1,17.8,58.04,15.351,15.351,0,0,1,29.537,69.928a1.333,1.333,0,0,0,2.641-.261V57.157l4.6-2.3a1.333,1.333,0,0,0,.737-1.193V48.333A1.333,1.333,0,0,0,36.774,47.14ZM10.667,64.333v4H8V57.665h5.472A9.266,9.266,0,0,0,10.667,64.333Zm18.844-1.268A18.244,18.244,0,0,0,14.4,55H4a1.335,1.335,0,0,1-1.333-1.333V48.333A1.335,1.335,0,0,1,4,47H14.4a18.242,18.242,0,0,0,15.109-8.065Zm5.333-10.222-2.667,1.333V47.824l2.667,1.333Zm9.333-3.176H41.511a1.333,1.333,0,0,0,0,2.667h2.667a1.333,1.333,0,1,0,0-2.667Zm-4,7.448A1.333,1.333,0,0,0,38.292,59l1.886,1.886A1.333,1.333,0,0,0,42.063,59Zm0-12.229L42.063,43a1.333,1.333,0,1,0-1.886-1.886L38.292,43a1.333,1.333,0,0,0,1.886,1.886Z" transform="translate(0 -30.999)"/></g></g></g></svg>