<svg xmlns="http://www.w3.org/2000/svg" width="27.006" height="23.193" viewBox="0 0 27.006 23.193">
  <g id="Group_25262" data-name="Group 25262" transform="translate(0 0)">
    <path id="Subtraction_30" data-name="Subtraction 30" d="M8.922,22.377a2.5,2.5,0,1,1,2.5-2.5A2.5,2.5,0,0,1,8.922,22.377Zm0-3a.5.5,0,1,0,.5.5A.5.5,0,0,0,8.922,19.377Zm4.558-6H9.387A2.89,2.89,0,0,1,6.512,11.4L4.894,5.082Q4.882,5.042,4.873,5L4.1,2H1A1,1,0,0,1,1,0H4.881A1,1,0,0,1,5.85.751l.778,3.04H22.347a1,1,0,0,1,.972,1.238L22.34,9.04a8.053,8.053,0,0,0-1.66-.173c-.119,0-.24,0-.359.008l.753-3.083H7.141l1.31,5.116a.953.953,0,0,0,.931.469h5.481a8.006,8.006,0,0,0-1.382,2Z" transform="translate(0 0)" fill="#272727"/>
    <g id="Icon_feather-plus-circle" data-name="Icon feather-plus-circle" transform="translate(14.355 10.544)">
      <path id="Path_41478" data-name="Path 41478" d="M8.325,14.65A6.325,6.325,0,1,1,14.65,8.325,6.332,6.332,0,0,1,8.325,14.65ZM8.325,4A4.325,4.325,0,1,0,12.65,8.325,4.33,4.33,0,0,0,8.325,4Z" transform="translate(-2 -2)" fill="#272727"/>
      <path id="Path_41479" data-name="Path 41479" d="M18,17.26a1,1,0,0,1-1-1V12a1,1,0,0,1,2,0v4.26A1,1,0,0,1,18,17.26Z" transform="translate(-11.675 -7.805)" fill="#272727"/>
      <path id="Path_41480" data-name="Path 41480" d="M16.26,19H12a1,1,0,0,1,0-2h4.26a1,1,0,0,1,0,2Z" transform="translate(-7.805 -11.675)" fill="#272727"/>
    </g>
  </g>
</svg>
