<svg xmlns="http://www.w3.org/2000/svg" width="22.035" height="14" viewBox="0 0 22.035 14"><defs><style>.a{fill:#0085cd;}</style></defs><path class="a" d="M15.074,3.754a3.721,3.721,0,0,0-2.409,1.394c0,.787,1.055,1.407,2.409,1.407a1.706,1.706,0,0,0,1.173-.321,1.2,1.2,0,0,0,.3-1V5.073a1.2,1.2,0,0,0-.3-1A1.706,1.706,0,0,0,15.074,3.754Zm-1.506.57c-.843.327-1.673.163-2.243.482s-.721.576-.652.859a1.11,1.11,0,0,0,1.322.619,3.116,3.116,0,0,0,1.034-.495c.569,1.519,1.118,4.045.069,5.433a2.93,2.93,0,0,1-2.52,1H9.943c-.646,0-1.079-.037-1.267-.261-.163-.193-.274-.685.083-1.864a11.688,11.688,0,0,1-4.394.544,13.571,13.571,0,0,1-3.953-.408A5.269,5.269,0,0,0,0,12.224c0,2.689,9.163,2.763,10.2,2.763a22.913,22.913,0,0,0,2.631-.146,3.683,3.683,0,0,1-.052-.644c0-2.387,2.249-4.332,5.026-4.332.024,0,.059.012.083.012-.1-.146-.226-.308-.357-.482A17.527,17.527,0,0,1,15.646,6.43c-.049,0-.1.012-.153.012C14.108,6.443,13.588,4.595,13.568,4.324Zm-12.291.3C.586,4.62,0,8.2,0,8.814c0,.258,0,1.039,4.366,1.039,4.449,0,4.449-.781,4.449-1.039,0-.616-.487-4.194-1.174-4.194Zm16.532,6.036c-2.287,0-4.144,1.59-4.144,3.541,0,1.307.718,1.581,1.319,1.581a1.11,1.11,0,0,0,.538-.121,3.036,3.036,0,0,0,2.988,2.1,2.941,2.941,0,0,0,3.085-2.766,2.56,2.56,0,0,0-.316-1.22.813.813,0,0,0,.757-.865C22.035,11.96,20.564,10.656,17.808,10.656Zm1.86,3.146a1.5,1.5,0,0,1,.6,1.186,1.774,1.774,0,0,1-3.526,0,1.37,1.37,0,0,1,.042-.358,7.517,7.517,0,0,1,1.006-.445A6.1,6.1,0,0,1,19.668,13.8ZM1.35,14.6a2.393,2.393,0,0,0-.028.383,2.941,2.941,0,0,0,3.085,2.766,3.043,3.043,0,0,0,2.974-2.06c-.441-.028-.892-.056-1.35-.1a1.764,1.764,0,0,1-1.624.974,1.686,1.686,0,0,1-1.763-1.543A10,10,0,0,1,1.35,14.6Z" transform="translate(0 -3.754)"/></svg>