<svg xmlns="http://www.w3.org/2000/svg" width="19.083" height="26.018" viewBox="0 0 19.083 26.018"><defs><style>.a{fill:none;stroke:#272727;stroke-linecap:round;stroke-linejoin:round;stroke-miterlimit:10;stroke-width:2px;}</style></defs><g transform="translate(-882.412 -361.63)"><path class="a" d="M925.988,376.776V357.951a.307.307,0,0,0-.4-.3l-11.873,3.866a.307.307,0,0,0-.212.292V381.6" transform="translate(-25.499 5)"/><path class="a" d="M887.913,609.754l-4.407-3.37a.231.231,0,0,1,.061-.4l12.282-4.191a.532.532,0,0,1,.486.062l4.059,2.81a.231.231,0,0,1-.043.4l-12.209,4.716A.231.231,0,0,1,887.913,609.754Z" transform="translate(0 -223.165)"/></g></svg>