<svg xmlns="http://www.w3.org/2000/svg" width="13.999" height="10.182" viewBox="0 0 13.999 10.182">
  <g id="Group_23271" data-name="Group 23271" transform="translate(-0.001 0)">
    <path id="Subtraction_26" data-name="Subtraction 26" d="M-1147.037-23.819a1.662,1.662,0,0,1-1.608-1.455h-4.244a1.662,1.662,0,0,1-1.607,1.455,1.662,1.662,0,0,1-1.608-1.455h-1.429a.472.472,0,0,1-.4-.239.522.522,0,0,1,0-.491.472.472,0,0,1,.4-.239h.007V-33.03a.953.953,0,0,1,.932-.97h6.06a.953.953,0,0,1,.932.97v.969h3.119a.933.933,0,0,1,.855.587l.159.382c.007.016.715,1.764.829,2.075.032.087.058.146.079.194l0,0a.906.906,0,0,1,.086.449c.012.363,0,1.944,0,2.123l.007,0a.466.466,0,0,1,.4.239.513.513,0,0,1,0,.491.466.466,0,0,1-.4.239h-.961A1.663,1.663,0,0,1-1147.037-23.819Zm0-2.425a.705.705,0,0,0-.7.727.706.706,0,0,0,.7.728.707.707,0,0,0,.7-.728A.707.707,0,0,0-1147.037-26.243Zm-7.459,0a.707.707,0,0,0-.7.727.707.707,0,0,0,.7.728.706.706,0,0,0,.7-.728A.706.706,0,0,0-1154.5-26.243ZM-1149-31v2h3a1.99,1.99,0,0,0-.587-1.413A1.987,1.987,0,0,0-1148-31Z" transform="translate(1158 34)" fill="#fff"/>
  </g>
</svg>
