<svg width="19" height="20" viewBox="0 0 19 20" fill="none" xmlns="http://www.w3.org/2000/svg">
<path d="M15 1.75C14.2707 1.75 13.5712 2.03973 13.0555 2.55546C12.5397 3.07118 12.25 3.77065 12.25 4.5V15.5C12.25 16.2293 12.5397 16.9288 13.0555 17.4445C13.5712 17.9603 14.2707 18.25 15 18.25C15.7293 18.25 16.4288 17.9603 16.9445 17.4445C17.4603 16.9288 17.75 16.2293 17.75 15.5C17.75 14.7707 17.4603 14.0712 16.9445 13.5555C16.4288 13.0397 15.7293 12.75 15 12.75H4C3.27065 12.75 2.57118 13.0397 2.05546 13.5555C1.53973 14.0712 1.25 14.7707 1.25 15.5C1.25 16.2293 1.53973 16.9288 2.05546 17.4445C2.57118 17.9603 3.27065 18.25 4 18.25C4.72935 18.25 5.42882 17.9603 5.94454 17.4445C6.46027 16.9288 6.75 16.2293 6.75 15.5V4.5C6.75 3.77065 6.46027 3.07118 5.94454 2.55546C5.42882 2.03973 4.72935 1.75 4 1.75C3.27065 1.75 2.57118 2.03973 2.05546 2.55546C1.53973 3.07118 1.25 3.77065 1.25 4.5C1.25 5.22935 1.53973 5.92882 2.05546 6.44454C2.57118 6.96027 3.27065 7.25 4 7.25H15C15.7293 7.25 16.4288 6.96027 16.9445 6.44454C17.4603 5.92882 17.75 5.22935 17.75 4.5C17.75 3.77065 17.4603 3.07118 16.9445 2.55546C16.4288 2.03973 15.7293 1.75 15 1.75Z" stroke="#272727" stroke-width="2" stroke-linecap="round" stroke-linejoin="round"/>
</svg>
