<svg xmlns="http://www.w3.org/2000/svg" width="22.5" height="18" viewBox="0 0 22.5 18"><defs><style>.a{fill:#272727;}</style></defs><path class="a" d="M20.562,9.953l-.527-1.317L19.1,6.3A5.224,5.224,0,0,0,14.227,3H8.273A5.225,5.225,0,0,0,3.4,6.3L2.465,8.636,1.938,9.953A2.994,2.994,0,0,0,0,12.75V15a2.976,2.976,0,0,0,.75,1.965V19.5A1.5,1.5,0,0,0,2.25,21h1.5a1.5,1.5,0,0,0,1.5-1.5V18h12v1.5a1.5,1.5,0,0,0,1.5,1.5h1.5a1.5,1.5,0,0,0,1.5-1.5V16.965A2.974,2.974,0,0,0,22.5,15V12.75a2.994,2.994,0,0,0-1.938-2.8ZM6.184,7.414A2.25,2.25,0,0,1,8.273,6h5.953a2.25,2.25,0,0,1,2.089,1.414L17.25,9.75h-12l.934-2.336ZM3.75,14.991a1.415,1.415,0,0,1-1.5-1.5A1.415,1.415,0,0,1,3.75,12,2.886,2.886,0,0,1,6,14.243c0,.9-1.35.748-2.25.748Zm15,0c-.9,0-2.25.15-2.25-.748A2.886,2.886,0,0,1,18.75,12a1.415,1.415,0,0,1,1.5,1.5A1.415,1.415,0,0,1,18.75,14.991Z" transform="translate(0 -3)"/></svg>