<svg width="24" height="25" viewBox="0 0 24 25" fill="none" xmlns="http://www.w3.org/2000/svg">
<path d="M18.948 11.612C18.511 8.17 15.563 5.5 12.004 5.5C9.248 5.5 6.854 7.111 5.761 9.65C3.613 10.292 2.004 12.32 2.004 14.5C2.004 17.257 4.247 19.5 7.004 19.5H8.004V17.5H7.004C5.35 17.5 4.004 16.154 4.004 14.5C4.004 13.096 5.203 11.743 6.677 11.484L7.258 11.382L7.45 10.824C8.153 8.773 9.898 7.5 12.004 7.5C14.761 7.5 17.004 9.743 17.004 12.5V13.5H18.004C19.107 13.5 20.004 14.397 20.004 15.5C20.004 16.603 19.107 17.5 18.004 17.5H16.004V19.5H18.004C20.21 19.5 22.004 17.706 22.004 15.5C22.004 13.619 20.699 12.038 18.948 11.612Z" fill="#272727"/>
<path d="M13.004 14.5V10.5H11.004V14.5H8.004L12.004 19.5L16.004 14.5H13.004Z" fill="#272727"/>
</svg>
