<svg xmlns="http://www.w3.org/2000/svg" width="488" height="180" viewBox="0 0 488 180"><defs><style>.a{fill:#059edf;}.b{fill:#fff;}</style></defs><g transform="translate(-746 -373)"><rect class="a" width="488" height="180" rx="10" transform="translate(746 373)"/><path class="b" d="M59.062,33.075H55.519V22.444a22.444,22.444,0,1,0-44.887,0V33.075H7.087A7.089,7.089,0,0,0,0,40.162v28.35A7.089,7.089,0,0,0,7.087,75.6H59.062a7.089,7.089,0,0,0,7.087-7.087V40.162A7.089,7.089,0,0,0,59.062,33.075Zm-15.356,0H22.444V22.444a10.631,10.631,0,1,1,21.262,0Z" transform="translate(957 425)"/></g></svg>