<svg width="51" height="46" viewBox="0 0 51 46" fill="none" xmlns="http://www.w3.org/2000/svg">
<path d="M49.7561 38.9729C51.3584 41.7502 49.3472 45.2218 46.147 45.2218H4.49023C1.28389 45.2218 -0.71802 41.7448 0.881112 38.9729L21.7098 2.85938C23.3128 0.0808166 27.3278 0.0858512 28.928 2.85938L49.7561 38.9729ZM25.3189 31.5065C23.1136 31.5065 21.3258 33.2943 21.3258 35.4996C21.3258 37.7049 23.1136 39.4926 25.3189 39.4926C27.5242 39.4926 29.3119 37.7049 29.3119 35.4996C29.3119 33.2943 27.5242 31.5065 25.3189 31.5065ZM21.5278 17.1536L22.1717 28.9591C22.2019 29.5115 22.6586 29.944 23.2118 29.944H27.4259C27.9791 29.944 28.4359 29.5115 28.466 28.9591L29.1099 17.1536C29.1425 16.5569 28.6674 16.0551 28.0698 16.0551H22.5678C21.9703 16.0551 21.4953 16.5569 21.5278 17.1536Z" fill="#767676"/>
</svg>
