<svg xmlns="http://www.w3.org/2000/svg" width="21" height="24" viewBox="0 0 21 24"><defs><style>.a{fill:#1685c7;}</style></defs><path class="a" d="M20.438,7.5H.563A.563.563,0,0,1,0,6.938V5.25A2.25,2.25,0,0,1,2.25,3H4.5V.563A.563.563,0,0,1,5.063,0H6.938A.563.563,0,0,1,7.5.563V3h6V.563A.563.563,0,0,1,14.063,0h1.875A.563.563,0,0,1,16.5.563V3h2.25A2.25,2.25,0,0,1,21,5.25V6.938A.563.563,0,0,1,20.438,7.5ZM.563,9H20.438A.563.563,0,0,1,21,9.563V21.75A2.25,2.25,0,0,1,18.75,24H2.25A2.25,2.25,0,0,1,0,21.75V9.563A.563.563,0,0,1,.563,9Zm15.623,4.5-1.32-1.331a.562.562,0,0,0-.8,0L9.1,17.094,6.944,14.921a.563.563,0,0,0-.8,0l-1.331,1.32a.562.562,0,0,0,0,.8l3.872,3.9a.562.562,0,0,0,.8,0l6.7-6.647A.562.562,0,0,0,16.186,13.5Z"/></svg>