<svg xmlns="http://www.w3.org/2000/svg" width="40" height="40" viewBox="0 0 40 40"><defs><style>.a{fill:none;opacity:0.12;}.b{fill:#6ebe46;}</style></defs><g transform="translate(-1050 -476)"><g transform="translate(1050 476)"><circle class="a" cx="20" cy="20" r="20"/></g><path class="b" d="M9.4,7.581a4.118,4.118,0,0,1,1.719-3.117A1.239,1.239,0,0,0,10,3.749H8.851l1.2-.859a.621.621,0,0,0,.145-.871l-.363-.508a.621.621,0,0,0-.871-.145l-1.25.894.449-1.2a.625.625,0,0,0-.367-.8L7.207.042A.625.625,0,0,0,6.4.41L5.625,2.48,4.847.406a.625.625,0,0,0-.8-.367L3.457.257a.621.621,0,0,0-.363.8l.449,1.2L2.289,1.366a.625.625,0,0,0-.871.145l-.363.508A.625.625,0,0,0,1.2,2.89l1.2.859H1.25A1.249,1.249,0,0,0,0,5V18.749A1.249,1.249,0,0,0,1.25,20h6.6a2.482,2.482,0,0,1-.348-1.25V10A2.5,2.5,0,0,1,9.4,7.581ZM8.75,18.749A1.249,1.249,0,0,0,10,20h6.25V15H8.75ZM17.5,20h6.25A1.249,1.249,0,0,0,25,18.749V15H17.5Zm6.25-11.25h-.8a2.861,2.861,0,0,0,.172-.93A2.792,2.792,0,0,0,20.308,5c-1.879,0-2.965,1.863-3.433,2.941C16.4,6.862,15.316,5,13.441,5a2.792,2.792,0,0,0-2.816,2.82,2.762,2.762,0,0,0,.172.93H10A1.249,1.249,0,0,0,8.75,10v3.75h7.5v-5h.6l.027-.008.027.008h.6v5H25V10A1.249,1.249,0,0,0,23.749,8.749Zm-10.625,0a1.469,1.469,0,0,1-.281-.187.959.959,0,0,1-.344-.742.917.917,0,0,1,.941-.945c.73,0,1.391,1.07,1.738,1.875Zm7.781-.187a1.469,1.469,0,0,1-.281.187H18.57c.344-.793,1.008-1.875,1.738-1.875a.917.917,0,0,1,.941.945A.959.959,0,0,1,20.905,8.562Z" transform="translate(1058 486.001)"/></g></svg>