<svg xmlns="http://www.w3.org/2000/svg" width="22" height="18" viewBox="0 0 22 18">
  <g id="Group_24719" data-name="Group 24719" transform="translate(-41 -8)">
    <g id="Rectangle_3200" data-name="Rectangle 3200" transform="translate(41 8)" fill="none" stroke="#272727" stroke-width="2">
      <rect width="22" height="18" rx="3" stroke="none"/>
      <rect x="1" y="1" width="20" height="16" rx="2" fill="none"/>
    </g>
    <g id="Rectangle_3201" data-name="Rectangle 3201" transform="translate(41 8)" fill="none" stroke="#272727" stroke-width="2">
      <path d="M3,0H19a3,3,0,0,1,3,3V6a0,0,0,0,1,0,0H0A0,0,0,0,1,0,6V3A3,3,0,0,1,3,0Z" stroke="none"/>
      <path d="M3,1H19a2,2,0,0,1,2,2V4a1,1,0,0,1-1,1H2A1,1,0,0,1,1,4V3A2,2,0,0,1,3,1Z" fill="none"/>
    </g>
    <path id="Path_40282" data-name="Path 40282" d="M-3.773-3.27a.419.419,0,0,1,.163-.215.437.437,0,0,1,.247-.075.428.428,0,0,1,.288.1.356.356,0,0,1,.122.285.658.658,0,0,1-.04.2L-4-.25a.4.4,0,0,1-.182.218.569.569,0,0,1-.293.078.556.556,0,0,1-.29-.078.405.405,0,0,1-.18-.218l-.65-1.855L-6.273-.25a.43.43,0,0,1-.185.218.546.546,0,0,1-.285.078.556.556,0,0,1-.29-.078.405.405,0,0,1-.18-.218l-1.01-2.72a.575.575,0,0,1-.035-.19.357.357,0,0,1,.133-.293.474.474,0,0,1,.307-.107.481.481,0,0,1,.257.072.4.4,0,0,1,.168.217l.685,1.97.725-1.97a.419.419,0,0,1,.162-.215.437.437,0,0,1,.247-.075.425.425,0,0,1,.245.075.423.423,0,0,1,.16.22l.68,2.01Zm5.605,0A.419.419,0,0,1,2-3.485a.437.437,0,0,1,.247-.075.428.428,0,0,1,.288.1.356.356,0,0,1,.122.285.658.658,0,0,1-.04.2L1.608-.25a.4.4,0,0,1-.182.218.569.569,0,0,1-.293.078.556.556,0,0,1-.29-.078A.405.405,0,0,1,.662-.25L.012-2.105-.668-.25a.43.43,0,0,1-.185.218.546.546,0,0,1-.285.078.556.556,0,0,1-.29-.078.405.405,0,0,1-.18-.218l-1.01-2.72a.575.575,0,0,1-.035-.19.357.357,0,0,1,.132-.293.474.474,0,0,1,.308-.107.481.481,0,0,1,.257.072.4.4,0,0,1,.168.217L-1.1-1.3l.725-1.97a.419.419,0,0,1,.162-.215A.437.437,0,0,1,.032-3.56a.425.425,0,0,1,.245.075.423.423,0,0,1,.16.22l.68,2.01Zm5.605,0A.419.419,0,0,1,7.6-3.485a.437.437,0,0,1,.247-.075.428.428,0,0,1,.288.1.356.356,0,0,1,.122.285.658.658,0,0,1-.04.2L7.213-.25a.4.4,0,0,1-.182.218.569.569,0,0,1-.293.078.556.556,0,0,1-.29-.078.405.405,0,0,1-.18-.218l-.65-1.855L4.938-.25a.43.43,0,0,1-.185.218.546.546,0,0,1-.285.078.556.556,0,0,1-.29-.078A.405.405,0,0,1,4-.25L2.987-2.97a.575.575,0,0,1-.035-.19.357.357,0,0,1,.132-.293.474.474,0,0,1,.308-.107.481.481,0,0,1,.257.072.4.4,0,0,1,.168.217L4.5-1.3l.725-1.97a.419.419,0,0,1,.162-.215.437.437,0,0,1,.247-.075.425.425,0,0,1,.245.075.423.423,0,0,1,.16.22l.68,2.01Z" transform="translate(52 21)" fill="#272727"/>
  </g>
</svg>
