<svg width="22" height="22" viewBox="0 0 22 22" fill="none" xmlns="http://www.w3.org/2000/svg">
<g clip-path="url(#clip0_217_17971)">
<path d="M13.75 6.41675H16.5C17.1019 6.41675 17.6979 6.5353 18.254 6.76563C18.81 6.99597 19.3153 7.33357 19.7409 7.75918C20.1665 8.18478 20.5041 8.69004 20.7344 9.24612C20.9648 9.80219 21.0833 10.3982 21.0833 11.0001C21.0833 11.602 20.9648 12.198 20.7344 12.754C20.5041 13.3101 20.1665 13.8154 19.7409 14.241C19.3153 14.6666 18.81 15.0042 18.254 15.2345C17.6979 15.4649 17.1019 15.5834 16.5 15.5834H13.75M8.24999 15.5834H5.49999C4.8981 15.5834 4.3021 15.4649 3.74602 15.2345C3.18995 15.0042 2.68469 14.6666 2.25908 14.241C1.39954 13.3814 0.916656 12.2157 0.916656 11.0001C0.916656 9.78451 1.39954 8.61872 2.25908 7.75918C3.11863 6.89963 4.28441 6.41675 5.49999 6.41675H8.24999" stroke="white" stroke-width="2" stroke-linecap="round" stroke-linejoin="round"/>
<path d="M7.33334 11H14.6667" stroke="white" stroke-width="2" stroke-linecap="round" stroke-linejoin="round"/>
</g>
<defs>
<clipPath id="clip0_217_17971">
<rect width="22" height="22" fill="white"/>
</clipPath>
</defs>
</svg>
