<svg xmlns="http://www.w3.org/2000/svg" width="20" height="22" viewBox="0 0 20 22"><defs><style>.a{fill:none;stroke:#0085cd;stroke-linecap:round;stroke-linejoin:round;stroke-width:2px;}</style></defs><g transform="translate(1 1)"><path class="a" d="M21,5a3,3,0,1,1-3-3A3,3,0,0,1,21,5Z" transform="translate(-3 -2)"/><path class="a" d="M9,12A3,3,0,1,1,6,9,3,3,0,0,1,9,12Z" transform="translate(-3 -2)"/><path class="a" d="M21,19a3,3,0,1,1-3-3A3,3,0,0,1,21,19Z" transform="translate(-3 -2)"/><path class="a" d="M8.59,13.51l6.83,3.98" transform="translate(-3 -2)"/><path class="a" d="M15.41,6.51,8.59,10.49" transform="translate(-3 -2)"/></g></svg>