<svg xmlns="http://www.w3.org/2000/svg" xmlns:xlink="http://www.w3.org/1999/xlink" width="152" height="52" viewBox="0 0 152 52"><defs><style>.a,.c{fill:#fff;}.a{stroke:#707070;opacity:0;}.b,.g{fill:#2bc5f4;}.d{fill:url(#c);}.e{fill:#6fcfee;}.f{fill:url(#d);}.g{font-size:22px;font-family:Rubik-Regular, Rubik;letter-spacing:-0.065em;}.h{stroke:none;}.i{fill:none;}.j{filter:url(#a);}</style><filter id="a" x="0" y="1" width="50" height="51" filterUnits="userSpaceOnUse"><feOffset dy="3" input="SourceAlpha"/><feGaussianBlur stdDeviation="4" result="b"/><feFlood flood-opacity="0.122"/><feComposite operator="in" in2="b"/><feComposite in="SourceGraphic"/></filter><linearGradient id="c" y1="0.5" x2="1" y2="0.5" gradientUnits="objectBoundingBox"><stop offset="0" stop-color="#6fcfee"/><stop offset="1" stop-color="#1685c7"/></linearGradient><linearGradient id="d" y1="0.5" x2="1" y2="0.5" gradientUnits="objectBoundingBox"><stop offset="0" stop-color="#ddf2fa"/><stop offset="1" stop-color="#6fcfee"/></linearGradient></defs><g transform="translate(11.671 -8.157)"><g class="a" transform="translate(0.329 8.157)"><rect class="h" width="140" height="46"/><rect class="i" x="0.5" y="0.5" width="139" height="45"/></g><g transform="translate(0 18.292)"><path class="b" d="M7.636.3A6.479,6.479,0,0,1,2.973-1.278,6.1,6.1,0,0,1,1.2-5.59L1.17-6.736,1.2-7.882a6.066,6.066,0,0,1,1.8-4.3A6.464,6.464,0,0,1,7.636-13.77a6.464,6.464,0,0,1,4.637,1.589,6.066,6.066,0,0,1,1.8,4.3q.026.313.026,1.146T14.076-5.59A6.1,6.1,0,0,1,12.3-1.278,6.479,6.479,0,0,1,7.636.3Zm0-2.579a2.629,2.629,0,0,0,2.112-.873,4.154,4.154,0,0,0,.824-2.566q.026-.261.026-1.016t-.026-1.016a4.154,4.154,0,0,0-.824-2.566,2.629,2.629,0,0,0-2.112-.873,2.629,2.629,0,0,0-2.112.873A4.154,4.154,0,0,0,4.7-7.752L4.674-6.736,4.7-5.72a4.154,4.154,0,0,0,.824,2.566A2.629,2.629,0,0,0,7.636-2.281ZM16.318.038a.593.593,0,0,1-.438-.182.606.606,0,0,1-.18-.443V-17.835a.6.6,0,0,1,.18-.456.616.616,0,0,1,.438-.169h2.138a.605.605,0,0,1,.451.169.62.62,0,0,1,.167.456V-.588a.631.631,0,0,1-.167.443.582.582,0,0,1-.451.182ZM26.287.3a7.962,7.962,0,0,1-3.246-.586A5.064,5.064,0,0,1,21.1-1.669a2.369,2.369,0,0,1-.631-1.368.524.524,0,0,1,.18-.417.611.611,0,0,1,.412-.156h2.035a.486.486,0,0,1,.386.182q.1.078.541.469a3.168,3.168,0,0,0,1.03.651,3.542,3.542,0,0,0,1.314.234,3.168,3.168,0,0,0,1.7-.417,1.289,1.289,0,0,0,.67-1.146,1.3,1.3,0,0,0-.3-.886,2.563,2.563,0,0,0-1.069-.612,18.586,18.586,0,0,0-2.293-.586,6.838,6.838,0,0,1-3.233-1.433A3.311,3.311,0,0,1,20.8-9.706a3.478,3.478,0,0,1,.618-1.967,4.463,4.463,0,0,1,1.842-1.511,6.713,6.713,0,0,1,2.924-.586,7.323,7.323,0,0,1,2.988.56,5.311,5.311,0,0,1,1.919,1.329,2.24,2.24,0,0,1,.657,1.368.554.554,0,0,1-.167.4.542.542,0,0,1-.4.169H29.275a.723.723,0,0,1-.438-.182,6.616,6.616,0,0,1-.567-.5,2.864,2.864,0,0,0-.9-.573,3.217,3.217,0,0,0-1.211-.208,2.337,2.337,0,0,0-1.481.417,1.327,1.327,0,0,0-.528,1.094,1.228,1.228,0,0,0,.258.808,2.466,2.466,0,0,0,1,.6,14.126,14.126,0,0,0,2.241.573,7.03,7.03,0,0,1,3.542,1.537,3.428,3.428,0,0,1,1.069,2.553,3.522,3.522,0,0,1-1.571,2.97A7.364,7.364,0,0,1,26.287.3ZM39.4.3a6.158,6.158,0,0,1-4.547-1.68,6.717,6.717,0,0,1-1.79-4.729l-.026-.651.026-.651a6.753,6.753,0,0,1,1.816-4.663A6.1,6.1,0,0,1,39.4-13.77a5.951,5.951,0,0,1,4.7,1.876,7.268,7.268,0,0,1,1.662,5v.547a.606.606,0,0,1-.18.443.624.624,0,0,1-.464.182H36.566v.208a4.156,4.156,0,0,0,.786,2.41,2.39,2.39,0,0,0,2.022.977,2.944,2.944,0,0,0,2.447-1.2,1.53,1.53,0,0,1,.374-.365.905.905,0,0,1,.425-.078h2.215a.594.594,0,0,1,.4.143.446.446,0,0,1,.167.352A2.435,2.435,0,0,1,44.668-1.8a6.081,6.081,0,0,1-2.1,1.472A7.54,7.54,0,0,1,39.4.3Zm2.859-8.207v-.078a3.811,3.811,0,0,0-.76-2.475,2.554,2.554,0,0,0-2.1-.938,2.517,2.517,0,0,0-2.087.938,3.856,3.856,0,0,0-.747,2.475v.078ZM47.823.038a.593.593,0,0,1-.438-.182.606.606,0,0,1-.18-.443V-12.859a.651.651,0,0,1,.18-.456.574.574,0,0,1,.438-.2H49.91a.624.624,0,0,1,.464.182.639.639,0,0,1,.18.469v1.068a4.071,4.071,0,0,1,1.559-1.277,4.992,4.992,0,0,1,2.151-.443H55.32a.605.605,0,0,1,.451.169.62.62,0,0,1,.167.456v1.876a.631.631,0,0,1-.167.443.582.582,0,0,1-.451.182H53.311a2.56,2.56,0,0,0-1.906.7,2.622,2.622,0,0,0-.7,1.928V-.588a.606.606,0,0,1-.18.443.624.624,0,0,1-.464.182ZM60.343.3a5.42,5.42,0,0,1-2.409-.534,4.387,4.387,0,0,1-1.726-1.446,3.449,3.449,0,0,1-.631-2.006,3.451,3.451,0,0,1,1.417-2.866,8.45,8.45,0,0,1,3.89-1.485l3.529-.521v-.547a2.352,2.352,0,0,0-.567-1.719,2.491,2.491,0,0,0-1.829-.573,2.6,2.6,0,0,0-1.378.326,4.51,4.51,0,0,0-.837.638q-.309.339-.412.443A.39.39,0,0,1,59-9.68H57.02a.565.565,0,0,1-.4-.156.543.543,0,0,1-.167-.417,2.835,2.835,0,0,1,.631-1.485,4.773,4.773,0,0,1,1.868-1.433,7.175,7.175,0,0,1,3.091-.6,6.094,6.094,0,0,1,4.431,1.381,4.877,4.877,0,0,1,1.391,3.621V-.588a.631.631,0,0,1-.167.443.582.582,0,0,1-.451.182H65.161a.593.593,0,0,1-.438-.182.606.606,0,0,1-.18-.443V-1.6a4.217,4.217,0,0,1-1.61,1.368A5.644,5.644,0,0,1,60.343.3Zm.876-2.475a3.074,3.074,0,0,0,2.318-.938,3.8,3.8,0,0,0,.9-2.736V-6.4l-2.576.417a5.57,5.57,0,0,0-2.254.756,1.519,1.519,0,0,0-.76,1.277,1.487,1.487,0,0,0,.7,1.3A2.925,2.925,0,0,0,61.219-2.177Z" transform="translate(32.117 21.033)"/><g transform="translate(0 0)"><g class="j" transform="matrix(1, 0, 0, 1, -11.67, -10.14)"><ellipse class="c" cx="13" cy="13.5" rx="13" ry="13.5" transform="translate(12 10)"/></g><g transform="translate(5.217 4.131)"><path class="d" d="M24.786,35.13c-8.26,0-7.936,7.277-7.936,7.277,0,3.639,2.963,5.851,4.436,7.277.69.667,2.587,3.163,3.5,3.163s2.812-2.5,3.5-3.166c1.475-1.426,4.436-3.631,4.436-7.277C32.718,42.407,33.046,35.13,24.786,35.13Z" transform="translate(-16.849 -34.708)"/><path class="e" d="M43.323,38.668c0,3.429-2.566,6.92-3.519,8.36S38.7,49.8,37.892,50.3a.661.661,0,0,1-.661,0c-.811-.5-.956-1.832-1.913-3.269S31.791,42.1,31.8,38.671c0-3.992,2.736-6.421,5.764-6.421S43.318,34.676,43.323,38.668Z" transform="translate(-29.622 -32.247)"/><path class="f" d="M53.793,38.651a24.793,24.793,0,0,1-1.965,8.36c-.533,1.44-.556,2.768-1.005,3.272a.388.388,0,0,1-.492,0c-.447-.5-.471-1.832-1-3.272a24.752,24.752,0,0,1-1.967-8.36c0-3.992,1.527-6.421,3.217-6.421S53.79,34.659,53.793,38.651Z" transform="translate(-42.639 -32.23)"/></g></g><text class="g" transform="translate(100.328 21.865)"><tspan x="0" y="0">POS</tspan></text></g></g></svg>