<svg xmlns="http://www.w3.org/2000/svg" width="22" height="30" viewBox="0 0 22 30">
  <g id="Group_25171" data-name="Group 25171" transform="translate(-22 -9)">
    <rect id="Rectangle_4094" data-name="Rectangle 4094" width="20" height="28" rx="3" transform="translate(23 10)" fill="none" stroke="#272727" stroke-linecap="round" stroke-linejoin="round" stroke-width="2"/>
    <g id="Group_23020" data-name="Group 23020" transform="translate(27.521 14.115)">
      <path id="Rectangle_1898" data-name="Rectangle 1898" d="M2.356,0H6.342A2.356,2.356,0,0,1,8.7,2.356v0a0,0,0,0,1,0,0H0a0,0,0,0,1,0,0v0A2.356,2.356,0,0,1,2.356,0Z" transform="translate(1.631)" fill="#272727"/>
      <path id="Rectangle_1900" data-name="Rectangle 1900" d="M0,0H8.7a0,0,0,0,1,0,0V0A1.812,1.812,0,0,1,6.886,1.812H1.812A1.812,1.812,0,0,1,0,0V0A0,0,0,0,1,0,0Z" transform="translate(1.631 7.074)" fill="#272727"/>
      <rect id="Rectangle_1899" data-name="Rectangle 1899" width="11.96" height="3.378" rx="1.689" transform="translate(0 3.025)" fill="#272727"/>
    </g>
    <g id="Group_25153" data-name="Group 25153" transform="translate(0 -1)">
      <rect id="Rectangle_4095" data-name="Rectangle 4095" width="13" height="7" rx="3.5" transform="translate(27 29)" fill="#272727"/>
      <text id="Rp" transform="translate(31 34)" fill="#fff" font-size="4" font-family="Nunito-Bold, Nunito" font-weight="700"><tspan x="0" y="0">Rp</tspan></text>
    </g>
  </g>
</svg>
