<svg xmlns="http://www.w3.org/2000/svg" width="30" height="21" viewBox="0 0 30 21"><defs><style>.a{fill:#a1f176;}</style></defs><path class="a" d="M29.117,2.553A13.881,13.881,0,0,0,23.66,1.5c-5.774,0-11.547,2.922-17.32,2.922A14.222,14.222,0,0,1,2,3.779,1.6,1.6,0,0,0,1.512,3.7,1.492,1.492,0,0,0,0,5.194V20.066a1.491,1.491,0,0,0,.883,1.381A13.873,13.873,0,0,0,6.34,22.5c5.774,0,11.547-2.923,17.321-2.923A14.222,14.222,0,0,1,28,20.22a1.6,1.6,0,0,0,.485.076A1.492,1.492,0,0,0,30,18.805V3.934a1.493,1.493,0,0,0-.884-1.381ZM15,16.5c-2.071,0-3.75-2.015-3.75-4.5S12.929,7.5,15,7.5s3.75,2.015,3.75,4.5S17.07,16.5,15,16.5Z" transform="translate(0 -1.5)"/></svg>