<svg xmlns="http://www.w3.org/2000/svg" width="24" height="15.163" viewBox="0 0 24 15.163"><defs><style>.a{fill:#272727;}</style></defs><path class="a" d="M2,9.333A.6.6,0,0,0,2.583,9a.712.712,0,0,0,0-.667A.594.594,0,0,0,2,8a.6.6,0,0,0-.583.333.712.712,0,0,0,0,.667A.592.592,0,0,0,2,9.333Zm15.344-.6-.4-.521-.432-.563q-.135-.177-.4-.51t-.443-.552q-.182-.219-.422-.49t-.469-.51l-1.3,1.458A2.714,2.714,0,0,1,11.307,8a2.721,2.721,0,0,1-2.14-1.02,2.489,2.489,0,0,1-.589-1.646A2.464,2.464,0,0,1,9.188,3.7l1.844-2.146A2.011,2.011,0,0,0,10.5,1.38a3.34,3.34,0,0,0-.495-.063q-.193-.006-.589,0t-.51.01a2.246,2.246,0,0,0-1.646.688L5.615,3.667H4V9.334l.219-.005q.167,0,.229,0l.2.021a.842.842,0,0,1,.214.046,1.982,1.982,0,0,1,.182.089.879.879,0,0,1,.193.14l3.094,3.042A3.476,3.476,0,0,0,10.7,13.823a1.758,1.758,0,0,0,1.3-.49,1.446,1.446,0,0,0,1.172-.083,1.411,1.411,0,0,0,.755-.885,1.65,1.65,0,0,0,1.323-.458,1.973,1.973,0,0,0,.375-.474.9.9,0,0,0,.146-.526.666.666,0,0,0,.448.1,1.493,1.493,0,0,0,.8-.219,1.335,1.335,0,0,0,.516-.552,1.388,1.388,0,0,0,.125-.745A1.416,1.416,0,0,0,17.344,8.729Zm1.656.6h1V4h-.969L17.4,2.125a2.227,2.227,0,0,0-1.76-.792H13.9a1.908,1.908,0,0,0-1.521.7L10.2,4.563a1.174,1.174,0,0,0-.292.781,1.2,1.2,0,0,0,.281.781,1.465,1.465,0,0,0,1.146.542,1.441,1.441,0,0,0,1.156-.51L14.5,3.886a.747.747,0,0,1,.557-.224.667.667,0,0,1,.579.87q.167.2.583.656t.625.708q.3.375.859,1.1t.673.88A2.824,2.824,0,0,1,19,9.333Zm3,0A.6.6,0,0,0,22.583,9a.712.712,0,0,0,0-.667.677.677,0,0,0-1.166,0,.712.712,0,0,0,0,.667A.592.592,0,0,0,22,9.333Zm2-6V10a.676.676,0,0,1-.667.667H18.812a2.62,2.62,0,0,1-.854,1.109,2.778,2.778,0,0,1-1.3.536,3.363,3.363,0,0,1-.839.849,2.918,2.918,0,0,1-1.067.474,2.912,2.912,0,0,1-1.089.849,2.781,2.781,0,0,1-1.338.256,3.169,3.169,0,0,1-1.313.411,3.417,3.417,0,0,1-1.328-.146,5.54,5.54,0,0,1-1.219-.557A6.012,6.012,0,0,1,7.385,13.6L4.4,10.666H.667a.641.641,0,0,1-.469-.2A.64.64,0,0,1,0,10V3a.641.641,0,0,1,.2-.469.641.641,0,0,1,.469-.2H5.052q.146-.146.49-.5t.495-.5q.151-.146.458-.417a3.039,3.039,0,0,1,.526-.39Q7.24.407,7.552.26A2.466,2.466,0,0,1,8.2.057,4.351,4.351,0,0,1,8.906,0h1.219A3.271,3.271,0,0,1,12.01.583,3.271,3.271,0,0,1,13.9,0h1.74a3.749,3.749,0,0,1,.7.063,4.258,4.258,0,0,1,.589.151,2.335,2.335,0,0,1,.536.276q.28.188.464.323a3.656,3.656,0,0,1,.448.411q.264.276.406.438t.427.5q.285.338.432.505h3.7A.676.676,0,0,1,24,3.334Z"/></svg>