<svg xmlns="http://www.w3.org/2000/svg" xmlns:xlink="http://www.w3.org/1999/xlink" width="41" height="39" viewBox="0 0 41 39">
  <defs>
    <filter id="Union_5" x="0" y="0" width="41" height="39" filterUnits="userSpaceOnUse">
      <feOffset dy="1" input="SourceAlpha"/>
      <feGaussianBlur stdDeviation="1.5" result="blur"/>
      <feFlood flood-opacity="0.078"/>
      <feComposite operator="in" in2="blur"/>
      <feComposite in="SourceGraphic"/>
    </filter>
    <linearGradient id="linear-gradient" x1="0.136" y1="0.131" x2="1.277" y2="1.638" gradientUnits="objectBoundingBox">
      <stop offset="0" stop-color="#056ea7"/>
      <stop offset="1" stop-color="#005b8c"/>
    </linearGradient>
  </defs>
  <g id="Group_23377" data-name="Group 23377" transform="translate(-2323.5 -3951.5)">
    <g transform="matrix(1, 0, 0, 1, 2323.5, 3951.5)" filter="url(#Union_5)">
      <path id="Union_5-2" data-name="Union 5" d="M5,30a5,5,0,0,1-5-5V7H27a5,5,0,0,1,5,5V25a5,5,0,0,1-5,5ZM0,7A7,7,0,0,1,7,0H26V7Z" transform="translate(4.5 3.5)" fill="#fff"/>
    </g>
    <g id="Group_23377-2" data-name="Group 23377">
      <path id="Rectangle_1981" data-name="Rectangle 1981" d="M7,0H26a0,0,0,0,1,0,0V7a0,0,0,0,1,0,0H0A0,0,0,0,1,0,7V7A7,7,0,0,1,7,0Z" transform="translate(2328 3955)" fill="#6fcfee"/>
      <path id="Rectangle_1982" data-name="Rectangle 1982" d="M0,0H27a5,5,0,0,1,5,5V18a5,5,0,0,1-5,5H5a5,5,0,0,1-5-5V0A0,0,0,0,1,0,0Z" transform="translate(2328 3962)" fill="url(#linear-gradient)"/>
    </g>
  </g>
</svg>
