<svg xmlns="http://www.w3.org/2000/svg" width="20" height="20" viewBox="0 0 20 20"><defs><style>.a{fill:#272727;}</style></defs><g transform="translate(0)"><path class="a" d="M15.309,16.366c-.743,0-1.786-.738-3.6-2.546-.873-.868-1.955-2.113-2.987-3.315A5.318,5.318,0,0,1,10.7,9.762c.277-.055.6-.121.917-.2,1.018.885,1.741,1.545,2.275,2.078a11.831,11.831,0,0,1,2.388,2.927,1.134,1.134,0,0,1-.185,1.44l-.006.006A1.073,1.073,0,0,1,15.309,16.366ZM5.57,8.608h0a5.4,5.4,0,0,1-1.762-1.3C2.469,5.976.688,3.781.173,3.141L.157,3.12l-.11-.14.012-.168a.09.09,0,0,0-.021-.058c-.048-.076-.129-.2.33-.8L3.912,5.493a.444.444,0,0,0,.31.131.367.367,0,0,0,.262-.105.4.4,0,0,0-.027-.57L.871,1.37c.068-.073.144-.149.223-.227.114-.114.221-.216.327-.312L5,4.4a.444.444,0,0,0,.31.131.361.361,0,0,0,.367-.385.44.44,0,0,0-.131-.291L2.015.336A1.361,1.361,0,0,1,2.677,0,.2.2,0,0,1,2.8.034l.02.014c.015.012.026.02.037.02h0L3.05.03l.163.133.018.015.033.027c.966.8,3.3,2.756,4.142,3.593A4.727,4.727,0,0,1,8.738,5.687c-.453.463-.958.978-1.208,1.227S6.439,7.877,5.57,8.608Z" transform="translate(0.534 0.081)"/><path class="a" d="M.883,0A.451.451,0,0,0,.672.077.456.456,0,0,0,.464.464v5.1c0,.095,0,.6.011,1.267.011,1.307.033,3.23.033,3.9,0,.416-.095,1.781-.2,3.223C.164,16.031,0,18.389,0,19.466c0,2.562.128,3.686,1.387,3.686,1.058,0,2.318-.96,2.318-5.541A10.27,10.27,0,0,0,3.077,14.2a4.361,4.361,0,0,1-.3-1.223,5.787,5.787,0,0,1,.934-2.34,8.666,8.666,0,0,0,1.42-4.117A6.911,6.911,0,0,0,1.106.037.511.511,0,0,0,.883,0Z" transform="translate(16.371 0) rotate(45)"/></g></svg>