<svg xmlns="http://www.w3.org/2000/svg" xmlns:xlink="http://www.w3.org/1999/xlink" width="41" height="41" viewBox="0 0 41 41">
  <defs>
    <filter id="Polygon_2" x="0" y="0" width="41" height="41" filterUnits="userSpaceOnUse">
      <feOffset dy="1" input="SourceAlpha"/>
      <feGaussianBlur stdDeviation="1.5" result="blur"/>
      <feFlood flood-opacity="0.078"/>
      <feComposite operator="in" in2="blur"/>
      <feComposite in="SourceGraphic"/>
    </filter>
    <linearGradient id="linear-gradient" x1="0.112" y1="-0.054" x2="1.226" y2="1.539" gradientUnits="objectBoundingBox">
      <stop offset="0" stop-color="#ff931e"/>
      <stop offset="1" stop-color="#c60055"/>
    </linearGradient>
  </defs>
  <g id="Group_23374" data-name="Group 23374" transform="translate(-3177.135 -1707.5)">
    <g transform="matrix(1, 0, 0, 1, 3177.14, 1707.5)" filter="url(#Polygon_2)">
      <path id="Polygon_2-2" data-name="Polygon 2" d="M20.322.668A3,3,0,0,1,23.785,2.1l1.752,3.181a3,3,0,0,0,1.181,1.181L29.9,8.215a3,3,0,0,1,1.434,3.463l-1.01,3.488a3,3,0,0,0,0,1.67l1.01,3.488A3,3,0,0,1,29.9,23.785l-3.181,1.752a3,3,0,0,0-1.181,1.181L23.785,29.9a3,3,0,0,1-3.463,1.434l-3.488-1.01a3,3,0,0,0-1.67,0l-3.488,1.01A3,3,0,0,1,8.215,29.9L6.463,26.717a3,3,0,0,0-1.181-1.181L2.1,23.785A3,3,0,0,1,.668,20.322l1.01-3.488a3,3,0,0,0,0-1.67L.668,11.678A3,3,0,0,1,2.1,8.215L5.283,6.463A3,3,0,0,0,6.463,5.283L8.215,2.1A3,3,0,0,1,11.678.668l3.488,1.01a3,3,0,0,0,1.67,0Z" transform="translate(4.5 3.5)" fill="#ff931e"/>
    </g>
    <circle id="Ellipse_634" data-name="Ellipse 634" cx="8" cy="8" r="8" transform="translate(3189.635 1719)" fill="url(#linear-gradient)"/>
  </g>
</svg>
