<svg xmlns="http://www.w3.org/2000/svg" width="17.498" height="16" viewBox="0 0 17.498 16"><defs><style>.a{fill:#0085cd;}</style></defs><path class="a" d="M5.82,1.9a1.65,1.65,0,0,0-1.7.983L3.4,5.463a.356.356,0,0,0,.142.386.388.388,0,0,0,.426.023l1.66-.951.939.9a.4.4,0,0,0,.453.061l1.857-.965.948.9a.4.4,0,0,0,.272.107.379.379,0,0,0,.184-.046l1.857-.965.948.9a.4.4,0,0,0,.359.1.372.372,0,0,0,.275-.239l1.247-3.507a1.72,1.72,0,0,1,.127-.268ZM16.4,1.9a.764.764,0,0,0-.712.5L14.442,5.9a1.141,1.141,0,0,1-.93.741A1.239,1.239,0,0,1,12.5,6.3L12,5.817l-1.352.7A1.194,1.194,0,0,1,9.28,6.333l-.54-.516-1.355.7A1.19,1.19,0,0,1,6.02,6.333l-.513-.49L5,6.134,3.408,9.258a.323.323,0,0,0-.024.107l-1.4,8.167a.376.376,0,0,0,.383.366h11.5l1.4-8.68a.365.365,0,0,1,.039-.161l1.878-3.688v-2.7a.77.77,0,0,0-.637-.764A.816.816,0,0,0,16.4,1.9ZM17.76,5.924l-1.7,3.334a.324.324,0,0,0-.024.107l-1.4,8.533H17.7a.376.376,0,0,0,.383-.366l1.4-8.141a.339.339,0,0,0-.039-.164ZM5.716,11.389h5.751L10.8,14.97H5.053Z" transform="translate(-1.986 -1.898)"/></svg>