<svg xmlns="http://www.w3.org/2000/svg" xmlns:xlink="http://www.w3.org/1999/xlink" width="38.726" height="32.522" viewBox="0 0 38.726 32.522">
  <defs>
    <linearGradient id="linear-gradient" x1="0.5" x2="0.5" y2="1" gradientUnits="objectBoundingBox">
      <stop offset="0" stop-color="#6fcfee"/>
      <stop offset="1" stop-color="#2bc5f4"/>
    </linearGradient>
  </defs>
  <g id="Group_25179" data-name="Group 25179" transform="translate(-2393.274 -465.478)">
    <path id="Union_6" data-name="Union 6" d="M151.363-474.738a4.425,4.425,0,0,1-4-3l-1.841-10.121a1.471,1.471,0,0,1-.081-.186l-1.74-4.934h-5.065a1.847,1.847,0,0,1-2-1.641,1.847,1.847,0,0,1,2-1.64h6.569a1.986,1.986,0,0,1,1.921,1.184l1.53,4.338h24.706a2,2,0,0,1,2,2l-2,11c-.422,1.575-1.344,3-3,3Z" transform="translate(2256.637 961.739)" fill="url(#linear-gradient)"/>
    <path id="Ellipse_661" data-name="Ellipse 661" d="M3.5-1A4.5,4.5,0,1,1-1,3.5,4.505,4.505,0,0,1,3.5-1Zm0,7A2.5,2.5,0,1,0,1,3.5,2.5,2.5,0,0,0,3.5,6Z" transform="translate(2408 490)" fill="#1685c7"/>
    <path id="Ellipse_662" data-name="Ellipse 662" d="M3.5-1A4.5,4.5,0,1,1-1,3.5,4.505,4.505,0,0,1,3.5-1Zm0,7A2.5,2.5,0,1,0,1,3.5,2.5,2.5,0,0,0,3.5,6Z" transform="translate(2420 490)" fill="#1685c7"/>
  </g>
</svg>
