<svg xmlns="http://www.w3.org/2000/svg" xmlns:xlink="http://www.w3.org/1999/xlink" width="24" height="40" viewBox="0 0 24 40"><defs><style>.a{fill:url(#a);}.b{fill:#fff;}.c{fill:none;stroke:#fff;stroke-linecap:round;stroke-linejoin:round;}</style><linearGradient id="a" x1="0.5" x2="0.5" y2="1" gradientUnits="objectBoundingBox"><stop offset="0" stop-color="#6fcfee"/><stop offset="1" stop-color="#40c4ff"/></linearGradient></defs><g transform="translate(2159 1260.41)"><g transform="translate(-2159 -1260)"><rect class="a" width="24" height="40" rx="3" transform="translate(0 -0.41)"/><circle class="b" cx="1.5" cy="1.5" r="1.5" transform="translate(2 1.59)"/></g><g transform="translate(-2152.252 -1244.704)"><path class="c" d="M4.086,6h8.692a1.09,1.09,0,0,1,1.086,1.086v6.519a1.09,1.09,0,0,1-1.086,1.086H4.086A1.09,1.09,0,0,1,3,13.605V7.086A1.09,1.09,0,0,1,4.086,6Z" transform="translate(-3 -6)"/><path class="c" d="M13.864,9,8.432,12.8,3,9" transform="translate(-3 -7.914)"/></g></g></svg>