<svg xmlns="http://www.w3.org/2000/svg" width="40" height="40" viewBox="0 0 40 40"><defs><style>.a{fill:#fff;stroke:#707070;opacity:0;}.b{fill:#9b8900;}.c{stroke:none;}.d{fill:none;}</style></defs><g transform="translate(-288 -68)"><g class="a" transform="translate(288 68)"><rect class="c" width="40" height="40"/><rect class="d" x="0.5" y="0.5" width="39" height="39"/></g><g transform="translate(293.125 69.678)"><g transform="translate(6.198 6.198)"><path class="b" d="M15.536,28.551H11.817A2.013,2.013,0,0,1,9.958,26.32v-2.6a4.3,4.3,0,0,0-1.611-3.223A8.568,8.568,0,0,1,5,13.553,8.821,8.821,0,0,1,13.553,5a8.712,8.712,0,0,1,6.2,2.479,8.824,8.824,0,0,1,2.6,6.2,8.336,8.336,0,0,1-3.223,6.694A4.526,4.526,0,0,0,17.4,23.841v2.851A1.906,1.906,0,0,1,15.536,28.551ZM13.677,6.24A7.6,7.6,0,0,0,6.24,13.553,7.286,7.286,0,0,0,9.09,19.5,5.4,5.4,0,0,1,11.2,23.717v2.6c0,.248,0,.992.62.992h3.719a.586.586,0,0,0,.62-.62V23.841a6.024,6.024,0,0,1,2.231-4.462,7.228,7.228,0,0,0,2.727-5.7,7.41,7.41,0,0,0-2.231-5.33A7.307,7.307,0,0,0,13.677,6.24Z" transform="translate(-5 -5)"/></g><g transform="translate(11.156 24.791)"><path class="b" d="M15.817,21.24H9.62a.62.62,0,1,1,0-1.24h6.2a.62.62,0,1,1,0,1.24Z" transform="translate(-9 -20)"/></g><g transform="translate(14.255)"><path class="b" d="M12.12,3.719a.586.586,0,0,1-.62-.62V.62a.62.62,0,0,1,1.24,0V3.1A.586.586,0,0,1,12.12,3.719Z" transform="translate(-11.5)"/></g><g transform="translate(22.498 4.276)"><path class="b" d="M18.832,6.363a.745.745,0,0,1-.5-.124.6.6,0,0,1,0-.868l1.735-1.735a.614.614,0,0,1,.868.868L19.2,6.239a1.249,1.249,0,0,1-.372.124Z" transform="translate(-18.15 -3.45)"/></g><g transform="translate(26.03 14.255)"><path class="b" d="M24.1,12.74H21.62a.62.62,0,1,1,0-1.24H24.1a.62.62,0,1,1,0,1.24Z" transform="translate(-21 -11.5)"/></g><g transform="translate(22.498 22.622)"><path class="b" d="M20.567,21.163a.745.745,0,0,1-.5-.124L18.336,19.3a.614.614,0,0,1,.868-.868l1.735,1.735a.6.6,0,0,1,0,.868c0,.124-.124.124-.372.124Z" transform="translate(-18.15 -18.25)"/></g><g transform="translate(4.152 22.622)"><path class="b" d="M4.032,21.163a.745.745,0,0,1-.5-.124.6.6,0,0,1,0-.868l1.735-1.735a.614.614,0,0,1,.868.868L4.4,21.039a.455.455,0,0,1-.372.124Z" transform="translate(-3.35 -18.25)"/></g><g transform="translate(0 14.255)"><path class="b" d="M3.1,12.74H.62a.62.62,0,0,1,0-1.24H3.1a.62.62,0,0,1,0,1.24Z" transform="translate(0 -11.5)"/></g><g transform="translate(4.152 4.152)"><path class="b" d="M5.767,6.387a.745.745,0,0,1-.5-.124L3.536,4.4A.614.614,0,0,1,4.4,3.536L6.139,5.271a.6.6,0,0,1,0,.868c-.124.124-.248.248-.372.248Z" transform="translate(-3.35 -3.35)"/></g><g transform="translate(14.255 9.297)"><path class="b" d="M17.078,13.7a.586.586,0,0,1-.62-.62A4.392,4.392,0,0,0,12.12,8.74a.62.62,0,0,1,0-1.24A5.555,5.555,0,0,1,17.7,13.078.586.586,0,0,1,17.078,13.7Z" transform="translate(-11.5 -7.5)"/></g></g></g></svg>