<svg xmlns="http://www.w3.org/2000/svg" width="26.916" height="23.783" viewBox="0 0 26.916 23.783"><defs><style>.a{fill:none;stroke:#000;stroke-linecap:round;stroke-linejoin:round;stroke-width:2px;}.b{fill:#272727;}</style></defs><g transform="translate(-18 -6.49)"><g transform="translate(18 13)"><path class="a" d="M9.455,20.727A.727.727,0,1,1,8.727,20,.727.727,0,0,1,9.455,20.727Z" transform="translate(-1.909 -5.182)"/><path class="a" d="M20.455,20.727A.727.727,0,1,1,19.727,20,.727.727,0,0,1,20.455,20.727Z" transform="translate(-4.909 -5.182)"/><path class="a" d="M1,1H3.909l1.949,9.738a1.455,1.455,0,0,0,1.455,1.171h7.069a1.455,1.455,0,0,0,1.455-1.171L17,4.636H4.636"/></g><path class="b" d="M1.238-1.8a.274.274,0,0,1-.2-.086.274.274,0,0,1-.086-.2V-9.5a.3.3,0,0,1,.08-.211A.269.269,0,0,1,1.238-9.8H4.38a3.665,3.665,0,0,1,2.36.686,2.339,2.339,0,0,1,.851,1.931,2.4,2.4,0,0,1-.371,1.36A2.46,2.46,0,0,1,6.2-4.955L7.74-2.167a.284.284,0,0,1,.034.126.239.239,0,0,1-.069.166.224.224,0,0,1-.171.074H5.923a.477.477,0,0,1-.469-.309L4.2-4.589H3.1v2.5a.269.269,0,0,1-.086.206A.3.3,0,0,1,2.8-1.8ZM4.369-6.269a1.043,1.043,0,0,0,.748-.246.9.9,0,0,0,.257-.68.954.954,0,0,0-.257-.7,1,1,0,0,0-.748-.263H3.1v1.885Zm4.7,8.639a.3.3,0,0,1-.211-.08.269.269,0,0,1-.086-.206V-5.457a.269.269,0,0,1,.086-.206.3.3,0,0,1,.211-.08h1.36a.278.278,0,0,1,.206.08.278.278,0,0,1,.08.206v.411a2.092,2.092,0,0,1,1.771-.811,2.247,2.247,0,0,1,1.743.691,2.978,2.978,0,0,1,.68,1.971q.011.149.011.423t-.011.434A2.964,2.964,0,0,1,14.219-.4a2.224,2.224,0,0,1-1.737.708,1.915,1.915,0,0,1-1.657-.754V2.084a.274.274,0,0,1-.286.286Zm2.754-3.645a.854.854,0,0,0,.737-.3,1.567,1.567,0,0,0,.257-.84q.011-.114.011-.354t-.011-.354a1.568,1.568,0,0,0-.257-.84.854.854,0,0,0-.737-.3.862.862,0,0,0-.731.314,1.384,1.384,0,0,0-.263.794q-.011.149-.011.434t.011.423a1.2,1.2,0,0,0,.269.737A.9.9,0,0,0,11.819-1.275Z" transform="translate(30 16.29)"/></g></svg>