<svg xmlns="http://www.w3.org/2000/svg" width="32" height="32" viewBox="0 0 32 32"><defs><style>.a,.b{fill:#333;}.a{stroke:#707070;opacity:0;}.b{fill-rule:evenodd;}.c{stroke:none;}.d{fill:none;}</style></defs><g transform="translate(-227 -683)"><g class="a" transform="translate(227 683)"><rect class="c" width="32" height="32"/><rect class="d" x="0.5" y="0.5" width="31" height="31"/></g><g transform="translate(216.405 671.98)"><path class="b" d="M39.679,31.731c-.714-.355-4.248-2.086-4.906-2.32s-1.137-.356-1.616.355-1.852,2.33-2.275,2.807-.836.533-1.551.178a19.454,19.454,0,0,1-5.78-3.555,21.419,21.419,0,0,1-3.994-4.949c-.423-.72-.047-1.1.31-1.459.329-.318.724-.832,1.081-1.254a4.965,4.965,0,0,0,.724-1.188,1.327,1.327,0,0,0-.066-1.254c-.179-.356-1.617-3.882-2.218-5.314-.583-1.394-1.175-1.2-1.617-1.226-.413-.019-.893-.019-1.372-.019a2.634,2.634,0,0,0-1.917.9,7.985,7.985,0,0,0-2.509,5.959c0,3.517,2.575,6.923,2.932,7.4s5.066,7.69,12.274,10.787a39.965,39.965,0,0,0,4.088,1.506,10.034,10.034,0,0,0,4.53.29c1.381-.206,4.248-1.731,4.849-3.405a5.984,5.984,0,0,0,.414-3.4C40.882,32.274,40.4,32.1,39.679,31.731Z"/></g></g></svg>