<svg id="Group_23377" data-name="Group 23377" xmlns="http://www.w3.org/2000/svg" xmlns:xlink="http://www.w3.org/1999/xlink" width="32" height="30" viewBox="0 0 32 30">
  <defs>
    <linearGradient id="linear-gradient" x1="0.136" y1="0.131" x2="1.277" y2="1.638" gradientUnits="objectBoundingBox">
      <stop offset="0" stop-color="#056ea7"/>
      <stop offset="1" stop-color="#005b8c"/>
    </linearGradient>
  </defs>
  <path id="Rectangle_1981" data-name="Rectangle 1981" d="M7,0H26a0,0,0,0,1,0,0V7a0,0,0,0,1,0,0H0A0,0,0,0,1,0,7V7A7,7,0,0,1,7,0Z" fill="#6fcfee"/>
  <path id="Rectangle_1982" data-name="Rectangle 1982" d="M0,0H27a5,5,0,0,1,5,5V18a5,5,0,0,1-5,5H5a5,5,0,0,1-5-5V0A0,0,0,0,1,0,0Z" transform="translate(0 7)" fill="url(#linear-gradient)"/>
</svg>
