<svg xmlns="http://www.w3.org/2000/svg" width="29.776" height="14.24" viewBox="0 0 29.776 14.24"><defs><style>.arpplus{fill:#272727;}</style></defs><path class="arpplus" d="M4.16-.528a.384.384,0,0,1-.28-.12.384.384,0,0,1-.12-.28v-2.9H.944a.384.384,0,0,1-.28-.12.384.384,0,0,1-.12-.28V-5.456a.417.417,0,0,1,.112-.3.376.376,0,0,1,.288-.12H3.76v-2.8a.376.376,0,0,1,.12-.288.4.4,0,0,1,.28-.112H5.536a.417.417,0,0,1,.3.112.376.376,0,0,1,.12.288v2.8H8.736a.4.4,0,0,1,.3.12.4.4,0,0,1,.12.3v1.232a.376.376,0,0,1-.12.288.417.417,0,0,1-.3.112H5.952v2.9a.376.376,0,0,1-.12.288.417.417,0,0,1-.3.112ZM11.168,0a.384.384,0,0,1-.28-.12.384.384,0,0,1-.12-.28V-10.784a.417.417,0,0,1,.112-.3.376.376,0,0,1,.288-.12h4.4a5.132,5.132,0,0,1,3.3.96,3.275,3.275,0,0,1,1.192,2.7,3.367,3.367,0,0,1-.52,1.9,3.444,3.444,0,0,1-1.432,1.216l2.16,3.9a.4.4,0,0,1,.048.176.334.334,0,0,1-.1.232.313.313,0,0,1-.24.1H17.728a.668.668,0,0,1-.656-.432L15.312-3.9H13.776V-.4a.376.376,0,0,1-.12.288.417.417,0,0,1-.3.112Zm4.384-6.256A1.46,1.46,0,0,0,16.6-6.6a1.254,1.254,0,0,0,.36-.952,1.336,1.336,0,0,0-.36-.976A1.4,1.4,0,0,0,15.552-8.9H13.776v2.64Zm6.576,9.3a.417.417,0,0,1-.3-.112.376.376,0,0,1-.12-.288V-7.92a.376.376,0,0,1,.12-.288.417.417,0,0,1,.3-.112h1.9a.39.39,0,0,1,.288.112.39.39,0,0,1,.112.288v.576a2.929,2.929,0,0,1,2.48-1.136,3.146,3.146,0,0,1,2.44.968,4.17,4.17,0,0,1,.952,2.76q.016.208.016.592t-.016.608a4.15,4.15,0,0,1-.96,2.72A3.113,3.113,0,0,1,26.912.16,2.681,2.681,0,0,1,24.592-.9V2.64a.384.384,0,0,1-.4.4Zm3.856-5.1a1.2,1.2,0,0,0,1.032-.424,2.195,2.195,0,0,0,.36-1.176q.016-.16.016-.5t-.016-.5a2.195,2.195,0,0,0-.36-1.176,1.2,1.2,0,0,0-1.032-.424,1.207,1.207,0,0,0-1.024.44A1.938,1.938,0,0,0,24.592-4.7q-.016.208-.016.608,0,.384.016.592a1.686,1.686,0,0,0,.376,1.032A1.254,1.254,0,0,0,25.984-2.064Z" transform="translate(-0.544 11.2)"/></svg>
