<svg xmlns="http://www.w3.org/2000/svg" width="24.449" height="18.212" viewBox="0 0 24.449 18.212"><defs><style>.a{fill:none;stroke:#272727;stroke-linecap:round;stroke-linejoin:round;stroke-width:2px;}</style></defs><g transform="translate(1 1)"><g transform="translate(14.957 2.375)"><path class="a" d="M1.681,4h6.13a.681.681,0,0,1,.681.681V8.768a.681.681,0,0,1-.681.681H1.681A.681.681,0,0,1,1,8.768V4.681A.681.681,0,0,1,1.681,4Z" transform="translate(-1 -4)"/></g><path class="a" d="M16.57,12.964V11.142A3.642,3.642,0,0,0,12.927,7.5H5.642A3.642,3.642,0,0,0,2,11.142v1.821" transform="translate(-2 3.248)"/><path class="a" d="M11.285,5.142A3.642,3.642,0,1,1,7.642,1.5,3.642,3.642,0,0,1,11.285,5.142Z" transform="translate(-0.358 -1.5)"/></g></svg>