<svg xmlns="http://www.w3.org/2000/svg" width="29" height="20" viewBox="0 0 29 20"><defs><style>.a{fill:none;stroke:#272727;stroke-linecap:round;stroke-linejoin:round;stroke-width:2px;}</style></defs><g transform="translate(1 1)"><path class="a" d="M6,0h7a6,6,0,0,1,6,6V6a0,0,0,0,1,0,0H0A0,0,0,0,1,0,6V6A6,6,0,0,1,6,0Z" transform="translate(4)"/><rect class="a" width="27" height="7" rx="3.5" transform="translate(0 6)"/><path class="a" d="M0,0H19a0,0,0,0,1,0,0V0a5,5,0,0,1-5,5H5A5,5,0,0,1,0,0V0A0,0,0,0,1,0,0Z" transform="translate(4 13)"/></g></svg>