<svg xmlns="http://www.w3.org/2000/svg" width="31.305" height="16.111" viewBox="0 0 31.305 16.111"><defs><style>.a{fill:#272727;}.b{fill:none;stroke:#272727;stroke-linecap:round;stroke-linejoin:round;}</style></defs><g transform="translate(-22.852 -25.928)"><path class="a" d="M11.889,2.621c-1.039,0-1.848.519-1.848,1.193s.81,1.2,1.848,1.2a1.216,1.216,0,0,0,.9-.274,1.113,1.113,0,0,0,.232-.855V3.75A1.113,1.113,0,0,0,12.79,2.9,1.216,1.216,0,0,0,11.889,2.621ZM9.375,3.931c-.647.28-.708.306-.73.317a.7.7,0,0,0-.455.78.832.832,0,0,0,1.015.53A2.294,2.294,0,0,0,10,5.135c.437,1.3.858,3.462.053,4.65a2.144,2.144,0,0,1-1.934.858H7.631c-.5,0-.828-.032-.972-.224-.125-.165-.21-.586.064-1.6a8.114,8.114,0,0,1-3.372.466A9.392,9.392,0,0,1,.317,8.941,4.957,4.957,0,0,0,0,10.643c0,2.3,7.031,2.365,7.83,2.365a15.786,15.786,0,0,0,2.019-.125,3.507,3.507,0,0,1-.04-.551,3.787,3.787,0,0,1,3.857-3.707c.019,0,.045.011.064.011-.08-.125-.173-.264-.274-.413a15.315,15.315,0,0,1-1.449-2.538c-.037,0-.077.011-.117.011A2.619,2.619,0,0,1,9.575,4.6l-.011-.011A1.554,1.554,0,0,1,9.375,3.931ZM.94,6.584A1.116,1.116,0,0,0,0,7.724c0,.221,0,.89,3.351.89,3.414,0,3.414-.669,3.414-.89,0-.527-.413-1.14-.94-1.14ZM13.666,9.3a3.112,3.112,0,0,0-3.18,3.031c0,1.119.551,1.353,1.012,1.353a.781.781,0,0,0,.413-.1,2.365,2.365,0,0,0,4.661-.573,2.392,2.392,0,0,0-.242-1.044.67.67,0,0,0,.581-.74C16.91,10.417,15.781,9.3,13.666,9.3Zm1.428,2.693a1.35,1.35,0,0,1-.89,2.368,1.353,1.353,0,0,1-1.353-1.353,1.3,1.3,0,0,1,.032-.306,5.49,5.49,0,0,1,.772-.381A4.264,4.264,0,0,1,15.093,11.994Zm-.89.338a.677.677,0,1,0,.677.677A.677.677,0,0,0,14.2,12.332Zm-13.168.349a2.28,2.28,0,0,0-.021.328,2.364,2.364,0,0,0,4.65.6c-.338-.024-.684-.048-1.036-.085a1.351,1.351,0,0,1-2.6-.487A7.121,7.121,0,0,1,1.036,12.681Zm1.713.541a.67.67,0,0,0,1.161.21C3.516,13.376,3.127,13.3,2.749,13.221Z" transform="translate(29.85 23.307)"/><path class="b" d="M27.868,32.313s-4.521.9-4.521,3.831,7.118,5.394,14.832,5.394,15.306-2,15.468-5.394-5.308-3.831-5.308-3.831" transform="translate(0.005)"/></g></svg>