<svg xmlns="http://www.w3.org/2000/svg" width="27" height="22.773" viewBox="0 0 27 22.773"><defs><style>.a{fill:none;stroke:#000;stroke-linecap:round;stroke-linejoin:round;stroke-width:2px;}</style></defs><g transform="translate(-18 -7.5)"><g transform="translate(18 13)"><path class="a" d="M9.455,20.727A.727.727,0,1,1,8.727,20,.727.727,0,0,1,9.455,20.727Z" transform="translate(-1.909 -5.182)"/><path class="a" d="M20.455,20.727A.727.727,0,1,1,19.727,20,.727.727,0,0,1,20.455,20.727Z" transform="translate(-4.909 -5.182)"/><path class="a" d="M1,1H3.909l1.949,9.738a1.455,1.455,0,0,0,1.455,1.171h7.069a1.455,1.455,0,0,0,1.455-1.171L17,4.636H4.636"/></g><g transform="translate(29 3.5)"><path class="a" d="M12,5V15" transform="translate(-2)"/><path class="a" d="M5,12H15" transform="translate(0 -2)"/></g></g></svg>