<svg xmlns="http://www.w3.org/2000/svg" width="24" height="18" viewBox="0 0 24 18"><defs><style>.a{fill:none;stroke:#fff;stroke-linecap:round;stroke-linejoin:round;stroke-width:2px;}</style></defs><g transform="translate(1 1)"><path class="a" d="M3,4H21a2,2,0,0,1,2,2V18a2,2,0,0,1-2,2H3a2,2,0,0,1-2-2V6A2,2,0,0,1,3,4Z" transform="translate(-1 -4)"/><g transform="translate(3.8 3)"><path class="a" d="M10,10.5v-1a2,2,0,0,0-2-2H4a2,2,0,0,0-2,2v1" transform="translate(-2 -0.5)"/><path class="a" d="M8,3.5a2,2,0,1,1-2-2A2,2,0,0,1,8,3.5Z" transform="translate(-2 -1.5)"/></g></g></svg>