<svg xmlns="http://www.w3.org/2000/svg" width="16.807" height="20" viewBox="0 0 16.807 20"><defs><style>.a{fill:#272727;}</style></defs><path class="a" d="M14.177,11.569a4.168,4.168,0,0,1,2.233-3.786,4.8,4.8,0,0,0-3.782-1.991c-1.585-.125-3.318.924-3.952.924-.67,0-2.206-.88-3.411-.88C2.773,5.876.125,7.823.125,11.783a11.129,11.129,0,0,0,.643,3.626C1.34,17.048,3.4,21.066,5.555,21c1.125-.027,1.92-.8,3.385-.8,1.42,0,2.157.8,3.411.8,2.17-.031,4.036-3.684,4.581-5.327a4.426,4.426,0,0,1-2.755-4.1ZM11.649,4.237A4.205,4.205,0,0,0,12.721,1,4.735,4.735,0,0,0,9.689,2.558a4.271,4.271,0,0,0-1.143,3.21A3.75,3.75,0,0,0,11.649,4.237Z" transform="translate(-0.125 -1)"/></svg>