<svg xmlns="http://www.w3.org/2000/svg" xmlns:xlink="http://www.w3.org/1999/xlink" width="32" height="32" viewBox="0 0 32 32"><defs><style>.a{fill:url(#a);}</style><linearGradient id="a" x1="0.5" x2="0.5" y2="1" gradientUnits="objectBoundingBox"><stop offset="0" stop-color="#767676"/><stop offset="1" stop-color="#3b3b3b"/></linearGradient></defs><path class="a" d="M16,32c-.163,0-.326,0-.5-.008V29.664h1v2.328C16.3,32,16.142,32,16,32Zm-4.611-.674h0a16.115,16.115,0,0,1-8.164-5.693A16,16,0,0,1,16,0,16,16,0,0,1,28.775,25.632a16.134,16.134,0,0,1-8.165,5.694V19.992l6.8-5.911a2,2,0,1,0-2.824-2.83l-5.417,5.412A7.124,7.124,0,0,1,16,17.621a7.228,7.228,0,0,1-3.174-.957L7.414,11.251a2,2,0,0,0-2.831,0,2.013,2.013,0,0,0,0,2.83l6.806,5.911V31.326ZM16,6.667a4.5,4.5,0,1,0,4.5,4.5A4.5,4.5,0,0,0,16,6.667Z"/></svg>