<svg xmlns="http://www.w3.org/2000/svg" xmlns:xlink="http://www.w3.org/1999/xlink" width="32" height="32" viewBox="0 0 32 32"><defs><style>.a{fill:url(#a);}</style><linearGradient id="a" x1="0.5" x2="0.5" y2="1" gradientUnits="objectBoundingBox"><stop offset="0" stop-color="#0085cd"/><stop offset="1" stop-color="#026da7"/></linearGradient></defs><path class="a" d="M9781,354c-.54,0-1.085-.027-1.62-.081V343.643l1.677-1.458,1.675,1.458v10.264A16.246,16.246,0,0,1,9781,354Zm-4.75-.717h0c-.255-.079-.512-.166-.761-.258V351.01h.762v2.271Zm9.613-.036h0V351.01h.763v1.973c-.258.1-.515.185-.762.264Zm-13.508-1.782h0a16,16,0,1,1,17.4-.071v-7.749l5.181-4.5a1.525,1.525,0,0,0,0-2.154,1.523,1.523,0,0,0-2.154,0l-4.123,4.123a5.431,5.431,0,0,1-2.414.73,5.51,5.51,0,0,1-2.415-.73l-.713-.713.951-.829a3.426,3.426,0,1,0-1.244-2.877,1.523,1.523,0,0,0-.418.3l-1.35,1.35-1.35-1.35a1.5,1.5,0,0,0-.418-.3,3.428,3.428,0,1,0-1.244,2.877l.951.829-.713.713a5.431,5.431,0,0,1-2.414.73,5.512,5.512,0,0,1-2.417-.73l-4.121-4.123a1.524,1.524,0,0,0-2.156,2.154l5.181,4.5v7.822ZM9781,326a4,4,0,1,0,4,4A4,4,0,0,0,9781,326Z" transform="translate(-9764.999 -322)"/></svg>