<svg xmlns="http://www.w3.org/2000/svg" width="26" height="26" viewBox="0 0 26 26"><defs><style>.a{fill:none;opacity:0.12;}.b{fill:#fff;}</style></defs><g transform="translate(0.261 0.326)"><circle class="a" cx="13" cy="13" r="13" transform="translate(-0.261 -0.326)"/><path class="b" d="M15.83,1H7.578A2.579,2.579,0,0,0,5,3.578V21.112a2.579,2.579,0,0,0,2.578,2.578H15.83a2.579,2.579,0,0,0,2.578-2.578V3.578A2.579,2.579,0,0,0,15.83,1ZM11.7,22.659a1.547,1.547,0,1,1,1.547-1.547A1.545,1.545,0,0,1,11.7,22.659Zm4.641-4.126H7.063V4.094h9.283Z" transform="translate(0.79 0.361)"/></g></svg>