<svg xmlns="http://www.w3.org/2000/svg" xmlns:xlink="http://www.w3.org/1999/xlink" width="145" height="100" viewBox="0 0 145 100"><defs><style>.a{fill:#f59700;}.b{fill:url(#a);}</style><linearGradient id="a" x1="0.5" x2="0.5" y2="1" gradientUnits="objectBoundingBox"><stop offset="0" stop-color="#fff"/><stop offset="1" stop-color="#e5f0fe"/></linearGradient></defs><circle class="a" cx="34.437" cy="34.437" r="34.437" transform="translate(76.125)"/><path class="b" d="M20.454,65.454A20.454,20.454,0,0,1,0,45c0-9.038,7.582-16.364,16.934-16.364q.612,0,1.214.041A29.531,29.531,0,0,1,46.57,8.182a30.135,30.135,0,0,1,19.168,6.8A34.139,34.139,0,0,1,94.2,0c17.273,0,31.525,12.493,33.607,28.638l.262,0C137.418,28.636,145,35.962,145,45a20.454,20.454,0,0,1-20.454,20.454Z" transform="translate(0 34.545)"/></svg>