<svg xmlns="http://www.w3.org/2000/svg" width="30.006" height="18" viewBox="0 0 30.006 18"><path d="M24.042,9a5.931,5.931,0,0,0-1.987.323L20.513,6.75h3.862A1.122,1.122,0,0,0,25.5,5.625v-1.5A1.122,1.122,0,0,0,24.375,3H22.252a1.125,1.125,0,0,0-.834.37L19.659,5.325,18.591,3.544A1.133,1.133,0,0,0,17.625,3h-3.75a.752.752,0,0,0-.75.75V4.5a.752.752,0,0,0,.75.75h3.112l.9,1.5h-7.2C9.853,5.667,8.578,4.875,6,4.875H3.4A1.141,1.141,0,0,0,2.25,6.023a1.124,1.124,0,0,0,1.125,1.1H6A2.482,2.482,0,0,1,8.241,8.288l-.53.961a6,6,0,1,0,4.1,7.252h3.947a1.126,1.126,0,0,0,1.125-1.177,7.1,7.1,0,0,1,2.634-5.859l.586.975A6,6,0,1,0,24.042,9ZM6,18.75a3.75,3.75,0,0,1,0-7.5,3.488,3.488,0,0,1,.586.047L4.641,14.831A1.126,1.126,0,0,0,5.625,16.5H9.436A3.76,3.76,0,0,1,6,18.75Zm21.745-3.544A3.75,3.75,0,0,1,20.25,15a3.719,3.719,0,0,1,1.036-2.583L23.6,16.28a.753.753,0,0,0,1.031.258l.642-.384a.753.753,0,0,0,.258-1.031L23.255,11.33A3.59,3.59,0,0,1,24,11.255a3.75,3.75,0,0,1,3.745,3.952Z" transform="translate(0.002 -3)"/></svg>