<svg xmlns="http://www.w3.org/2000/svg" xmlns:xlink="http://www.w3.org/1999/xlink" width="145" height="100" viewBox="0 0 145 100"><defs><style>.a{fill:url(#a);}.b{fill:#f59700;}</style><linearGradient id="a" x1="0.5" x2="0.5" y2="1" gradientUnits="objectBoundingBox"><stop offset="0" stop-color="#b1b1b1"/><stop offset="1" stop-color="#464646"/></linearGradient></defs><path class="a" d="M20.454,65.454A20.454,20.454,0,0,1,0,45c0-9.038,7.582-16.364,16.934-16.364q.612,0,1.214.041A29.531,29.531,0,0,1,46.57,8.182a30.135,30.135,0,0,1,19.168,6.8A34.139,34.139,0,0,1,94.2,0c17.273,0,31.525,12.493,33.607,28.638l.262,0C137.418,28.636,145,35.962,145,45a20.454,20.454,0,0,1-20.454,20.454Z" transform="translate(0 34.545)"/><path class="b" d="M34.437,68.417A34.49,34.49,0,0,1,0,33.872,34.531,34.531,0,0,1,27.639,0,34.508,34.508,0,0,0,62.985,53.2,34.4,34.4,0,0,1,34.437,68.417Z" transform="translate(52.563 0.673)"/><path class="b" d="M7,0,8.75,5.578,14,5.729l-4.168,3.6L11.326,15,7,11.646,2.674,15,4.168,9.328,0,5.729l5.25-.151Z" transform="translate(13 29)"/><path class="b" d="M12,0l3,8.925,9,.242-7.146,5.758L19.416,24,12,18.633,4.584,24l2.562-9.075L0,9.167l9-.242Z" transform="translate(103)"/></svg>