<svg id="Capa_1" enable-background="new 0 0 512 512" height="512" viewBox="0 0 512 512" width="512" xmlns="http://www.w3.org/2000/svg"><g><path d="m512 100.006h-78.793l78.766-78.766-21.213-21.213-99.979 99.979h-390.781v311.987h78.793l-78.766 78.767 21.213 21.213 99.979-99.979h390.781zm-482 281.988v-251.988h330.781l-30 30h-270.777v191.987h78.79l-30 30h-78.794zm260.815-182.022-90.843 90.843c-6.308-10.114-9.966-22.043-9.966-34.815 0-36.389 29.604-65.994 65.994-65.994 12.772 0 24.701 3.659 34.815 9.966zm-112.436 112.436-9.586 9.586h-78.79v-131.988h96.351c-16.321 17.216-26.348 40.455-26.348 65.994 0 21.064 6.826 40.562 18.373 56.408zm42.806-.38 90.843-90.843c6.308 10.114 9.966 22.043 9.966 34.815 0 36.389-29.604 65.994-65.994 65.994-12.772 0-24.701-3.659-34.815-9.966zm112.436-112.436 9.586-9.586h78.79v131.987h-96.351c16.321-17.216 26.348-40.455 26.348-65.994 0-21.063-6.826-40.561-18.373-56.407zm148.379 182.402h-330.781l30-30h270.777v-191.988h-78.79l30-30h78.794z"/></g></svg>