<svg id="pembatalan" xmlns="http://www.w3.org/2000/svg" width="24" height="24" viewBox="0 0 24 24">
  <circle id="Ellipse_386" data-name="Ellipse 386" cx="10" cy="10" r="10" transform="translate(2 2)" fill="#fff"/>
  <path id="Icon_awesome-times-circle" data-name="Icon awesome-times-circle" d="M12.375.375a12,12,0,1,0,12,12A12,12,0,0,0,12.375.375Zm5.884,15.15a.581.581,0,0,1,0,.823l-1.916,1.911a.581.581,0,0,1-.823,0l-3.145-3.174-3.15,3.174a.581.581,0,0,1-.823,0L6.491,16.343a.581.581,0,0,1,0-.823l3.174-3.145L6.491,9.225a.581.581,0,0,1,0-.823L8.407,6.486a.581.581,0,0,1,.823,0l3.145,3.179,3.15-3.174a.581.581,0,0,1,.823,0l1.916,1.916a.581.581,0,0,1,0,.823l-3.179,3.145Z" transform="translate(-0.375 -0.375)" fill="#f44336"/>
</svg>
