<svg xmlns="http://www.w3.org/2000/svg" xmlns:xlink="http://www.w3.org/1999/xlink" width="14.139" height="13.078" viewBox="0 0 14.139 13.078"><defs><style>.a{fill:none;stroke:#40c4ff;}.a,.c,.d{stroke-linecap:round;stroke-linejoin:round;}.b{opacity:0;}.c,.d{stroke:#707070;stroke-width:2px;}.c{fill:url(#a);}.d{fill:url(#b);}</style><linearGradient id="a" y1="0.5" x2="1" y2="0.5" gradientUnits="objectBoundingBox"><stop offset="0" stop-color="#6ebe46"/><stop offset="1" stop-color="#4cb219"/></linearGradient><linearGradient id="b" x1="0.5" y1="0" x2="0.5" y2="1" xlink:href="#a"/></defs><g transform="translate(0.069 0.5)"><path class="a" d="M8.771,0a3,3,0,0,1,2.6,1.5l1.761,3.039a3,3,0,0,1,0,3.009l-1.761,3.039a3,3,0,0,1-2.6,1.5H5.229a3,3,0,0,1-2.6-1.5L.872,7.543a3,3,0,0,1,0-3.009L2.633,1.5A3,3,0,0,1,5.229,0Z"/><g class="b" transform="translate(3.431 1.51)"><path class="c" d="M428.531,201.872a3.358,3.358,0,0,0-3.568,3.536c0,1.768,1.332,2.843,1.994,3.536.31.324,1.163,1.538,1.574,1.538s1.264-1.214,1.574-1.538c.663-.693,1.994-1.768,1.994-3.536A3.358,3.358,0,0,0,428.531,201.872Z" transform="translate(-424.962 -201.675)"/><path class="d" d="M436.311,203.773a8.468,8.468,0,0,1-1.562,4.059c-.424.7-.491,1.344-.847,1.589a.275.275,0,0,1-.293,0c-.356-.245-.423-.89-.847-1.589a8.47,8.47,0,0,1-1.562-4.059c0-1.938,1.213-3.117,2.556-3.117S436.309,201.836,436.311,203.773Z" transform="translate(-430.187 -200.656)"/><path class="c" d="M440.713,203.773a12.413,12.413,0,0,1-.916,4.059,9.769,9.769,0,0,1-.468,1.589.176.176,0,0,1-.229,0,9.769,9.769,0,0,1-.468-1.589,12.414,12.414,0,0,1-.916-4.059c0-1.938.711-3.117,1.5-3.117S440.711,201.836,440.713,203.773Z" transform="translate(-435.646 -200.656)"/></g><g transform="translate(3.706 2.059)"><path class="a" d="M428.256,201.872a3.149,3.149,0,0,0-3.293,3.339c0,1.669,1.229,2.684,1.841,3.339.286.306,1.074,1.452,1.453,1.452s1.167-1.146,1.452-1.452c.612-.655,1.841-1.669,1.841-3.339A3.149,3.149,0,0,0,428.256,201.872Z" transform="translate(-424.962 -201.872)"/><path class="a" d="M440.482,203.534a11.459,11.459,0,0,1-.845,3.746,9.023,9.023,0,0,1-.432,1.466.162.162,0,0,1-.211,0,9.023,9.023,0,0,1-.432-1.466,11.458,11.458,0,0,1-.845-3.746c0-1.789.656-2.878,1.383-2.878S440.48,201.745,440.482,203.534Z" transform="translate(-435.805 -200.656)"/></g></g></svg>