<svg xmlns="http://www.w3.org/2000/svg" width="111.127" height="128" viewBox="0 0 111.127 128"><defs><style>.a{fill:none;stroke:#0085cd;stroke-linecap:round;stroke-linejoin:round;stroke-width:8px;}</style></defs><g transform="translate(-215.936 -118.83)"><g transform="translate(219.936 168.349)"><path class="a" d="M323.063,130.775V193.8A11.459,11.459,0,0,1,311.6,205.256h-80.21A11.463,11.463,0,0,1,219.936,193.8V130.775" transform="translate(-219.936 -130.775)"/><path class="a" d="M225.936,177.022V136.745h34.376v40.277" transform="translate(-191.56 -102.541)"/></g><path class="a" d="M219.936,134.289v28.773c0,9.3,6.973,17.646,16.266,18.133a17.192,17.192,0,0,0,18.11-17.165,17.188,17.188,0,0,0,34.376,0,17.206,17.206,0,0,0,20.591,16.861c8.164-1.564,13.785-9.184,13.785-17.5v-29.1A11.456,11.456,0,0,0,311.6,122.83h-80.21A11.459,11.459,0,0,0,219.936,134.289Z" transform="translate(0 0)"/></g></svg>