<svg xmlns="http://www.w3.org/2000/svg" width="28.386" height="26" viewBox="0 0 28.386 26"><defs><style>.a,.c{fill:none;stroke:#fff;stroke-width:2px;}.a{stroke-linecap:round;stroke-linejoin:round;}.b{opacity:0;}</style></defs><g transform="translate(0.784 -1.5)"><path class="a" d="M17.982,0a5,5,0,0,1,4.326,2.493l4.057,7a5,5,0,0,1,0,5.014l-4.057,7A5,5,0,0,1,17.982,24H9.836A5,5,0,0,1,5.51,21.507l-4.057-7a5,5,0,0,1,0-5.014l4.057-7A5,5,0,0,1,9.836,0Z" transform="translate(-0.5 2.5)"/><g class="b" transform="translate(6.318 5.5)"><path class="c" d="M432.054,201.872c-7.379,0-7.09,7.026-7.09,7.026,0,3.513,2.646,5.649,3.963,7.026.615.644,2.311,3.056,3.127,3.056s2.511-2.412,3.127-3.056c1.316-1.377,3.963-3.513,3.963-7.026C439.143,208.9,439.432,201.872,432.054,201.872Z" transform="translate(-424.962 -201.48)"/><path class="c" d="M441.357,206.85c0,3.308-2.261,6.676-3.1,8.065s-.976,2.67-1.684,3.157a.545.545,0,0,1-.582,0c-.707-.487-.841-1.768-1.684-3.157s-3.108-4.757-3.1-8.065c0-3.85,2.411-6.194,5.079-6.194S441.353,203,441.357,206.85Z" transform="translate(-429.187 -200.656)"/><path class="c" d="M443.67,206.85a24.665,24.665,0,0,1-1.82,8.065c-.494,1.388-.515,2.67-.93,3.157a.35.35,0,0,1-.455,0c-.415-.487-.436-1.768-.93-3.157a24.666,24.666,0,0,1-1.82-8.065c0-3.85,1.413-6.194,2.977-6.194S443.667,203,443.67,206.85Z" transform="translate(-433.602 -200.656)"/></g><g transform="translate(6.864 6.591)"><path class="a" d="M431.508,201.872c-6.811,0-6.544,6.634-6.544,6.634,0,3.317,2.443,5.334,3.658,6.634.568.608,2.133,2.885,2.886,2.885s2.318-2.278,2.886-2.885c1.215-1.3,3.658-3.317,3.658-6.634C438.052,208.506,438.319,201.872,431.508,201.872Z" transform="translate(-424.962 -201.872)"/><path class="a" d="M443.212,206.374a22.768,22.768,0,0,1-1.68,7.444c-.456,1.281-.475,2.464-.858,2.914a.323.323,0,0,1-.42,0c-.383-.449-.4-1.632-.858-2.914a22.768,22.768,0,0,1-1.68-7.444c0-3.554,1.3-5.718,2.748-5.718S443.209,202.82,443.212,206.374Z" transform="translate(-433.918 -200.656)"/></g></g></svg>