<svg id="tertunda" xmlns="http://www.w3.org/2000/svg" width="24" height="24" viewBox="0 0 24 24">
  <circle id="Ellipse_386" data-name="Ellipse 386" cx="10" cy="10" r="10" transform="translate(2 2)" fill="#fff"/>
  <path id="Icon_awesome-info-circle" data-name="Icon awesome-info-circle" d="M12.375.375a12,12,0,1,0,12,12A12,12,0,0,0,12.375.375Zm0,5.323A2.032,2.032,0,1,1,10.343,7.73,2.032,2.032,0,0,1,12.375,5.7Zm2.71,12.29a.581.581,0,0,1-.581.581H10.246a.581.581,0,0,1-.581-.581V16.827a.581.581,0,0,1,.581-.581h.581v-3.1h-.581a.581.581,0,0,1-.581-.581V11.407a.581.581,0,0,1,.581-.581h3.1a.581.581,0,0,1,.581.581v4.839H14.5a.581.581,0,0,1,.581.581Z" transform="translate(-0.375 -0.375)" fill="#ff931e"/>
</svg>
