<svg xmlns="http://www.w3.org/2000/svg" width="36.822" height="27.774" viewBox="0 0 36.822 27.774"><defs><style>.a{fill:#6ebe46;}</style></defs><path class="a" d="M25.889,2.621c-2.262,0-4.025,1.131-4.025,2.6s1.763,2.621,4.025,2.621a2.647,2.647,0,0,0,1.96-.6,2.423,2.423,0,0,0,.5-1.862v-.3a2.423,2.423,0,0,0-.5-1.862A2.647,2.647,0,0,0,25.889,2.621ZM20.415,5.474c-1.409.609-1.543.667-1.589.69a1.528,1.528,0,0,0-.992,1.7,1.811,1.811,0,0,0,2.21,1.154A5,5,0,0,0,21.772,8.1c.951,2.83,1.867,7.539.116,10.126a4.669,4.669,0,0,1-4.21,1.867H16.616c-1.079,0-1.8-.07-2.117-.487-.273-.36-.458-1.276.139-3.474-1.4.713-3.776,1.015-7.342,1.015a20.451,20.451,0,0,1-6.606-.76A10.8,10.8,0,0,0,0,20.089c0,5.011,15.311,5.15,17.051,5.15a34.375,34.375,0,0,0,4.4-.273,7.637,7.637,0,0,1-.087-1.2,8.246,8.246,0,0,1,8.4-8.073c.041,0,.1.023.139.023-.174-.273-.377-.574-.6-.9a33.347,33.347,0,0,1-3.155-5.527c-.081.006-.168.023-.255.023a5.7,5.7,0,0,1-5.04-2.389L20.826,6.9A3.384,3.384,0,0,1,20.415,5.474ZM2.047,11.251A2.431,2.431,0,0,0,0,13.733c0,.481-.006,1.937,7.3,1.937,7.435,0,7.435-1.456,7.435-1.937,0-1.148-.9-2.482-2.047-2.482Zm27.71,5.916a6.775,6.775,0,0,0-6.925,6.6c0,2.436,1.2,2.946,2.2,2.946a1.7,1.7,0,0,0,.9-.226A5.151,5.151,0,0,0,36.085,25.24a5.21,5.21,0,0,0-.528-2.274,1.459,1.459,0,0,0,1.264-1.612C36.822,19.6,34.363,17.167,29.758,17.167Zm3.109,5.863a2.939,2.939,0,0,1-1.937,5.156,2.947,2.947,0,0,1-2.946-2.946,2.835,2.835,0,0,1,.069-.667,11.954,11.954,0,0,1,1.682-.829A9.284,9.284,0,0,1,32.866,23.03Zm-1.937.737A1.473,1.473,0,1,0,32.4,25.24,1.475,1.475,0,0,0,30.929,23.766Zm-28.673.76a4.965,4.965,0,0,0-.046.713,5.148,5.148,0,0,0,10.126,1.316c-.737-.052-1.49-.1-2.256-.186a2.943,2.943,0,0,1-5.66-1.061A15.505,15.505,0,0,1,2.256,24.526ZM5.985,25.7a1.458,1.458,0,0,0,2.529.458C7.655,26.04,6.809,25.883,5.985,25.7Z" transform="translate(0 -2.621)"/></svg>