<svg xmlns="http://www.w3.org/2000/svg" width="26" height="26" viewBox="0 0 26 26"><defs><style>.a{fill:none;opacity:0.12;}.b{fill:#fff;}</style></defs><g transform="translate(0.317 0.317)"><circle fill="none" opacity="0.12" cx="13" cy="13" r="13" transform="translate(-0.317 -0.317)"/><path fill="#fff" d="M15.72,7.145V5.716a5.716,5.716,0,1,0-11.433,0V7.145H0V19.293a3.573,3.573,0,0,0,3.573,3.573H16.435a3.573,3.573,0,0,0,3.573-3.573V7.145ZM7.145,5.716a2.858,2.858,0,1,1,5.716,0V7.145H7.145Zm7.145,5.359A1.072,1.072,0,1,1,15.363,10,1.072,1.072,0,0,1,14.291,11.075Zm-8.575,0A1.072,1.072,0,1,1,6.788,10,1.072,1.072,0,0,1,5.716,11.075Z" transform="translate(2.896 1.372)"/></g></svg>
