<svg xmlns="http://www.w3.org/2000/svg" xmlns:xlink="http://www.w3.org/1999/xlink" width="17.5" height="20" viewBox="0 0 17.5 20"><defs><style>.a{fill:url(#a);}</style><linearGradient id="a" x1="0.5" x2="0.5" y2="1" gradientUnits="objectBoundingBox"><stop offset="0" stop-color="#6ebe46"/><stop offset="1" stop-color="#4cb219"/></linearGradient></defs><path class="a" d="M13.75,6.25V5a5,5,0,0,0-10,0V6.25H0V16.875A3.125,3.125,0,0,0,3.125,20h11.25A3.125,3.125,0,0,0,17.5,16.875V6.25ZM6.25,5a2.5,2.5,0,0,1,5,0V6.25h-5ZM12.5,9.688a.938.938,0,1,1,.938-.937A.937.937,0,0,1,12.5,9.688Zm-7.5,0a.938.938,0,1,1,.938-.937A.937.937,0,0,1,5,9.688Z"/></svg>