<svg height="469pt" viewBox="0 -64 469.196 469" width="469pt" xmlns="http://www.w3.org/2000/svg"><path d="m401.6875 200.882812c11.246094.011719 21.46875-6.523437 26.1875-16.730468 4.714844-10.207032 3.066406-22.230469-4.230469-30.785156-7.296875-8.558594-18.902343-12.09375-29.730469-9.050782 14.492188 15.660156 14.492188 39.835938 0 55.492188 2.53125.710937 5.144532 1.074218 7.773438 1.074218zm0 0"/><path d="m23.722656 258.097656-1.359375.984375c-.046875.03125-.09375.066407-.140625.097657l-22.222656 15.128906 19.609375 33.75 24.976563-11.492188c2-.921875 4.34375-.671875 6.105468.648438l1.265625.949218c5.605469 4.238282 11.710938 7.773438 18.179688 10.527344l1.445312.617188c2.027344.871094 3.414063 2.777344 3.613281 4.972656l2.492188 27.324219h39.027344l2.476562-27.320313c.199219-2.195312 1.585938-4.105468 3.613282-4.976562l1.449218-.621094c6.414063-2.582031 12.4375-6.046875 17.890625-10.296875l1.28125-1.050781c1.777344-1.453125 4.222657-1.765625 6.308594-.808594l25.050781 11.527344 19.679688-33.875-21.277344-16.214844c-1.734375-1.320312-2.613281-3.472656-2.300781-5.628906l.222656-1.542969c.152344-1.066406.289063-2.082031.421875-3.082031-.675781-1.734375-.496094-3.679688.480469-5.265625.027343-.648438.058593-1.300781.058593-1.972657-.066406-3.464843-.390624-6.917968-.964843-10.332031l-.230469-1.597656c-.316406-2.222656.636719-4.4375 2.464844-5.738281l22.636718-16.097656-20.121093-33.828126-25 11.5c-2 .921876-4.347657.671876-6.109375-.652343l-1.261719-.945313c-5.605469-4.238281-11.710937-7.773437-18.175781-10.527344l-1.453125-.621093c-2.027344-.867188-3.414063-2.777344-3.613281-4.972657l-2.484376-27.3125h-17.539062c-1.433594.582032-3.042969.582032-4.476562 0h-17.015626l-2.472656 27.320313c-.199218 2.195313-1.585937 4.105469-3.617187 4.976563l-1.453125.621093c-6.414063 2.582031-12.433594 6.050781-17.886719 10.300781l-1.28125 1.046876c-1.773437 1.453124-4.222656 1.765624-6.304687.808593l-25.054688-11.53125-19.632812 33.800781 22.664062 16.113282c1.828125 1.296875 2.777344 3.511718 2.460938 5.734375l-.226563 1.597656c-1.285156 6.8125-1.289063 13.804687-.007813 20.613281l.234376 1.636719c.3125 2.203125-.621094 4.402344-2.425782 5.707031zm74.261719-67.410156c27.5 0 49.792969 22.289062 49.792969 49.789062s-22.289063 49.789063-49.789063 49.789063-49.789062-22.289063-49.789062-49.789063c-.144531-13.25 5.054687-25.996093 14.421875-35.363281 9.371094-9.371093 22.117187-14.570312 35.363281-14.425781zm0 0"/><path d="m363.960938 200.882812c15.917968 0 28.820312-12.902343 28.820312-28.820312s-12.902344-28.820312-28.820312-28.820312c-15.914063 0-28.820313 12.90625-28.816407 28.820312-.035156 7.65625 2.992188 15.003906 8.402344 20.414062 5.414063 5.414063 12.761719 8.4375 20.414063 8.40625zm0 0"/><path d="m97.984375 278.265625c20.871094 0 37.792969-16.917969 37.792969-37.789063 0-20.871093-16.917969-37.789062-37.789063-37.789062-20.871093 0-37.789062 16.917969-37.789062 37.789062-.109375 10.054688 3.835937 19.730469 10.945312 26.839844 7.113281 7.109375 16.785157 11.058594 26.839844 10.949219zm0 0"/><path d="m437.46875.0976562h-301.765625c-17.511719.0234378-31.699219 14.2109378-31.71875 31.7226558v8.199219h365.210937v-8.199219c-.019531-17.515624-14.210937-31.707031-31.726562-31.7226558zm0 0"/><path d="m103.980469 52.019531h365.210937v30.863281h-365.210937zm0 0"/><path d="m103.984375 127.351562h16.851563c4.136718.105469 7.648437 3.054688 8.472656 7.109376.0625.273437.109375.550781.132812.828124l2.429688 26.753907c6.0625 2.722656 11.824218 6.058593 17.199218 9.960937l24.3125-11.183594c4.0625-2.324218 8.664063-.964843 11.25 3.339844l23.128907 38.898438c2.269531 3.941406 1.246093 8.953125-2.386719 11.691406-.042969.03125-.085938.0625-.132812.097656l-21.980469 15.625c.445312 3.011719.703125 6.050782.777343 9.097656h253.429688c17.511719-.019531 31.703125-14.207031 31.722656-31.71875v-112.96875h-365.207031zm259.984375 3.898438c6.566406.003906 13.039062 1.59375 18.859375 4.640625 17.175781-8.972656 38.292969-4.636719 50.539063 10.382813 12.246093 15.019531 12.246093 36.574218 0 51.59375-12.246094 15.019531-33.363282 19.355468-50.539063 10.382812-15.023437 7.832031-33.324219 5.566406-45.984375-5.691406-12.660156-11.261719-17.050781-29.171875-11.027344-45.007813 6.027344-15.835937 21.207032-26.300781 38.152344-26.300781zm0 0"/></svg>