<svg xmlns="http://www.w3.org/2000/svg" width="24.828" height="22.922" viewBox="0 0 24.828 22.922"><g transform="translate(-24.586 -228.586)"><g transform="translate(25 224)"><path d="M23,6l-9.5,9.5-5-5L1,18" fill="none" stroke="#272727" stroke-linecap="round" stroke-linejoin="round" stroke-width="2"/><path d="M17,6h6v6" fill="none" stroke="#272727" stroke-linecap="round" stroke-linejoin="round" stroke-width="2"/></g><g transform="translate(6250 -2133.967)"><ellipse cx="7" cy="3.5" rx="7" ry="3.5" transform="translate(-6216 2373.967)" fill="none" stroke="#272727" stroke-linecap="round" stroke-linejoin="round" stroke-width="2"/><path d="M6.983,5.237C3.133,5.237,0,3.671,0,1.746A2.352,2.352,0,0,1,.934,0,9.74,9.74,0,0,0,6.983,1.746,9.741,9.741,0,0,0,13.032,0a2.352,2.352,0,0,1,.934,1.746C13.966,3.671,10.834,5.237,6.983,5.237Z" transform="translate(-6216 2379.237)" fill="none" stroke="#272727" stroke-linecap="round" stroke-linejoin="round" stroke-width="2"/></g></g></svg>