<svg xmlns="http://www.w3.org/2000/svg" width="27.414" height="20.922" viewBox="0 0 27.414 20.922"><g transform="translate(-21.586 -229.586)"><g transform="translate(23 231)"><path d="M1,18l9.5-9.5,5,5L23,6" transform="translate(-1 -6)" fill="none" stroke="#272727" stroke-linecap="round" stroke-linejoin="round" stroke-width="2"/><path d="M23,12H17V6" transform="translate(-17)" fill="none" stroke="#272727" stroke-linecap="round" stroke-linejoin="round" stroke-width="2"/></g><g transform="translate(6250 -2134.967)"><ellipse cx="7" cy="3.5" rx="7" ry="3.5" transform="translate(-6216 2373.967)" fill="none" stroke="#272727" stroke-linecap="round" stroke-linejoin="round" stroke-width="2"/><path d="M6.983,5.237C3.133,5.237,0,3.671,0,1.746A2.352,2.352,0,0,1,.934,0,9.74,9.74,0,0,0,6.983,1.746,9.741,9.741,0,0,0,13.032,0a2.352,2.352,0,0,1,.934,1.746C13.966,3.671,10.834,5.237,6.983,5.237Z" transform="translate(-6216 2379.237)" fill="none" stroke="#272727" stroke-linecap="round" stroke-linejoin="round" stroke-width="2"/></g></g></svg>