<svg xmlns="http://www.w3.org/2000/svg" xmlns:xlink="http://www.w3.org/1999/xlink" width="64" height="55.216" viewBox="0 0 64 55.216"><defs><style>.a{fill:#e4f8ff;}.b{fill:url(#a);}.c{fill:#6fcfee;}.d{fill:url(#b);}</style><linearGradient id="a" y1="0.5" x2="1" y2="0.5" gradientUnits="objectBoundingBox"><stop offset="0" stop-color="#6fcfee"/><stop offset="1" stop-color="#1685c7"/></linearGradient><linearGradient id="b" y1="0.5" x2="1" y2="0.5" gradientUnits="objectBoundingBox"><stop offset="0" stop-color="#ddf2fa"/><stop offset="1" stop-color="#6fcfee"/></linearGradient></defs><path class="a" d="M42.237,0a10,10,0,0,1,8.652,4.986l10.2,17.608a10,10,0,0,1,0,10.028L50.889,50.23a10,10,0,0,1-8.652,4.986H21.763a10,10,0,0,1-8.652-4.986L2.906,32.622a10,10,0,0,1,0-10.028l10.2-17.608A10,10,0,0,1,21.763,0Z"/><g transform="translate(14.5 6.5)"><path class="b" d="M474.445,145.537c-18.553,0-17.825,17.665-17.825,17.665,0,8.833,6.653,14.2,9.964,17.665,1.547,1.618,5.811,7.683,7.862,7.683s6.314-6.065,7.862-7.683c3.31-3.463,9.964-8.833,9.964-17.665C492.27,163.2,493,145.537,474.445,145.537Z" transform="translate(-456.616 -144.551)"/><path class="c" d="M496.872,158.242c.01,8.318-5.686,16.785-7.805,20.277s-2.455,6.713-4.234,7.937a1.373,1.373,0,0,1-1.464,0c-1.779-1.224-2.114-4.446-4.234-7.937s-7.815-11.96-7.805-20.277c.012-9.68,6.062-15.574,12.77-15.574S496.861,148.562,496.872,158.242Z" transform="translate(-466.273 -142.668)"/><path class="d" d="M501.677,158.242c.006,8.318-3.333,16.785-4.575,20.277s-1.3,6.713-2.338,7.937a.881.881,0,0,1-1.145,0c-1.043-1.224-1.1-4.446-2.338-7.937s-4.58-11.959-4.575-20.277c.007-9.68,3.553-15.574,7.484-15.574S501.67,148.562,501.677,158.242Z" transform="translate(-476.363 -142.668)"/></g></svg>