<svg xmlns="http://www.w3.org/2000/svg" width="28.571" height="28.571" viewBox="0 0 28.571 28.571"><defs><style>.a{fill:#fff;}</style></defs><path class="a" d="M5.051,6.513A.7.7,0,0,1,5.763,5.8H9.719V3h-3.9A3.544,3.544,0,0,0,2.25,6.513v3.956h2.8Z" transform="translate(-2.25 -3)"/><path class="a" d="M19.694,3H15.75V5.8h3.921a.726.726,0,0,1,.747.712v3.956h2.8V6.513A3.507,3.507,0,0,0,19.694,3Z" transform="translate(5.353 -3)"/><path class="a" d="M20.418,18.9a.7.7,0,0,1-.712.712H15.75v2.859h3.956A3.544,3.544,0,0,0,23.219,18.9V15h-2.8Z" transform="translate(5.353 6.103)"/><path class="a" d="M5.763,19.61a.7.7,0,0,1-.712-.712V15H2.25v3.9a3.594,3.594,0,0,0,3.571,3.571h3.9V19.61Z" transform="translate(-2.25 6.103)"/><g transform="translate(6.428 6.429)"><rect class="a" width="6.429" height="6.429" rx="1"/><rect class="a" width="6.429" height="6.429" rx="1" transform="translate(0 9.286)"/><rect class="a" width="6.429" height="6.429" rx="1" transform="translate(9.286)"/></g></svg>