<svg xmlns="http://www.w3.org/2000/svg" width="18.636" height="25.993" viewBox="0 0 18.636 25.993"><defs><style>.a{fill:none;stroke:#272727;stroke-linecap:round;stroke-linejoin:round;stroke-width:2px;}</style></defs><g transform="translate(1.136 1)"><rect class="a" width="16" height="10.4" rx="2" transform="translate(0.5)"/><path class="a" d="M15.726,8.425v3.37a1.4,1.4,0,0,1-.037.322L14.565,16.89A1.4,1.4,0,0,1,13.2,17.972H5.9a1.4,1.4,0,0,1-1.136-.578L.269,11.216A1.4,1.4,0,1,1,2.54,9.565l1.111,1.528V1.4a1.4,1.4,0,1,1,2.808,0V8.425H6.74v-1.4a1.4,1.4,0,0,1,2.808,0v1.4h.281V7.582a1.4,1.4,0,1,1,2.808,0v.842h.281a1.4,1.4,0,1,1,2.808,0Z" transform="translate(0 6.021)"/></g></svg>