<svg width="56" height="56" viewBox="0 0 56 56" fill="none" xmlns="http://www.w3.org/2000/svg">
<rect width="56" height="56" rx="28" fill="#3ABBDD"/>
<path d="M40.667 29.3334H40.0003V26.6667C40.0003 25.9305 39.4032 25.3334 38.667 25.3334H36.667L32.1345 19.6676C31.8846 19.3553 31.5677 19.1033 31.2072 18.93C30.8467 18.7568 30.4519 18.6668 30.052 18.6667H25.3337C24.5974 18.6667 24.0003 19.2638 24.0003 20.0001V25.3334H17.3337C16.5974 25.3334 16.0003 25.9305 16.0003 26.6667V29.3334H15.3337C14.9653 29.3334 14.667 29.6317 14.667 30.0001V31.3334C14.667 31.7017 14.9653 32.0001 15.3337 32.0001H17.4007C17.3691 32.2197 17.3337 32.4384 17.3337 32.6667C17.3337 35.2442 19.4228 37.3334 22.0003 37.3334C24.5778 37.3334 26.667 35.2442 26.667 32.6667C26.667 32.4384 26.6316 32.2197 26.5999 32.0001H29.4012C29.3695 32.2197 29.3341 32.4384 29.3341 32.6667C29.3341 35.2442 31.4232 37.3334 34.0007 37.3334C36.5782 37.3334 38.6674 35.2442 38.6674 32.6667C38.6674 32.4384 38.632 32.2197 38.6003 32.0001H40.667C41.0353 32.0001 41.3337 31.7017 41.3337 31.3334V30.0001C41.3337 29.6317 41.0353 29.3334 40.667 29.3334ZM26.667 21.3334H30.052L33.252 25.3334H26.667V21.3334ZM22.0003 34.6667C20.8974 34.6667 20.0003 33.7697 20.0003 32.6667C20.0003 31.5638 20.8974 30.6667 22.0003 30.6667C23.1032 30.6667 24.0003 31.5638 24.0003 32.6667C24.0003 33.7697 23.1032 34.6667 22.0003 34.6667ZM34.0003 34.6667C32.8974 34.6667 32.0003 33.7697 32.0003 32.6667C32.0003 31.5638 32.8974 30.6667 34.0003 30.6667C35.1032 30.6667 36.0003 31.5638 36.0003 32.6667C36.0003 33.7697 35.1032 34.6667 34.0003 34.6667Z" fill="white"/>
</svg>
