<svg width="56" height="56" viewBox="0 0 56 56" fill="none" xmlns="http://www.w3.org/2000/svg">
<rect width="56" height="56" rx="28" fill="#7EBF5D"/>
<path d="M27.9995 33.3338H19.9987V26.6665H17.3318V37.3342C17.3318 38.0717 17.9277 38.6676 18.6652 38.6676H29.3329C30.0705 38.6676 30.6664 38.0717 30.6664 37.3342V26.6665H27.9995V33.3338ZM41.109 23.2578L37.5545 17.924C37.3045 17.5531 36.8878 17.3323 36.4419 17.3323H19.557C19.1111 17.3323 18.6944 17.5531 18.4486 17.924L14.894 23.2578C14.3023 24.1454 14.9357 25.333 16.0025 25.333H40.0006C41.0632 25.333 41.6966 24.1454 41.109 23.2578ZM36.0002 38.0009C36.0002 38.3676 36.3002 38.6676 36.6669 38.6676H38.0004C38.3671 38.6676 38.6671 38.3676 38.6671 38.0009V26.6665H36.0002V38.0009Z" fill="white"/>
</svg>
