<svg width="56" height="56" viewBox="0 0 56 56" fill="none" xmlns="http://www.w3.org/2000/svg">
<rect width="56" height="56" rx="28" fill="#EE4D2D"/>
<path d="M40.7278 22.0513L37.9179 17.5659C37.6668 17.1633 37.2209 16.9165 36.7446 16.9165H19.2534C18.7771 16.9165 18.3312 17.1633 18.0801 17.5659L15.2702 22.0513C13.8198 24.3676 15.1057 27.5888 17.816 27.9568C18.0108 27.9828 18.2099 27.9957 18.4091 27.9957C19.6906 27.9957 20.825 27.4329 21.6043 26.5627C22.3836 27.4329 23.5223 27.9957 24.7995 27.9957C26.081 27.9957 27.2153 27.4329 27.9947 26.5627C28.774 27.4329 29.9126 27.9957 31.1898 27.9957C32.4714 27.9957 33.6057 27.4329 34.385 26.5627C35.1687 27.4329 36.303 27.9957 37.5802 27.9957C37.7837 27.9957 37.9785 27.9828 38.1734 27.9568C40.8923 27.5931 42.1825 24.3719 40.7278 22.0513ZM37.5889 29.3855C37.1559 29.3855 36.7273 29.3206 36.3117 29.221V33.5419H19.6863V29.221C19.2707 29.3163 18.8421 29.3855 18.4091 29.3855C18.1493 29.3855 17.8852 29.3682 17.6298 29.3336C17.3873 29.2989 17.1492 29.2427 16.9197 29.1777V37.6982C16.9197 38.4645 17.5389 39.0837 18.3052 39.0837H37.7014C38.4678 39.0837 39.0869 38.4645 39.0869 37.6982V29.1777C38.8531 29.247 38.6193 29.3033 38.3769 29.3336C38.1128 29.3682 37.853 29.3855 37.5889 29.3855Z" fill="white"/>
</svg>
