<svg xmlns="http://www.w3.org/2000/svg" width="18" height="20.5" viewBox="0 0 18 20.5"><defs><style>.a{fill:none;stroke:#272727;stroke-linecap:round;stroke-linejoin:round;stroke-width:2px;}</style></defs><g transform="translate(-1939 -669.5)"><path class="a" d="M11.355,5H4.645a3.5,3.5,0,1,1,6.71,0Z" transform="translate(1940 670)"/><path class="a" d="M0,0H16a0,0,0,0,1,0,0V10a4,4,0,0,1-4,4H4a4,4,0,0,1-4-4V0A0,0,0,0,1,0,0Z" transform="translate(1940 675)"/><circle class="a" cx="0.5" cy="0.5" r="0.5" transform="translate(1944 678)"/><circle class="a" cx="0.5" cy="0.5" r="0.5" transform="translate(1951 678)"/></g></svg>