<svg xmlns="http://www.w3.org/2000/svg" width="21.036" height="21.01" viewBox="0 0 21.036 21.01"><defs><style>.a{fill:none;stroke:#fff;stroke-linecap:round;stroke-linejoin:round;stroke-width:2px;}</style></defs><g transform="translate(2.783 2.01)"><g transform="translate(0 9.767)"><path class="a" d="M235.405,130.775v6.966c0,.7-.769,1.267-1.719,1.267H221.655c-.949,0-1.719-.567-1.719-1.267v-6.966" transform="translate(-219.936 -130.775)"/></g><path class="a" d="M220.936,124.945l-1,5.311a3.294,3.294,0,0,0,3,3.347,3.173,3.173,0,0,0,3.343-3.168,3.173,3.173,0,1,0,6.345,0,3.176,3.176,0,0,0,3.8,3.112,3.249,3.249,0,0,0,2.544-3.23l-1-5.372a2.115,2.115,0,0,0-2.115-2.115H223.051A2.115,2.115,0,0,0,220.936,124.945Z" transform="translate(-221.719 -123.84)"/></g></svg>