<svg xmlns="http://www.w3.org/2000/svg" width="214" height="214" viewBox="0 0 214 214"><defs><style>.a,.b,.c,.e{fill:none;}.a,.b,.c{stroke:#6ebe46;stroke-width:7px;}.b{stroke-linecap:round;stroke-linejoin:round;}.c{opacity:0;}.d{stroke:none;}</style></defs><g transform="translate(7 7)"><g class="a"><circle class="d" cx="100" cy="100" r="100"/><circle class="e" cx="100" cy="100" r="103.5"/></g><g transform="translate(57 49.985)"><g transform="translate(0 37.933)"><path class="b" d="M305.875,130.775v52.518a9.549,9.549,0,0,1-9.549,9.549H229.485a9.552,9.552,0,0,1-9.549-9.549V130.775" transform="translate(-219.936 -130.775)"/><path class="b" d="M225.936,170.309V136.745h28.646v33.564" transform="translate(-197.29 -108.242)"/></g><path class="b" d="M219.936,132.379v23.977c0,7.754,5.81,14.705,13.555,15.111a14.326,14.326,0,0,0,15.092-14.3,14.323,14.323,0,1,0,28.646,0,14.338,14.338,0,0,0,17.159,14.051c6.8-1.3,11.487-7.653,11.487-14.581V132.379a9.546,9.546,0,0,0-9.549-9.549H229.485A9.549,9.549,0,0,0,219.936,132.379Z" transform="translate(-219.936 -122.83)"/></g><g class="c" transform="translate(21 21)"><circle class="d" cx="79" cy="79" r="79"/><circle class="e" cx="79" cy="79" r="82.5"/></g></g></svg>