<svg xmlns="http://www.w3.org/2000/svg" width="18.064" height="18.317" viewBox="0 0 18.064 18.317"><defs><style>.a{fill:none;stroke:#272727;stroke-width:2px;}</style></defs><g transform="translate(1.016 1.014)"><path class="a" d="M4.631,16.3,3.578,12.369l-2.382-.1c-1.219-.076-1.644-2.1-.618-2.943L11.127.608A4.273,4.273,0,0,1,12.1.037c1.07-.38,2.913,2.228,3.592,5.549.552,2.7.345,5.232-.424,6.409a1.4,1.4,0,0,1-1.1.753c-.2.041-3.893-.1-7.288-.24L7.814,16.3Z"/><path class="a" d="M1.484,0C2.19-.052,2.678,1.35,2.572,3.133S1.809,6.406,1.1,6.46-.091,5.112.014,3.328.778.055,1.484,0Z" transform="matrix(0.966, -0.259, 0.259, 0.966, 9.928, 4.097)"/></g></svg>