<svg xmlns="http://www.w3.org/2000/svg" width="23.885" height="24" viewBox="0 0 23.885 24"><defs><style>.a{fill:#fff;}</style></defs><path class="a" d="M1.687,17.837a11.893,11.893,0,1,1,10.305,5.956h0A11.882,11.882,0,0,1,6.3,22.346L0,24Zm5.27,2.57a9.871,9.871,0,0,0,5.031,1.378h0a9.885,9.885,0,1,0-8.374-4.632l.235.374-1,3.648L6.6,20.193Zm6.976-2.97a17.076,17.076,0,0,1-1.694-.626,13.247,13.247,0,0,1-5.076-4.487A5.78,5.78,0,0,1,5.95,9.251,3.333,3.333,0,0,1,6.99,6.772,1.092,1.092,0,0,1,7.782,6.4c.2,0,.4,0,.57.01h.067c.173,0,.389,0,.6.509.248.6.842,2.058.916,2.207a.547.547,0,0,1,.025.521,2.031,2.031,0,0,1-.3.5c-.149.173-.312.387-.446.521-.149.148-.3.309-.13.606a8.954,8.954,0,0,0,1.653,2.059,8.117,8.117,0,0,0,2.39,1.475c.3.149.47.124.644-.074s.743-.868.941-1.165.4-.248.669-.149,1.733.818,2.031.967.5.223.569.347a2.485,2.485,0,0,1-.173,1.413A3.06,3.06,0,0,1,15.8,17.555a4.859,4.859,0,0,1-.721.057A3.77,3.77,0,0,1,13.933,17.437Z"/></svg>