<svg xmlns="http://www.w3.org/2000/svg" xmlns:xlink="http://www.w3.org/1999/xlink" width="343.468" height="200" viewBox="0 0 343.468 200"><defs><style>.a{fill:url(#a);}.b,.c,.e,.j{fill:#fff;}.d{fill:none;stroke-linecap:round;stroke-linejoin:round;}.f{fill:url(#b);}.g{fill:#6fcfee;}.h{fill:url(#c);}.i,.j{stroke:none;}</style><linearGradient id="a" x1="0.5" x2="0.5" y2="1" gradientUnits="objectBoundingBox"><stop offset="0" stop-color="#67d0ff"/><stop offset="1" stop-color="#40c4ff"/></linearGradient><linearGradient id="b" y1="0.5" x2="1" y2="0.5" gradientUnits="objectBoundingBox"><stop offset="0" stop-color="#6fcfee"/><stop offset="1" stop-color="#1685c7"/></linearGradient><linearGradient id="c" y1="0.5" x2="1" y2="0.5" gradientUnits="objectBoundingBox"><stop offset="0" stop-color="#ddf2fa"/><stop offset="1" stop-color="#6fcfee"/></linearGradient></defs><path class="a" d="M288.15,200H50.218A24,24,0,0,1,27.53,183.827l-26.218-76a24,24,0,0,1,0-15.653l26.218-76A24,24,0,0,1,50.218,0H293.25a24,24,0,0,1,22.688,16.173l26.218,76a24,24,0,0,1,0,15.654l-26.218,76A24,24,0,0,1,293.251,200Z"/></svg>