<svg xmlns="http://www.w3.org/2000/svg" xmlns:xlink="http://www.w3.org/1999/xlink" width="1056.994" height="200" viewBox="0 0 1056.994 200"><defs><style>.a{fill:url(#a);}.b,.c,.e,.j{fill:#fff;}.d{fill:none;stroke-linecap:round;stroke-linejoin:round;}.f{fill:url(#b);}.g{fill:#6fcfee;}.h{fill:url(#c);}.i,.j{stroke:none;}</style><linearGradient id="a" x1="0.5" x2="0.5" y2="1" gradientUnits="objectBoundingBox"><stop offset="0" stop-color="#67d0ff"/><stop offset="1" stop-color="#40c4ff"/></linearGradient><linearGradient id="b" y1="0.5" x2="1" y2="0.5" gradientUnits="objectBoundingBox"><stop offset="0" stop-color="#6fcfee"/><stop offset="1" stop-color="#1685c7"/></linearGradient><linearGradient id="c" y1="0.5" x2="1" y2="0.5" gradientUnits="objectBoundingBox"><stop offset="0" stop-color="#ddf2fa"/><stop offset="1" stop-color="#6fcfee"/></linearGradient></defs><g transform="translate(-561 -540)"><path class="a" d="M-928.372,200h-955.369a24,24,0,0,1-22.716-16.257l-25.906-76a24.006,24.006,0,0,1,0-15.487l25.906-76A24,24,0,0,1-1883.741,0H-926.56a24,24,0,0,1,22.717,16.257l25.906,76a24,24,0,0,1,0,15.487l-25.906,76A24,24,0,0,1-926.56,200Z" transform="translate(2494.647 540)"/></g></svg>