<svg xmlns="http://www.w3.org/2000/svg" width="322.801" height="493.936" viewBox="0 0 322.801 493.936"><defs><style>.a{fill:#fff;}.b{fill:none;stroke:#419de4;stroke-linecap:round;stroke-linejoin:round;stroke-width:10px;}.c{fill:#a1f176;}</style></defs><g transform="translate(-1218.181 0.144)"><g transform="translate(5.031 -0.177)"><g transform="translate(1219.794 6.678)"><path class="a" d="M72.747,36.374A36.374,36.374,0,1,1,36.374,0,36.374,36.374,0,0,1,72.747,36.374ZM32.166,55.633,59.153,28.646a2.347,2.347,0,0,0,0-3.319l-3.319-3.319a2.347,2.347,0,0,0-3.319,0L30.507,44.018,20.232,33.742a2.347,2.347,0,0,0-3.319,0l-3.319,3.319a2.347,2.347,0,0,0,0,3.319L28.848,55.633A2.347,2.347,0,0,0,32.166,55.633Z" transform="translate(173.104 61.469) rotate(-25)"/><g transform="translate(0 121.732) rotate(-25)"><rect class="b" width="288.044" height="114.656" rx="57.328" transform="translate(0 0)"/></g></g></g><g transform="translate(5.031 92.823)"><g transform="translate(1219.794 39.678)"><path class="a" d="M72.747,36.374A36.374,36.374,0,1,1,36.374,0,36.374,36.374,0,0,1,72.747,36.374ZM32.166,55.633,59.153,28.646a2.347,2.347,0,0,0,0-3.319l-3.319-3.319a2.347,2.347,0,0,0-3.319,0L30.507,44.018,20.232,33.742a2.347,2.347,0,0,0-3.319,0l-3.319,3.319a2.347,2.347,0,0,0,0,3.319L28.848,55.633A2.347,2.347,0,0,0,32.166,55.633Z" transform="translate(173.104 61.469) rotate(-25)"/><g transform="translate(0 121.732) rotate(-25)"><rect class="b" width="288.044" height="114.656" rx="57.328" transform="translate(0 0)"/></g></g></g><g transform="translate(5.031 221.823)"><g transform="translate(1219.794 39.678)"><path class="c" d="M72.747,36.374A36.374,36.374,0,1,1,36.374,0,36.374,36.374,0,0,1,72.747,36.374ZM32.166,55.633,59.153,28.646a2.347,2.347,0,0,0,0-3.319l-3.319-3.319a2.347,2.347,0,0,0-3.319,0L30.507,44.018,20.232,33.742a2.347,2.347,0,0,0-3.319,0l-3.319,3.319a2.347,2.347,0,0,0,0,3.319L28.848,55.633A2.347,2.347,0,0,0,32.166,55.633Z" transform="translate(173.104 61.469) rotate(-25)"/><g transform="translate(0 121.732) rotate(-25)"><rect class="b" width="288.044" height="114.656" rx="57.328" transform="translate(0 0)"/></g></g></g></g></svg>