<svg xmlns="http://www.w3.org/2000/svg" xmlns:xlink="http://www.w3.org/1999/xlink" width="434.982" height="472" viewBox="0 0 434.982 472"><defs><style>.a{fill:url(#a);}.b{fill:url(#d);}.c{fill:#fff;}.d{fill:none;stroke:#2bacf2;stroke-linecap:round;stroke-linejoin:round;stroke-width:10px;}.e{filter:url(#e);}.f{filter:url(#b);}</style><linearGradient id="a" x1="0.5" x2="0.5" y2="1" gradientUnits="objectBoundingBox"><stop offset="0" stop-color="#4abfff"/><stop offset="1" stop-color="#aee2ff"/></linearGradient><filter id="b" x="0" y="0" width="262.001" height="472" filterUnits="userSpaceOnUse"><feOffset dx="-3" dy="3" input="SourceAlpha"/><feGaussianBlur stdDeviation="3" result="c"/><feFlood flood-opacity="0.078"/><feComposite operator="in" in2="c"/><feComposite in="SourceGraphic"/></filter><linearGradient id="d" x1="0.865" y1="0.328" x2="-0.292" y2="0.906" gradientUnits="objectBoundingBox"><stop offset="0" stop-color="#35b2f6"/><stop offset="1" stop-color="#0998e5"/></linearGradient><filter id="e" x="227" y="117" width="164" height="355" filterUnits="userSpaceOnUse"><feOffset dx="-3" dy="3" input="SourceAlpha"/><feGaussianBlur stdDeviation="3" result="f"/><feFlood flood-opacity="0.078"/><feComposite operator="in" in2="f"/><feComposite in="SourceGraphic"/></filter></defs><g transform="translate(-1219 -75)"><g transform="translate(748 -316)"><g class="f" transform="matrix(1, 0, 0, 1, 471, 391)"><path class="a" d="M4197-1857v-366a88,88,0,0,1,88-88,44,44,0,0,1,44,44v410Zm-104.534,0a7.467,7.467,0,0,1-7.467-7.467v-267.866A74.667,74.667,0,0,1,4159.666-2207,37.334,37.334,0,0,1,4197-2169.667V-1857Z" transform="translate(-4073 2317)"/></g><g class="e" transform="matrix(1, 0, 0, 1, 471, 391)"><path class="b" d="M48.667,0h0A97.333,97.333,0,0,1,146,97.333V327.267A9.733,9.733,0,0,1,136.267,337H0a0,0,0,0,1,0,0V48.667A48.667,48.667,0,0,1,48.667,0Z" transform="translate(239 123)"/></g></g><g transform="translate(118.031 56.823)"><g transform="translate(1219.794 39.678)"><path class="c" d="M72.747,36.374A36.374,36.374,0,1,1,36.374,0,36.374,36.374,0,0,1,72.747,36.374ZM32.166,55.633,59.153,28.646a2.347,2.347,0,0,0,0-3.319l-3.319-3.319a2.347,2.347,0,0,0-3.319,0L30.507,44.018,20.232,33.742a2.347,2.347,0,0,0-3.319,0l-3.319,3.319a2.347,2.347,0,0,0,0,3.319L28.848,55.633A2.347,2.347,0,0,0,32.166,55.633Z" transform="translate(173.104 61.469) rotate(-25)"/><g transform="translate(0 121.732) rotate(-25)"><rect class="d" width="288.044" height="114.656" rx="57.328" transform="translate(0 0)"/></g></g></g><g transform="translate(748 -219)"><rect class="c" width="78" height="40" rx="5" transform="translate(568 558)"/><rect class="c" width="78" height="40" rx="5" transform="translate(568 610)"/><rect class="c" width="78" height="40" rx="5" transform="translate(568 662)"/><rect class="c" width="78" height="40" rx="5" transform="translate(661 558)"/><rect class="c" width="78" height="40" rx="5" transform="translate(661 610)"/><rect class="c" width="78" height="40" rx="5" transform="translate(661 662)"/></g></g></svg>