<svg xmlns="http://www.w3.org/2000/svg" xmlns:xlink="http://www.w3.org/1999/xlink" width="311" height="129" viewBox="0 0 311 129"><defs><style>.a,.c,.h{fill:none;}.b,.g{fill:url(#a);}.c{stroke:#fff;}.c,.e,.g,.h{stroke-linecap:round;stroke-linejoin:round;}.c,.g,.h{stroke-width:3px;}.d{fill:#f44336;}.e{fill:#fff;stroke:#f5f5f5;}.f{fill:#0085cd;}.g,.h{stroke:#40c4ff;}.i{filter:url(#b);}</style><linearGradient id="a" x1="0.5" x2="0.5" y2="1" gradientUnits="objectBoundingBox"><stop offset="0" stop-color="#6fcfee"/><stop offset="1" stop-color="#40c4ff"/></linearGradient><filter id="b" x="102" y="36.5" width="174.5" height="63" filterUnits="userSpaceOnUse"><feOffset dy="3" input="SourceAlpha"/><feGaussianBlur stdDeviation="3" result="c"/><feFlood flood-opacity="0.122"/><feComposite operator="in" in2="c"/><feComposite in="SourceGraphic"/></filter></defs><rect class="a" width="311" height="129" rx="16"/><g transform="translate(44 21)"><rect class="b" width="54" height="88" rx="5"/><g transform="translate(15 34)"><path class="c" d="M5.415,6H24.734a2.422,2.422,0,0,1,2.415,2.415V22.9a2.422,2.422,0,0,1-2.415,2.415H5.415A2.422,2.422,0,0,1,3,22.9V8.415A2.422,2.422,0,0,1,5.415,6Z" transform="translate(-3 -6)"/><path class="c" d="M27.149,9,15.075,17.452,3,9" transform="translate(-3 -6.585)"/></g><circle class="d" cx="4.025" cy="4.025" r="4.025" transform="translate(35.84 28.333)"/><g transform="translate(67.5 22)"><g class="i" transform="matrix(1, 0, 0, 1, -111.5, -43)"><path class="e" d="M18.5,44a7,7,0,0,1-7-7V25.168L0,17.5,11.5,9.833V7a7,7,0,0,1,7-7h130a7,7,0,0,1,7,7V37a7,7,0,0,1-7,7Z" transform="translate(111.5 43)"/></g><rect class="f" width="128" height="8" rx="4" transform="translate(20.5 18)"/><path class="b" d="M41.16,22.05v8.82a3.673,3.673,0,0,1-.1.842l-2.94,12.495a3.675,3.675,0,0,1-3.577,2.833H15.435a3.675,3.675,0,0,1-2.972-1.513L.7,29.356a3.675,3.675,0,1,1,5.944-4.323l2.908,4V3.675a3.675,3.675,0,0,1,7.35,0V22.05h.735V18.375a3.675,3.675,0,0,1,7.35,0V22.05h.735v-2.2a3.675,3.675,0,1,1,7.35,0v2.2h.735a3.675,3.675,0,1,1,7.35,0Z" transform="translate(114 14)"/></g><g transform="translate(94.051 0.833)"><path class="g" d="M6.916,16.5H23.832a2.416,2.416,0,0,1,2.416,2.416v8.458a2.416,2.416,0,0,1-2.416,2.416H6.916A2.416,2.416,0,0,1,4.5,27.374V18.916A2.416,2.416,0,0,1,6.916,16.5Z" transform="translate(-4.5 -5.62)"/><path class="h" d="M10.5,13.872V9.04A6.041,6.041,0,0,1,22.461,7.831" transform="translate(-5.667 -2.992)"/></g></g></svg>