<svg xmlns="http://www.w3.org/2000/svg" xmlns:xlink="http://www.w3.org/1999/xlink" width="1062" height="206" viewBox="0 0 1062 206"><defs><style>.a,.d{fill:none;}.b{fill:url(#a);}.c{clip-path:url(#d);}.d{stroke:#272727;stroke-linecap:round;stroke-linejoin:round;stroke-width:2px;}.e{fill:#fff18f;}.f{fill:#ffe45b;}.g,.h{fill:#272727;font-size:24px;}.g{font-family:Rubik-Bold, Rubik;font-weight:700;}.h{font-family:Rubik-Regular, Rubik;}.i{filter:url(#b);}</style><linearGradient id="a" x1="0.434" y1="-0.031" x2="0.584" y2="0.937" gradientUnits="objectBoundingBox"><stop offset="0" stop-color="#fff"/><stop offset="1" stop-color="#fff8c8"/></linearGradient><filter id="b" x="0" y="0" width="1062" height="206" filterUnits="userSpaceOnUse"><feOffset dy="2" input="SourceAlpha"/><feGaussianBlur stdDeviation="1" result="c"/><feFlood flood-opacity="0.122"/><feComposite operator="in" in2="c"/><feComposite in="SourceGraphic"/></filter><clipPath id="d"><rect class="a" width="40" height="40"/></clipPath></defs><g transform="translate(3 1)"><g class="i" transform="matrix(1, 0, 0, 1, -3, -1)"><rect class="b" width="1056" height="200" rx="2" transform="translate(3 1)"/></g><g class="c" transform="translate(1016)"><g transform="translate(14 14)"><line class="d" x1="12" y2="12"/><line class="d" x2="12" y2="12"/></g><circle class="a" cx="20" cy="20" r="20"/></g><g transform="translate(584 80)"><path class="e" d="M0,100a100,100,0,0,1,200,0Z" transform="translate(0 20)"/><path class="f" d="M0,120a120,120,0,1,1,240,0Z" transform="translate(192)"/></g><g transform="translate(24 55)"><text class="g"><tspan x="0" y="22">Sediakan jam kerja tokomu!</tspan></text><text class="h" transform="translate(0 36)"><tspan x="0" y="22">Sekarang, pelanggan setiamu akan lebih mudah </tspan><tspan x="0" y="49">mengatur waktu kunjung</tspan></text></g></g></svg>