<svg xmlns="http://www.w3.org/2000/svg" width="450.169" height="134.416" viewBox="0 0 450.169 134.416"><defs><style>.a{fill:#fff;}</style></defs><path class="a" d="M409.9,47.444V44.078a8.941,8.941,0,0,0-14.482-7.013,17.871,17.871,0,0,0-34.153-4.418A17.869,17.869,0,1,0,351.241,65.3H409.9a8.941,8.941,0,0,0,0-17.871Z" transform="translate(31.647 -13.617)"/><path class="a" d="M80.1,132.812v-3.278a8.711,8.711,0,0,1,8.722-8.711A8.621,8.621,0,0,1,94.21,122.7a17.432,17.432,0,0,1,33.293-4.31,17.421,17.421,0,1,1,9.788,31.845H80.1a8.711,8.711,0,1,1,0-17.421Z" transform="translate(10.556 -15.818)"/><path class="a" d="M6.414,44.572V42.236a6.2,6.2,0,0,1,10.04-4.866,12.4,12.4,0,0,1,23.7-3.066,12.4,12.4,0,1,1,6.966,22.652H6.414a6.2,6.2,0,1,1,0-12.4Z" transform="translate(0.014 -26.729)"/></svg>