<svg xmlns="http://www.w3.org/2000/svg" xmlns:xlink="http://www.w3.org/1999/xlink" width="361.03" height="227.5" viewBox="0 0 361.03 227.5"><defs><style>.a,.f{stroke:rgba(0,0,0,0);stroke-miterlimit:10;}.a{fill:url(#a);}.b{opacity:0;}.c{fill:url(#b);}.d{fill:url(#c);}.e{fill:#6fcfee;}.f{fill:url(#f);}.g{fill:#fff;}.h{fill:url(#k);}.i{fill:#323e2a;}.j{fill:#eaeaea;}.k{filter:url(#l);}.l{filter:url(#i);}.m{filter:url(#g);}.n{filter:url(#d);}</style><linearGradient id="a" x1="0.5" y1="-0.334" x2="0.5" y2="1" gradientUnits="objectBoundingBox"><stop offset="0" stop-color="#6fcfee"/><stop offset="1" stop-color="#fff"/></linearGradient><linearGradient id="b" x1="0.464" y1="0.223" x2="0.589" y2="0.612" gradientUnits="objectBoundingBox"><stop offset="0" stop-color="#fff"/><stop offset="0.718" stop-color="#f6f6f6"/><stop offset="1" stop-color="#f2f3f3"/><stop offset="1" stop-color="#f1f2f2"/></linearGradient><linearGradient id="c" x1="0.399" y1="0.468" x2="0.531" y2="0.863" gradientUnits="objectBoundingBox"><stop offset="0" stop-color="#fff"/><stop offset="0.573" stop-color="#e8f6fb"/><stop offset="1" stop-color="#ddf2fa"/></linearGradient><filter id="d" x="20.53" y="63.5" width="134.72" height="116.771" filterUnits="userSpaceOnUse"><feOffset dx="3" dy="3" input="SourceAlpha"/><feGaussianBlur stdDeviation="3" result="e"/><feFlood flood-opacity="0.02"/><feComposite operator="in" in2="e"/><feComposite in="SourceGraphic"/></filter><linearGradient id="f" x1="0.604" y1="0.301" x2="0.87" y2="0.546" gradientUnits="objectBoundingBox"><stop offset="0" stop-color="#f5f5f5"/><stop offset="1" stop-color="#fff"/></linearGradient><filter id="g" x="175.648" y="75.884" width="136.669" height="140.14" filterUnits="userSpaceOnUse"><feOffset dx="-3" dy="3" input="SourceAlpha"/><feGaussianBlur stdDeviation="3" result="h"/><feFlood flood-opacity="0.02"/><feComposite operator="in" in2="h"/><feComposite in="SourceGraphic"/></filter><filter id="i" x="72.53" y="39.5" width="188" height="188" filterUnits="userSpaceOnUse"><feOffset dx="-3" dy="3" input="SourceAlpha"/><feGaussianBlur stdDeviation="3" result="j"/><feFlood flood-opacity="0.02"/><feComposite operator="in" in2="j"/><feComposite in="SourceGraphic"/></filter><linearGradient id="k" x1="1.58" y1="0.102" x2="2.156" y2="1.014" gradientUnits="objectBoundingBox"><stop offset="0" stop-color="#fdfefe"/><stop offset="0.577" stop-color="#f9fafa"/><stop offset="1" stop-color="#f1f2f2"/></linearGradient><filter id="l" x="225.142" y="50.379" width="108.842" height="104.136" filterUnits="userSpaceOnUse"><feOffset dx="-3" dy="3" input="SourceAlpha"/><feGaussianBlur stdDeviation="3" result="m"/><feFlood flood-opacity="0.02"/><feComposite operator="in" in2="m"/><feComposite in="SourceGraphic"/></filter></defs><g transform="translate(-127.321 -96.527)"><path class="a" d="M3.664,139.689C-4.276,96.04.494,48.369,19.9,11.107c59.983-115.19,251.679-115.259,316.188,0C351.679,38.969,359.928,73.722,360,108.384v.921a213.764,213.764,0,0,1-2.212,30.384Z" transform="translate(127.851 172.338)"/><g class="b" transform="translate(173.769 160.604)"><path class="c" d="M441.823,389.423c10.713-17.985,15.214-39.562,14.062-60.815-75.443-50.352-222.666-42.761-272.705,22.686-.054.07-.1.142-.158.212A113.837,113.837,0,0,0,201.5,396.154C253.232,469.263,397.8,463.34,441.823,389.423Z" transform="translate(-183.023 -295.784)"/></g><g transform="translate(5.268 9)"><g transform="translate(148.583 173.448) rotate(-9)"><g transform="translate(0 0)"><g class="n" transform="matrix(0.99, 0.16, -0.16, 0.99, -12.76, -89.01)"><path class="d" d="M104.589,76.923C104.808,75.033,108.7,36.9,85.8,14,65.828-5.973,35.543-4.293,16.8,17.229,2.644,33.483-3.045,58.891,1.574,83.376Z" transform="translate(26.53 85.92) rotate(-9)"/></g></g><path class="e" d="M38.485,27.575,1.936,29.328S-2.9,18.322,2.719,9.083C7.749.817,16.825.231,19.208.077,21.575-.076,30.47-.65,36.2,6.547,41.1,12.691,38.485,27.575,38.485,27.575Z" transform="translate(32.894 52.06)"/></g><g class="m" transform="matrix(1, 0, 0, 1, 122.05, 87.53)"><path class="f" d="M520.24,398.469c11.217-6,36.638-8.475,50.871,1.081,25.161,16.893,19.5,58.183,12.808,76.34-4.216,11.437-10.5,44.76-38.473,37.348s-62.361-38.6-73.406-66.994C475.969,440.136,505.28,406.472,520.24,398.469Z" transform="translate(-283.83 -310.78)"/></g><g transform="translate(206.583 133.027)"><g class="l" transform="matrix(1, 0, 0, 1, -84.53, -45.5)"><circle class="g" cx="85" cy="85" r="85" transform="translate(84.53 45.5)"/></g><path class="e" d="M77.01,28.261H2.12A2.126,2.126,0,0,1,0,26.141V19.783A8.48,8.48,0,0,1,8.478,11.3h8.478V2.12A2.126,2.126,0,0,1,19.076,0h7.065a2.126,2.126,0,0,1,2.12,2.12V11.3H50.869V2.12A2.126,2.126,0,0,1,52.989,0h7.065a2.126,2.126,0,0,1,2.12,2.12V11.3h8.478a8.48,8.48,0,0,1,8.478,8.478v6.359A2.126,2.126,0,0,1,77.01,28.261ZM2.12,33.913H77.01a2.126,2.126,0,0,1,2.12,2.12V81.956a8.48,8.48,0,0,1-8.478,8.478H8.478A8.48,8.48,0,0,1,0,81.956V36.032A2.126,2.126,0,0,1,2.12,33.913ZM47.566,62.174l8.5-8.5a2.121,2.121,0,0,0,0-3l-5-5a2.121,2.121,0,0,0-3,0l-8.5,8.5-8.5-8.5a2.121,2.121,0,0,0-3,0l-5,5a2.121,2.121,0,0,0,0,3l8.5,8.5-8.5,8.5a2.121,2.121,0,0,0,0,3l5,5a2.121,2.121,0,0,0,3,0l8.5-8.5,8.5,8.5a2.121,2.121,0,0,0,3,0l5-5a2.121,2.121,0,0,0,0-3Z" transform="translate(45 40)"/></g><g transform="matrix(0.996, 0.087, -0.087, 0.996, 366.087, 143.906)"><g class="k" transform="matrix(1, -0.09, 0.09, 1, -248.02, -34.9)"><path class="h" d="M591.722,367.424s-2.1,14.061-.221,24.753,6.039,29.041,21.461,33.413,28.706-6.746,37.263-14.767,14.887-21.872,14.887-21.872,11.963-7.5,9.559-15.571-16.812-4.931-16.812-4.931-4.62-11.975-22.1-16.385-25.9,2.3-25.9,2.3-10.516-9.641-15.852-6.092S591.722,367.424,591.722,367.424Z" transform="matrix(1, 0.09, -0.09, 1, -314.15, -341.27)"/></g><path class="i" d="M644.988,446.9c-.476,1.623.775,8.406,4.574,9.52s9.119-4.132,9.108-5.925-1.11-4.423-5.565-5.73S645.464,445.281,644.988,446.9Z" transform="translate(-623.188 -394.884)"/><path class="i" d="M15.1,3.63c-.669.929-2.79,2.825-8.555,2.213S-.488.928.149.044c.288-.4,2.233,2.061,6.6,3S15.47,3.121,15.1,3.63Z" transform="matrix(0.998, -0.07, 0.07, 0.998, 18.699, 64.89)"/><path class="i" d="M2.915,0A2.915,2.915,0,1,1,0,2.915,2.915,2.915,0,0,1,2.915,0Z" transform="translate(20.032 26.269)"/><path class="i" d="M698.444,427.074a2.977,2.977,0,1,1-2.018-3.694A2.977,2.977,0,0,1,698.444,427.074Z" transform="translate(-646.919 -389.278)"/><path class="j" d="M604.164,358.931c-1.712,1.123-1.352,6.985,1.569,7.937,2.038.665,4.966-1.176,5.223-3.161C611.331,360.8,605.94,357.765,604.164,358.931Z" transform="translate(-597.568 -353.657)"/><path class="j" d="M754.835,407.005c.834,1.87-2.635,6.608-5.608,5.832-2.074-.541-3.544-3.672-2.687-5.481C747.795,404.7,753.969,405.064,754.835,407.005Z" transform="translate(-676.528 -379.46)"/></g></g></g></svg>