<svg xmlns="http://www.w3.org/2000/svg" xmlns:xlink="http://www.w3.org/1999/xlink" width="361.03" height="274.5" viewBox="0 0 361.03 274.5"><defs><style>.a,.k{fill:#272727;}.a{font-size:18px;font-family:Nunito-SemiBold, Nunito;font-weight:600;}.b{font-size:14px;font-family:Nunito-Regular, Nunito;font-weight:400;}.c,.f{stroke:rgba(0,0,0,0);stroke-miterlimit:10;}.c{fill:url(#a);}.d{fill:url(#b);}.e{fill:#6fcfee;}.f{fill:url(#e);}.g{fill:#fff;}.h{fill:#0085cd;}.i{fill:url(#j);}.j{fill:url(#m);}.l{fill:#eaeaea;}.m{filter:url(#k);}.n{filter:url(#h);}.o{filter:url(#f);}.p{filter:url(#c);}</style><linearGradient id="a" x1="0.5" y1="-0.334" x2="0.5" y2="1" gradientUnits="objectBoundingBox"><stop offset="0" stop-color="#6fcfee"/><stop offset="1" stop-color="#fff" stop-opacity="0"/></linearGradient><linearGradient id="b" x1="0.399" y1="0.468" x2="0.531" y2="0.863" gradientUnits="objectBoundingBox"><stop offset="0" stop-color="#fff"/><stop offset="0.573" stop-color="#e8f6fb"/><stop offset="1" stop-color="#ddf2fa"/></linearGradient><filter id="c" x="20.53" y="63.5" width="134.72" height="116.771" filterUnits="userSpaceOnUse"><feOffset dx="3" dy="3" input="SourceAlpha"/><feGaussianBlur stdDeviation="3" result="d"/><feFlood flood-opacity="0.02"/><feComposite operator="in" in2="d"/><feComposite in="SourceGraphic"/></filter><linearGradient id="e" x1="0.604" y1="0.301" x2="0.87" y2="0.546" gradientUnits="objectBoundingBox"><stop offset="0" stop-color="#f5f5f5"/><stop offset="1" stop-color="#fff"/></linearGradient><filter id="f" x="175.648" y="75.884" width="136.668" height="140.14" filterUnits="userSpaceOnUse"><feOffset dx="-3" dy="3" input="SourceAlpha"/><feGaussianBlur stdDeviation="3" result="g"/><feFlood flood-opacity="0.02"/><feComposite operator="in" in2="g"/><feComposite in="SourceGraphic"/></filter><filter id="h" x="72.531" y="39.5" width="188" height="188" filterUnits="userSpaceOnUse"><feOffset dx="-3" dy="3" input="SourceAlpha"/><feGaussianBlur stdDeviation="3" result="i"/><feFlood flood-opacity="0.02"/><feComposite operator="in" in2="i"/><feComposite in="SourceGraphic"/></filter><linearGradient id="j" x1="1.58" y1="0.102" x2="2.156" y2="1.014" gradientUnits="objectBoundingBox"><stop offset="0" stop-color="#fdfefe"/><stop offset="0.577" stop-color="#f9fafa"/><stop offset="1" stop-color="#f1f2f2"/></linearGradient><filter id="k" x="225.142" y="50.379" width="108.842" height="104.136" filterUnits="userSpaceOnUse"><feOffset dx="-3" dy="3" input="SourceAlpha"/><feGaussianBlur stdDeviation="3" result="l"/><feFlood flood-opacity="0.02"/><feComposite operator="in" in2="l"/><feComposite in="SourceGraphic"/></filter><linearGradient id="m" x1="0.5" x2="0.5" y2="1" gradientUnits="objectBoundingBox"><stop offset="0" stop-color="#565656"/><stop offset="1"/></linearGradient></defs><g transform="translate(0.531 0.5)"><text class="a" transform="translate(0 231)"><tspan x="32.76" y="18">Hoam, belum ada penukaran Point...</tspan><tspan class="b"><tspan x="1.346" y="38">Tukar Point pelanggan dengan Diskon atau Gratis Produk</tspan></tspan></text><g transform="translate(-127.851 -97.027)"><path class="c" d="M3.664,139.689C-4.276,96.04.494,48.369,19.9,11.107c59.983-115.19,251.679-115.259,316.188,0C351.679,38.969,359.928,73.722,360,108.384v.921a213.764,213.764,0,0,1-2.212,30.384Z" transform="translate(127.851 172.338)"/><g transform="translate(5.268 9)"><g transform="translate(148.583 173.448) rotate(-9)"><g transform="translate(0 0)"><g class="p" transform="matrix(0.99, 0.16, -0.16, 0.99, -12.76, -89.01)"><path class="d" d="M104.589,76.923C104.808,75.033,108.7,36.9,85.8,14,65.828-5.973,35.543-4.293,16.8,17.229,2.644,33.483-3.045,58.891,1.574,83.376Z" transform="translate(26.53 85.92) rotate(-9)"/></g></g><path class="e" d="M38.485,27.575,1.936,29.328S-2.9,18.322,2.719,9.083C7.749.817,16.825.231,19.208.077,21.575-.076,30.47-.65,36.2,6.547,41.1,12.691,38.485,27.575,38.485,27.575Z" transform="translate(32.894 52.06)"/></g><g class="o" transform="matrix(1, 0, 0, 1, 122.05, 87.53)"><path class="f" d="M520.24,398.469c11.217-6,36.638-8.475,50.871,1.081,25.161,16.893,19.5,58.183,12.808,76.34-4.216,11.437-10.5,44.76-38.473,37.348s-62.361-38.6-73.406-66.994C475.969,440.136,505.28,406.472,520.24,398.469Z" transform="translate(-283.83 -310.78)"/></g><g transform="translate(206.583 133.027)"><g class="n" transform="matrix(1, 0, 0, 1, -84.53, -45.5)"><circle class="g" cx="85" cy="85" r="85" transform="translate(84.53 45.5)"/></g><g transform="translate(-7.712 -2.928)"><path class="h" d="M25.409,20.5a11.134,11.134,0,0,1,4.647-8.427,3.348,3.348,0,0,0-3.02-1.933h-3.1l3.242-2.323a1.679,1.679,0,0,0,.391-2.355l-.982-1.373A1.679,1.679,0,0,0,24.226,3.7L20.847,6.115l1.214-3.232A1.689,1.689,0,0,0,21.068.708L19.484.117a1.689,1.689,0,0,0-2.175.993l-2.1,5.6L13.106,1.1A1.689,1.689,0,0,0,10.93.106L9.346.7a1.679,1.679,0,0,0-.982,2.175L9.578,6.1,6.189,3.7a1.689,1.689,0,0,0-2.355.391L2.851,5.461a1.689,1.689,0,0,0,.391,2.355l3.242,2.323h-3.1A3.376,3.376,0,0,0,0,13.518V50.692a3.376,3.376,0,0,0,3.379,3.379H21.216a6.71,6.71,0,0,1-.94-3.379V27.036A6.758,6.758,0,0,1,25.409,20.5ZM23.656,50.692a3.376,3.376,0,0,0,3.379,3.379h16.9V40.553H23.656Zm23.656,3.379h16.9a3.376,3.376,0,0,0,3.379-3.379V40.553H47.311Zm16.9-30.415H62.054a7.736,7.736,0,0,0,.465-2.513A7.548,7.548,0,0,0,54.9,13.518c-5.08,0-8.015,5.037-9.283,7.952-1.278-2.915-4.214-7.952-9.283-7.952a7.548,7.548,0,0,0-7.614,7.625,7.466,7.466,0,0,0,.465,2.513H27.035a3.376,3.376,0,0,0-3.379,3.379V37.174H43.932V23.656h1.616l.074-.021.074.021h1.616V37.174H67.588V27.036A3.376,3.376,0,0,0,64.208,23.656Zm-28.725,0a3.971,3.971,0,0,1-.76-.507,2.593,2.593,0,0,1-.929-2.007,2.48,2.48,0,0,1,2.545-2.556c1.975,0,3.76,2.894,4.7,5.069ZM56.52,23.15a3.971,3.971,0,0,1-.76.507H50.205c.929-2.144,2.725-5.069,4.7-5.069a2.48,2.48,0,0,1,2.545,2.556A2.593,2.593,0,0,1,56.52,23.15Z" transform="translate(43.712 54.93)"/><path class="e" d="M0,17.727V3.375A3.375,3.375,0,0,1,3.375,0H17.727a3.375,3.375,0,0,1,2.386.989l14.9,14.9a3.375,3.375,0,0,1,0,4.773L20.659,35.011a3.375,3.375,0,0,1-4.773,0l-14.9-14.9A3.375,3.375,0,0,1,0,17.727ZM7.875,4.5A3.375,3.375,0,1,0,11.25,7.875,3.375,3.375,0,0,0,7.875,4.5Z" transform="translate(106.911 84.669)"/></g></g><g transform="matrix(0.996, 0.087, -0.087, 0.996, 366.087, 143.906)"><g class="m" transform="matrix(1, -0.09, 0.09, 1, -248.02, -34.9)"><path class="i" d="M591.722,367.424s-2.1,14.061-.221,24.753,6.039,29.041,21.461,33.413,28.706-6.746,37.263-14.767,14.887-21.872,14.887-21.872,11.963-7.5,9.559-15.571-16.812-4.931-16.812-4.931-4.62-11.975-22.1-16.385-25.9,2.3-25.9,2.3-10.516-9.641-15.852-6.092S591.722,367.424,591.722,367.424Z" transform="matrix(1, 0.09, -0.09, 1, -314.15, -341.27)"/></g><path class="j" d="M644.988,446.9c-.476,1.623.775,8.406,4.574,9.52s9.119-4.132,9.108-5.925-1.11-4.423-5.565-5.73S645.464,445.281,644.988,446.9Z" transform="translate(-623.188 -394.884)"/><path class="k" d="M10.966,2.966c-.361,1.994-2.023,2.554-6.2,2S-.241,1.717.12-.277s2.442-3.76,6.085-2.733S11.327.971,10.966,2.966Z" transform="translate(29.769 70.805) rotate(-172)"/><path class="k" d="M8.958,2.583c-.4.662-1.654,2.011-5.073,1.575S-.289.66.088.031C.259-.254,1.413,1.5,4,2.167S9.175,2.222,8.958,2.583Z" transform="translate(26.952 32.088) rotate(-180)"/><path class="k" d="M8.958,2.583c-.4.662-1.654,2.011-5.073,1.575S-.289.66.088.031C.259-.254,1.413,1.5,4,2.167S9.175,2.222,8.958,2.583Z" transform="translate(52.729 39.871) rotate(-180)"/><path class="l" d="M604.164,358.931c-1.712,1.123-1.352,6.985,1.569,7.937,2.038.665,4.966-1.176,5.223-3.161C611.331,360.8,605.94,357.765,604.164,358.931Z" transform="translate(-597.568 -353.657)"/><path class="l" d="M754.835,407.005c.834,1.87-2.635,6.608-5.608,5.832-2.074-.541-3.544-3.672-2.687-5.481C747.795,404.7,753.969,405.064,754.835,407.005Z" transform="translate(-676.528 -379.46)"/></g></g></g></g></svg>