<svg xmlns="http://www.w3.org/2000/svg" xmlns:xlink="http://www.w3.org/1999/xlink" width="361.031" height="227.5" viewBox="0 0 361.031 227.5"><defs><style>.a,.d{stroke:rgba(0,0,0,0);stroke-miterlimit:10;}.a{fill:url(#a);}.b{fill:url(#b);}.c{fill:#6fcfee;}.d{fill:url(#e);}.e,.f{fill:#fff;}.f{stroke:#6fcfee;stroke-linecap:round;stroke-width:3px;stroke-dasharray:5 5;}.g{fill:url(#j);}.h{fill:url(#m);}.i{fill:#272727;}.j{fill:#eaeaea;}.k{filter:url(#k);}.l{filter:url(#h);}.m{filter:url(#f);}.n{filter:url(#c);}</style><linearGradient id="a" x1="0.5" y1="-0.334" x2="0.5" y2="1" gradientUnits="objectBoundingBox"><stop offset="0" stop-color="#6fcfee"/><stop offset="1" stop-color="#fff" stop-opacity="0"/></linearGradient><linearGradient id="b" x1="0.399" y1="0.468" x2="0.531" y2="0.863" gradientUnits="objectBoundingBox"><stop offset="0" stop-color="#fff"/><stop offset="0.573" stop-color="#e8f6fb"/><stop offset="1" stop-color="#ddf2fa"/></linearGradient><filter id="c" x="20.53" y="63.5" width="134.72" height="116.771" filterUnits="userSpaceOnUse"><feOffset dx="3" dy="3" input="SourceAlpha"/><feGaussianBlur stdDeviation="3" result="d"/><feFlood flood-opacity="0.02"/><feComposite operator="in" in2="d"/><feComposite in="SourceGraphic"/></filter><linearGradient id="e" x1="0.604" y1="0.301" x2="0.87" y2="0.546" gradientUnits="objectBoundingBox"><stop offset="0" stop-color="#f5f5f5"/><stop offset="1" stop-color="#fff"/></linearGradient><filter id="f" x="175.648" y="75.884" width="136.669" height="140.14" filterUnits="userSpaceOnUse"><feOffset dx="-3" dy="3" input="SourceAlpha"/><feGaussianBlur stdDeviation="3" result="g"/><feFlood flood-opacity="0.02"/><feComposite operator="in" in2="g"/><feComposite in="SourceGraphic"/></filter><filter id="h" x="72.53" y="39.5" width="188" height="188" filterUnits="userSpaceOnUse"><feOffset dx="-3" dy="3" input="SourceAlpha"/><feGaussianBlur stdDeviation="3" result="i"/><feFlood flood-opacity="0.02"/><feComposite operator="in" in2="i"/><feComposite in="SourceGraphic"/></filter><linearGradient id="j" x1="1.58" y1="0.102" x2="2.156" y2="1.014" gradientUnits="objectBoundingBox"><stop offset="0" stop-color="#fdfefe"/><stop offset="0.577" stop-color="#f9fafa"/><stop offset="1" stop-color="#f1f2f2"/></linearGradient><filter id="k" x="225.142" y="50.379" width="108.842" height="104.136" filterUnits="userSpaceOnUse"><feOffset dx="-3" dy="3" input="SourceAlpha"/><feGaussianBlur stdDeviation="3" result="l"/><feFlood flood-opacity="0.02"/><feComposite operator="in" in2="l"/><feComposite in="SourceGraphic"/></filter><linearGradient id="m" x1="0.5" x2="0.5" y2="1" gradientUnits="objectBoundingBox"><stop offset="0" stop-color="#565656"/><stop offset="1"/></linearGradient></defs><g transform="translate(0.531 0.5)"><path class="a" d="M3.664,215C-4.277,171.352.494,123.681,19.9,86.419c59.982-115.19,251.679-115.259,316.188,0,15.622,27.912,23.872,62.748,23.915,97.473v.529A213.721,213.721,0,0,1,357.788,215Z" transform="translate(0)"/><g transform="translate(26 45)"><g transform="translate(0 40.421) rotate(-9)"><g transform="translate(0 0)"><g class="n" transform="matrix(0.99, 0.16, -0.16, 0.99, -12.76, -89.01)"><path class="b" d="M104.589,76.923C104.808,75.033,108.7,36.9,85.8,14,65.828-5.973,35.543-4.293,16.8,17.229,2.644,33.483-3.045,58.891,1.574,83.376Z" transform="translate(26.53 85.92) rotate(-9)"/></g></g><path class="c" d="M38.485,27.575,1.936,29.328S-2.9,18.322,2.719,9.083C7.749.817,16.825.231,19.208.077,21.575-.076,30.47-.65,36.2,6.547,41.1,12.691,38.485,27.575,38.485,27.575Z" transform="translate(32.894 52.06)"/></g><g class="m" transform="matrix(1, 0, 0, 1, -26.53, -45.5)"><path class="d" d="M520.24,398.469c11.217-6,36.638-8.475,50.871,1.081,25.161,16.893,19.5,58.183,12.808,76.34-4.216,11.437-10.5,44.76-38.473,37.348s-62.361-38.6-73.406-66.994C475.969,440.136,505.28,406.472,520.24,398.469Z" transform="translate(-283.83 -310.78)"/></g><g transform="translate(58)"><g class="l" transform="matrix(1, 0, 0, 1, -84.53, -45.5)"><circle class="e" cx="85" cy="85" r="85" transform="translate(84.53 45.5)"/></g><g transform="translate(42 42)"><g transform="translate(0 0)"><path class="c" d="M20.342,0h22.3A20.342,20.342,0,0,1,62.979,20.342v0a0,0,0,0,1,0,0H0a0,0,0,0,1,0,0v0A20.342,20.342,0,0,1,20.342,0Z" transform="translate(10.999 3.296) rotate(-3)"/><path class="c" d="M0,0H62.979a0,0,0,0,1,0,0V11.406a5,5,0,0,1-5,5H5a5,5,0,0,1-5-5V0A0,0,0,0,1,0,0Z" transform="matrix(0.998, 0.07, -0.07, 0.998, 12.145, 66.218)"/><g transform="translate(0 36.176)"><path class="f" d="M7.411,1.066A278.424,278.424,0,0,1,43.484-1.658a270.79,270.79,0,0,1,35.77,2.724,7.377,7.377,0,0,1,0,14.753s-17.126-.87-35.087-.87A338.7,338.7,0,0,1,7.411,12.573c-4.074,0-7.463-1.875-7.463-5.949S3.337,1.066,7.411,1.066Z" transform="translate(0.053 1.658)"/></g></g></g></g><g transform="matrix(0.996, 0.087, -0.087, 0.996, 217.505, 10.879)"><g class="k" transform="matrix(1, -0.09, 0.09, 1, -248.02, -34.9)"><path class="g" d="M1,19.94S-1.1,34,.78,44.694,6.818,73.735,22.24,78.106,50.946,71.361,59.5,63.34,74.391,41.467,74.391,41.467,86.354,33.97,83.95,25.9s-16.812-4.931-16.812-4.931S62.518,8.99,45.039,4.58s-25.9,2.3-25.9,2.3S8.625-2.765,3.289.785,1,19.94,1,19.94Z" transform="matrix(1, 0.09, -0.09, 1, 244.04, 56.38)"/></g><path class="h" d="M.1,2.581C-.38,4.2.872,10.987,4.67,12.1s9.119-4.132,9.108-5.925S12.667,1.754,8.213.447.573.958.1,2.581Z" transform="translate(21.704 49.44)"/><path class="i" d="M10.922,6.278c-.361,1.994-2.023,2.554-6.2,2s-5-3.25-4.642-5.244S2.518-.725,6.162.3,11.283,4.283,10.922,6.278Z" transform="translate(29.264 74.079) rotate(-172)"/><path class="i" d="M8.958,2.583c-.4.662-1.654,2.011-5.073,1.575S-.289.66.088.031C.259-.254,1.413,1.5,4,2.167S9.175,2.222,8.958,2.583Z" transform="translate(26.952 32.088) rotate(-180)"/><path class="i" d="M8.958,2.583c-.4.662-1.654,2.011-5.073,1.575S-.289.66.088.031C.259-.254,1.413,1.5,4,2.167S9.175,2.222,8.958,2.583Z" transform="translate(52.729 39.871) rotate(-180)"/><path class="j" d="M1.029.256C-.683,1.379-.323,7.241,2.6,8.193c2.038.665,4.966-1.176,5.223-3.161C8.2,2.122,2.805-.91,1.029.256Z" transform="translate(5.567 5.019)"/><path class="j" d="M8.544,1.547c.834,1.87-2.635,6.608-5.608,5.832C.862,6.838-.608,3.707.249,1.9,1.5-.754,7.679-.394,8.544,1.547Z" transform="translate(69.763 25.998)"/></g></g></g></svg>