<svg xmlns="http://www.w3.org/2000/svg" width="169.235" height="270.771" viewBox="0 0 169.235 270.771"><defs><style>.a{fill:#fff;}</style></defs><path class="a" d="M59.266,50.762A25.381,25.381,0,1,1,84.647,25.381,25.388,25.388,0,0,1,59.266,50.762ZM9.3,129.6l12.32-6.239,5.129-15.546C34.519,84.233,56.2,67.736,80.787,67.683c19.036-.053,29.558,5.341,49.334,13.325a50.439,50.439,0,0,1,26.28,24.429l3.543,7.191a16.976,16.976,0,0,1-7.509,22.684,16.693,16.693,0,0,1-22.473-7.561l-3.543-7.191a16.807,16.807,0,0,0-8.725-8.143l-14.171-5.711,8.037,32.1a33.96,33.96,0,0,1-7.879,31.092L72.009,204.476a34.125,34.125,0,0,0-7.879,14.647l-9.676,38.759a16.922,16.922,0,0,1-32.837-8.2l11.739-47.061a33.825,33.825,0,0,1,7.879-14.647L65.294,161.7,56.2,125.372,53.291,134.1a33.723,33.723,0,0,1-16.762,19.565l-12.32,6.24a16.693,16.693,0,0,1-22.473-7.561A17.119,17.119,0,0,1,9.3,129.6ZM130.333,204a32.812,32.812,0,0,0,7.509,11.369L164.28,241.86a16.919,16.919,0,1,1-23.9,23.953L108.97,234.4a34.371,34.371,0,0,1-7.509-11.369l-7.138-17.872c29.241-31.885,20.463-22.1,25.064-28.395L130.333,204Z" transform="translate(-0.002 0)"/></svg>