<svg xmlns="http://www.w3.org/2000/svg" width="169.235" height="270.77" viewBox="0 0 169.235 270.77"><defs><style>.a{fill:#fff;}</style></defs><path class="a" d="M109.973,50.762A25.381,25.381,0,1,0,84.592,25.381,25.388,25.388,0,0,0,109.973,50.762Zm49.969,78.84-12.32-6.239-5.129-15.546c-7.773-23.583-29.453-40.081-54.04-40.134-19.036-.053-29.558,5.341-49.334,13.325a50.439,50.439,0,0,0-26.28,24.429l-3.543,7.191A16.976,16.976,0,0,0,16.8,135.313a16.693,16.693,0,0,0,22.473-7.561l3.543-7.191a16.807,16.807,0,0,1,8.725-8.143l14.171-5.711-8.037,32.1a33.96,33.96,0,0,0,7.879,31.092L97.23,204.476a34.125,34.125,0,0,1,7.879,14.647l9.676,38.759a16.922,16.922,0,0,0,32.837-8.2l-11.739-47.061A33.825,33.825,0,0,0,128,187.978L103.945,161.7l9.095-36.327,2.908,8.725a33.723,33.723,0,0,0,16.762,19.565l12.32,6.24a16.693,16.693,0,0,0,22.473-7.561,17.119,17.119,0,0,0-7.561-22.737ZM38.906,204A32.812,32.812,0,0,1,31.4,215.368L4.959,241.86a16.919,16.919,0,0,0,23.9,23.953L60.268,234.4a34.371,34.371,0,0,0,7.509-11.369l7.138-17.872c-29.241-31.885-20.463-22.1-25.064-28.395L38.906,204Z" transform="translate(-0.002)"/></svg>