<svg xmlns="http://www.w3.org/2000/svg" xmlns:xlink="http://www.w3.org/1999/xlink" width="217" height="108" viewBox="0 0 217 108"><defs><style>.a{fill:#f5f5f5;}.b{fill:url(#a);}.c,.f{fill:none;}.d{fill:#2bc5f4;}.e{fill:#0085cd;}.f{stroke:#0085cd;}.g{stroke:none;}.h{filter:url(#b);}</style><linearGradient id="a" x1="0.5" y1="0.406" x2="0.965" y2="1.049" gradientUnits="objectBoundingBox"><stop offset="0" stop-color="#fff"/><stop offset="1" stop-color="#fcfcfc"/></linearGradient><filter id="b" x="48" y="24" width="122" height="84" filterUnits="userSpaceOnUse"><feOffset dy="2" input="SourceAlpha"/><feGaussianBlur stdDeviation="1" result="c"/><feFlood flood-opacity="0.122"/><feComposite operator="in" in2="c"/><feComposite in="SourceGraphic"/></filter></defs><g transform="translate(-95 -72)"><rect class="a" width="217" height="103" rx="10" transform="translate(95 72)"/><g transform="translate(181.703 97.141)"><g class="h" transform="matrix(1, 0, 0, 1, -86.7, -25.14)"><rect class="b" width="116" height="78" rx="7" transform="translate(51 25)"/></g><g transform="translate(4.756 13.475)"><rect class="c" width="35" height="34" rx="5" transform="translate(-0.458 0.385)"/><path class="d" d="M13.5,9.136A4.364,4.364,0,1,0,17.864,13.5,4.362,4.362,0,0,0,13.5,9.136Zm9.753,3.273a9.812,9.812,0,0,0-8.662-8.662V1.5H12.409V3.747a9.812,9.812,0,0,0-8.662,8.662H1.5v2.182H3.747a9.812,9.812,0,0,0,8.662,8.662V25.5h2.182V23.253a9.812,9.812,0,0,0,8.662-8.662H25.5V12.409ZM13.5,21.136A7.636,7.636,0,1,1,21.136,13.5,7.631,7.631,0,0,1,13.5,21.136Z" transform="translate(4.042 3.885)"/></g><rect class="e" width="40" height="13" rx="2" transform="translate(27.297 56.859)"/><g class="f" transform="translate(-23.703 56.859)"><rect class="g" width="40" height="13" rx="2"/><rect class="c" x="0.5" y="0.5" width="39" height="12" rx="1.5"/></g></g></g></svg>