<?xml version="1.0" standalone="no"?>
<!DOCTYPE svg PUBLIC "-//W3C//DTD SVG 20010904//EN"
 "http://www.w3.org/TR/2001/REC-SVG-20010904/DTD/svg10.dtd">
<svg version="1.0" xmlns="http://www.w3.org/2000/svg"
 width="1024.000000pt" height="1024.000000pt" viewBox="0 0 1024.000000 1024.000000"
 preserveAspectRatio="xMidYMid meet">
<metadata>
Created by potrace 1.11, written by Peter Selinger 2001-2013
</metadata>
<g transform="translate(0.000000,1024.000000) scale(0.100000,-0.100000)"
fill="#000000" stroke="none">
<path d="M4890 10230 c-30 -3 -62 -5 -72 -5 -10 1 -18 -2 -18 -7 0 -5 -4 -6
-10 -3 -8 5 -49 0 -146 -19 -12 -2 -37 -7 -55 -10 -60 -9 -248 -60 -309 -83
-8 -3 -21 -7 -28 -9 -24 -5 -176 -67 -189 -77 -7 -5 -13 -7 -13 -4 0 9 -254
-123 -262 -136 -4 -7 -8 -8 -8 -3 0 5 -8 2 -17 -6 -20 -17 -51 -29 -233 -87
-115 -37 -210 -71 -285 -102 -16 -7 -32 -13 -35 -14 -3 0 -27 -12 -55 -25 -27
-13 -52 -24 -55 -24 -6 -1 -228 -114 -269 -137 -59 -32 -258 -159 -292 -186
-20 -15 -47 -35 -60 -43 -32 -21 -206 -165 -254 -210 -103 -97 -186 -182 -254
-260 -41 -47 -77 -87 -80 -90 -4 -3 -17 -22 -31 -42 -14 -21 -28 -38 -32 -38
-5 0 -8 -7 -8 -15 0 -8 -4 -15 -9 -15 -14 0 -197 -272 -250 -370 -10 -19 -27
-51 -37 -70 -11 -19 -22 -37 -25 -40 -6 -6 -69 -135 -122 -250 -45 -99 -99
-234 -137 -345 -17 -49 -34 -97 -37 -105 -3 -8 -7 -19 -8 -25 -1 -5 -3 -12 -4
-15 -2 -3 -4 -12 -6 -20 -2 -8 -18 -64 -35 -125 -18 -60 -34 -121 -36 -135 -3
-14 -9 -38 -14 -55 -5 -16 -12 -50 -15 -75 -4 -25 -10 -49 -14 -55 -3 -5 -6
-17 -6 -25 -1 -14 -13 -82 -22 -125 -2 -11 -6 -36 -8 -55 -3 -19 -7 -46 -10
-60 -2 -14 -7 -45 -10 -70 -3 -25 -8 -56 -10 -70 -3 -14 -7 -54 -11 -90 -3
-36 -8 -90 -11 -120 -8 -72 -8 -637 1 -715 3 -33 8 -78 11 -100 3 -22 8 -62
10 -89 2 -26 9 -71 15 -100 5 -28 12 -64 14 -81 3 -16 7 -41 10 -55 3 -14 7
-36 10 -50 16 -77 36 -162 51 -212 9 -32 17 -61 17 -65 0 -5 5 -19 10 -33 5
-14 12 -36 14 -49 3 -14 8 -29 12 -35 3 -6 7 -16 8 -22 4 -24 57 -169 65 -178
5 -6 9 -16 9 -24 0 -34 208 -483 254 -547 11 -16 20 -32 20 -35 -1 -5 10 -24
53 -92 12 -21 23 -40 23 -43 0 -8 73 -120 82 -126 6 -3 10 -10 10 -15 1 -18
262 -385 340 -476 13 -15 34 -42 48 -60 14 -18 32 -39 40 -48 8 -9 27 -31 41
-50 15 -19 40 -49 55 -67 16 -17 54 -59 84 -94 136 -155 287 -313 671 -700
195 -195 367 -371 383 -390 16 -19 43 -50 60 -69 17 -20 49 -58 71 -85 22 -27
48 -57 58 -67 9 -10 17 -23 17 -28 0 -5 4 -10 8 -10 4 0 24 -21 44 -48 20 -26
46 -58 58 -72 33 -39 52 -62 95 -115 21 -28 42 -52 45 -55 3 -3 44 -52 92
-110 47 -58 95 -116 107 -130 56 -65 118 -136 136 -156 11 -12 41 -46 66 -75
143 -165 422 -443 499 -496 14 -9 32 -24 40 -32 27 -27 178 -121 237 -149 48
-22 72 -26 143 -27 80 0 90 3 165 40 108 54 115 59 115 67 0 5 6 8 14 8 8 0
16 3 18 8 2 4 30 27 63 51 33 24 74 57 90 72 17 15 54 49 84 76 90 80 333 335
441 463 12 14 34 39 48 55 15 17 63 73 107 125 44 52 82 97 85 100 4 3 13 14
21 26 8 12 33 43 56 70 43 51 77 92 90 109 15 18 138 169 159 195 12 14 57 68
100 120 44 52 90 108 104 124 14 16 177 183 363 370 185 187 337 340 337 340
0 1 52 55 115 120 64 65 134 140 156 166 22 26 62 71 90 100 27 29 64 70 82
92 17 22 37 45 42 52 6 6 33 38 60 71 28 33 55 65 60 71 6 6 21 26 35 44 55
73 83 109 126 165 72 91 296 429 294 441 -1 4 2 10 7 13 11 8 83 130 83 140 0
5 7 14 15 21 9 7 13 15 11 18 -3 3 3 17 13 31 24 34 191 380 191 395 0 2 8 21
17 42 9 22 17 41 17 44 1 6 34 96 46 125 18 44 44 121 46 135 1 8 9 38 18 65
9 28 19 61 22 75 2 14 9 36 14 50 5 14 11 36 13 50 2 14 6 32 9 40 3 8 11 40
17 70 6 30 14 66 17 80 7 33 13 68 18 105 15 106 18 131 21 135 4 7 18 164 19
208 0 17 3 32 6 32 7 0 3 608 -4 680 -3 25 -5 45 -6 45 -1 0 -3 18 -5 40 -3
49 -15 151 -21 179 -2 12 -6 41 -9 66 -3 25 -8 54 -10 66 -3 12 -7 39 -10 60
-4 21 -10 55 -15 74 -5 19 -11 51 -14 70 -3 19 -10 53 -15 74 -6 22 -8 43 -5
47 2 4 0 9 -5 11 -6 1 -12 19 -15 38 -2 19 -13 65 -24 103 -22 70 -23 76 -27
92 -5 22 -109 341 -116 355 -19 38 -39 89 -39 97 0 4 -14 35 -30 68 -16 32
-26 63 -24 67 3 4 0 8 -5 8 -6 0 -11 5 -11 10 0 15 -103 224 -112 228 -5 2 -8
8 -8 14 0 5 -26 53 -57 106 -32 54 -60 102 -62 107 -2 6 -7 12 -10 15 -9 8
-71 100 -71 106 0 5 -74 107 -95 130 -5 7 -19 24 -30 40 -11 15 -29 38 -40 51
-11 13 -31 37 -45 54 -47 58 -105 121 -190 208 -87 87 -155 148 -267 241 -199
166 -496 345 -783 473 -62 28 -130 56 -133 56 -1 0 -15 5 -32 11 -60 24 -261
92 -314 106 -56 15 -122 43 -131 55 -3 3 -43 26 -90 50 -47 24 -88 48 -92 54
-4 5 -8 7 -8 3 0 -4 -15 0 -32 10 -18 10 -71 33 -118 51 -47 18 -94 37 -105
41 -11 5 -38 14 -60 21 -22 6 -49 16 -60 20 -24 10 -159 46 -198 53 -15 3 -35
7 -45 10 -9 3 -33 7 -52 10 -19 3 -46 8 -60 11 -14 3 -45 7 -70 10 -25 3 -58
7 -75 10 -45 9 -452 13 -515 5z"/>
</g>
</svg>
