<svg id="ol_-_subscription_2" data-name="ol - subscription 2" xmlns="http://www.w3.org/2000/svg" xmlns:xlink="http://www.w3.org/1999/xlink" width="72" height="71.999" viewBox="0 0 72 71.999">
  <defs>
    <linearGradient id="linear-gradient" x1="0.534" y1="-0.8" x2="0.5" y2="1" gradientUnits="objectBoundingBox">
      <stop offset="0" stop-color="#6fcfee"/>
      <stop offset="1" stop-color="#fff"/>
    </linearGradient>
    <linearGradient id="linear-gradient-2" x1="0.5" y1="-0.182" x2="0.468" y2="0.559" xlink:href="#linear-gradient"/>
    <clipPath id="clip-path">
      <ellipse id="Ellipse_697" data-name="Ellipse 697" cx="36" cy="36" rx="36" ry="36" fill="url(#linear-gradient)"/>
    </clipPath>
    <linearGradient id="linear-gradient-3" y1="0.5" x2="1" y2="0.5" gradientUnits="objectBoundingBox">
      <stop offset="0" stop-color="#f9d8b1"/>
      <stop offset="1" stop-color="#ff931e"/>
    </linearGradient>
    <linearGradient id="linear-gradient-4" y1="0.5" x2="1" y2="0.5" gradientUnits="objectBoundingBox">
      <stop offset="0" stop-color="#fff2e3"/>
      <stop offset="1" stop-color="#ffbd75"/>
    </linearGradient>
    <linearGradient id="linear-gradient-5" x1="0" y1="0.5" y2="0.5" xlink:href="#linear-gradient-4"/>
    <filter id="Path_40323" x="9.348" y="9.157" width="99.471" height="86.058" filterUnits="userSpaceOnUse">
      <feOffset input="SourceAlpha"/>
      <feGaussianBlur stdDeviation="12" result="blur"/>
      <feFlood flood-color="#6fcfee" flood-opacity="0.549"/>
      <feComposite operator="in" in2="blur"/>
      <feComposite in="SourceGraphic"/>
    </filter>
    <filter id="Path_40324" x="-38.25" y="-9.665" width="93.549" height="83.027" filterUnits="userSpaceOnUse">
      <feOffset input="SourceAlpha"/>
      <feGaussianBlur stdDeviation="12" result="blur-2"/>
      <feFlood flood-color="#6fcfee" flood-opacity="0.549"/>
      <feComposite operator="in" in2="blur-2"/>
      <feComposite in="SourceGraphic"/>
    </filter>
    <linearGradient id="linear-gradient-6" y1="0.5" x2="1" y2="0.5" gradientUnits="objectBoundingBox">
      <stop offset="0" stop-color="#6fcfee"/>
      <stop offset="1" stop-color="#1685c7"/>
    </linearGradient>
    <linearGradient id="linear-gradient-7" y1="0.5" x2="1" y2="0.5" gradientUnits="objectBoundingBox">
      <stop offset="0" stop-color="#ddf2fa"/>
      <stop offset="1" stop-color="#6fcfee"/>
    </linearGradient>
    <linearGradient id="linear-gradient-8" x1="0" y1="0.5" y2="0.5" xlink:href="#linear-gradient-7"/>
    <linearGradient id="linear-gradient-9" y1="0.5" x2="1" y2="0.5" gradientUnits="objectBoundingBox">
      <stop offset="0" stop-color="#a8f083"/>
      <stop offset="1" stop-color="#44a215"/>
    </linearGradient>
    <linearGradient id="linear-gradient-10" y1="0.5" x2="1" y2="0.5" gradientUnits="objectBoundingBox">
      <stop offset="0" stop-color="#edf7e9"/>
      <stop offset="1" stop-color="#a1f176"/>
    </linearGradient>
    <linearGradient id="linear-gradient-11" x1="0" y1="0.5" y2="0.5" xlink:href="#linear-gradient-10"/>
    <linearGradient id="linear-gradient-12" x1="0.5" x2="0.5" y2="1" gradientUnits="objectBoundingBox">
      <stop offset="0" stop-color="#009cf1"/>
      <stop offset="1" stop-color="#026da7"/>
    </linearGradient>
  </defs>
  <ellipse id="Ellipse_665" data-name="Ellipse 665" cx="36" cy="36" rx="36" ry="36" fill="url(#linear-gradient-2)"/>
  <g id="Mask_Group_7" data-name="Mask Group 7" clip-path="url(#clip-path)">
    <g id="Group_25056" data-name="Group 25056" transform="translate(55.474 31.754)">
      <path id="Path_40319" data-name="Path 40319" d="M97.216,3.79c-6.2,0-5.96,6.067-5.96,6.067,0,3.034,2.225,4.878,3.331,6.068.522.555,1.944,2.638,2.629,2.638s2.112-2.083,2.629-2.638c1.107-1.19,3.332-3.034,3.332-6.068C103.177,9.857,103.419,3.79,97.216,3.79Z" transform="translate(-91.255 -3.519)" fill="url(#linear-gradient-3)"/>
      <path id="Path_40320" data-name="Path 40320" d="M119.8,5.325c0,2.848-2.036,5.739-2.8,6.933s-.879,2.3-1.517,2.714a.512.512,0,0,1-.524,0c-.637-.418-.757-1.52-1.516-2.714s-2.8-4.09-2.8-6.933C110.658,2.015,112.827,0,115.227,0S119.8,2.015,119.8,5.325Z" transform="translate(-109.265 0)" fill="#ffbc72"/>
      <path id="Path_40321" data-name="Path 40321" d="M135.106,5.325a25.643,25.643,0,0,1-1.255,6.933,19.933,19.933,0,0,1-.643,2.714.206.206,0,0,1-.313,0,19.966,19.966,0,0,1-.643-2.714A25.7,25.7,0,0,1,131,5.325c0-3.31.974-5.325,2.052-5.325S135.1,2.015,135.106,5.325Z" transform="translate(-127.107 0)" fill="url(#linear-gradient-4)"/>
      <path id="Path_40322" data-name="Path 40322" d="M146.448,177.649c-1.2,0-1.012-1.219-1.012-1.219h2.024S147.645,177.649,146.448,177.649Z" transform="translate(-140.504 -160.858)" fill="url(#linear-gradient-5)"/>
      <ellipse id="Ellipse_694" data-name="Ellipse 694" cx="1.013" cy="0.215" rx="1.013" ry="0.215" transform="translate(4.931 15.357)" fill="#ff931e"/>
    </g>
    <g transform="matrix(1, 0, 0, 1, 0, 0)" filter="url(#Path_40323)">
      <path id="Path_40323-2" data-name="Path 40323" d="M358.061,30.025V28.939a2.885,2.885,0,0,0-4.672-2.262,5.766,5.766,0,0,0-11.018-1.425,5.765,5.765,0,1,0-3.235,10.536h18.926a2.885,2.885,0,0,0,0-5.766Z" transform="translate(-288.02 23.43)" fill="#fff"/>
    </g>
    <g transform="matrix(1, 0, 0, 1, 0, 0)" filter="url(#Path_40324)">
      <path id="Path_40324-2" data-name="Path 40324" d="M352.738,28.237v-.852a2.263,2.263,0,0,0-3.665-1.775,4.523,4.523,0,0,0-8.643-1.118,4.522,4.522,0,1,0-2.538,8.264h14.846a2.263,2.263,0,0,0,0-4.523Z" transform="translate(-335.62 4.61)" fill="#fff"/>
    </g>
    <g id="Group_25058" data-name="Group 25058" transform="translate(20.616 9)">
      <path id="Path_40325" data-name="Path 40325" d="M107.412,3.79C90.6,3.79,91.259,20.234,91.259,20.234c0,8.222,6.03,13.221,9.029,16.446,1.416,1.5,5.268,7.151,7.125,7.151s5.723-5.646,7.125-7.151c3-3.225,9.031-8.224,9.031-16.446C123.568,20.234,124.224,3.79,107.412,3.79Z" transform="translate(-91.255 -3.057)" fill="url(#linear-gradient-6)"/>
      <path id="Path_40326" data-name="Path 40326" d="M135.452,14.432c0,7.719-5.519,15.554-7.581,18.791s-2.383,6.221-4.111,7.355a1.388,1.388,0,0,1-1.42,0c-1.726-1.134-2.052-4.12-4.109-7.355s-7.581-11.084-7.581-18.791C110.67,5.461,116.55,0,123.055,0S135.441,5.461,135.452,14.432Z" transform="translate(-106.897 0)" fill="#6fcfee"/>
      <path id="Path_40327" data-name="Path 40327" d="M142.128,14.432c0,7.719-2.477,15.554-3.4,18.791s-.968,6.221-1.742,7.355a.56.56,0,0,1-.85,0c-.774-1.134-.817-4.12-1.742-7.355S131,22.14,131,14.432C131,5.461,133.64,0,136.562,0S142.122,5.461,142.128,14.432Z" transform="translate(-120.448 0)" fill="url(#linear-gradient-7)"/>
      <path id="Path_40328" data-name="Path 40328" d="M148.2,179.734c-3.243,0-2.742-3.3-2.742-3.3h5.487S151.441,179.734,148.2,179.734Z" transform="translate(-132.086 -134.224)" fill="url(#linear-gradient-8)"/>
      <ellipse id="Ellipse_695" data-name="Ellipse 695" cx="2.744" cy="0.583" rx="2.744" ry="0.583" transform="translate(13.366 41.624)" fill="#1685c7"/>
    </g>
    <g id="Group_25059" data-name="Group 25059" transform="translate(8.957 39.025)">
      <path id="Path_40329" data-name="Path 40329" d="M99.334,3.79c-8.407,0-8.077,8.222-8.077,8.222,0,4.111,3.015,6.61,4.514,8.223.708.752,2.634,3.575,3.562,3.575s2.862-2.823,3.562-3.575c1.5-1.613,4.516-4.112,4.516-8.223C107.412,12.012,107.739,3.79,99.334,3.79Z" transform="translate(-91.255 -3.423)" fill="url(#linear-gradient-9)"/>
      <path id="Path_40330" data-name="Path 40330" d="M123.051,7.216c0,3.86-2.759,7.777-3.79,9.4s-1.191,3.111-2.056,3.677a.694.694,0,0,1-.71,0c-.863-.567-1.026-2.06-2.054-3.677s-3.79-5.542-3.79-9.4C110.66,2.731,113.6,0,116.852,0S123.046,2.731,123.051,7.216Z" transform="translate(-108.773 0)" fill="#a1f176"/>
      <path id="Path_40331" data-name="Path 40331" d="M136.564,7.216a34.751,34.751,0,0,1-1.7,9.4c-.463,1.619-.484,3.111-.871,3.677a.28.28,0,0,1-.425,0c-.387-.567-.408-2.06-.871-3.677a34.826,34.826,0,0,1-1.7-9.4C131,2.731,132.32,0,133.781,0S136.561,2.731,136.564,7.216Z" transform="translate(-125.724 0)" fill="url(#linear-gradient-10)"/>
      <path id="Path_40332" data-name="Path 40332" d="M146.811,178.082c-1.622,0-1.371-1.652-1.371-1.652h2.743S148.433,178.082,146.811,178.082Z" transform="translate(-138.756 -155.327)" fill="url(#linear-gradient-11)"/>
      <ellipse id="Ellipse_696" data-name="Ellipse 696" cx="1.372" cy="0.291" rx="1.372" ry="0.291" transform="translate(6.683 20.812)" fill="#44a215"/>
    </g>
    <path id="Path_40339" data-name="Path 40339" d="M43.976,5.273a8,8,0,0,1,11.048,0l29.533,28.19A8,8,0,0,1,79.033,47.25H19.967a8,8,0,0,1-5.524-13.787Z" transform="translate(-4.5 57.375)" fill="url(#linear-gradient-12)"/>
  </g>
</svg>
