<svg xmlns="http://www.w3.org/2000/svg" xmlns:xlink="http://www.w3.org/1999/xlink" width="282" height="327.18" viewBox="0 0 282 327.18"><defs><style>.a{fill:#f2f2f2;}.b{fill:#fff;}.c{fill:#e6e6e6;}.d{fill:#247209;}.e{fill:#ccc;}.f{filter:url(#e);}.g{filter:url(#c);}.h{filter:url(#a);}</style><filter id="a" x="0" y="0" width="199.168" height="258.642" filterUnits="userSpaceOnUse"><feOffset dy="3" input="SourceAlpha"/><feGaussianBlur stdDeviation="3" result="b"/><feFlood flood-opacity="0.122"/><feComposite operator="in" in2="b"/><feComposite in="SourceGraphic"/></filter><filter id="c" x="61.304" y="52.612" width="195.508" height="254.982" filterUnits="userSpaceOnUse"><feOffset dy="3" input="SourceAlpha"/><feGaussianBlur stdDeviation="3" result="d"/><feFlood flood-opacity="0.122"/><feComposite operator="in" in2="d"/><feComposite in="SourceGraphic"/></filter><filter id="e" x="197" y="242.18" width="85" height="85" filterUnits="userSpaceOnUse"><feOffset dy="3" input="SourceAlpha"/><feGaussianBlur stdDeviation="3" result="f"/><feFlood flood-opacity="0.122"/><feComposite operator="in" in2="f"/><feComposite in="SourceGraphic"/></filter></defs><g transform="translate(9 6)"><g class="h" transform="matrix(1, 0, 0, 1, -9, -6)"><path class="a" d="M486.22,112.5H316.947A5.954,5.954,0,0,0,311,118.447V347.194a5.954,5.954,0,0,0,5.947,5.947H486.22a5.954,5.954,0,0,0,5.947-5.947V118.447a5.954,5.954,0,0,0-5.947-5.947Z" transform="translate(-302 -106.5)"/></g><path class="b" d="M330.585,128.5a4.156,4.156,0,0,0-4.085,4.214V350.288a4.156,4.156,0,0,0,4.085,4.214H489.4a4.156,4.156,0,0,0,4.085-4.215V132.714A4.156,4.156,0,0,0,489.4,128.5Z" transform="translate(-319.408 -121.18)"/><path class="c" d="M350.245,150.5a2.941,2.941,0,0,0-2.745,3.1v29.946a2.941,2.941,0,0,0,2.745,3.1H492.526a2.941,2.941,0,0,0,2.745-3.1V153.6a2.941,2.941,0,0,0-2.745-3.1Z" transform="translate(-330.801 -133.115)"/><path class="c" d="M350.245,261.25a2.788,2.788,0,0,0-2.745,2.824V328.08a2.788,2.788,0,0,0,2.745,2.824H492.525a2.788,2.788,0,0,0,2.745-2.824V264.074a2.788,2.788,0,0,0-2.745-2.824Z" transform="translate(-330.801 -193.198)"/><rect class="b" width="112.544" height="6.405" transform="translate(34.312 21.617)"/><rect class="b" width="112.544" height="2.974" transform="translate(34.541 35.113)"/><rect class="b" width="112.544" height="2.974" transform="translate(34.541 40.374)"/><rect class="b" width="112.544" height="2.974" transform="translate(34.541 45.635)"/><path class="b" d="M443.365,349.647h51.793a1.667,1.667,0,0,0,1.179-2.846l-33.148-33.148a1.669,1.669,0,0,0-2.358,0l-8.243,8.243a3.5,3.5,0,0,1-4.946,0l-25.819-25.819a1.669,1.669,0,0,0-2.358,0l-50.5,50.5a1.667,1.667,0,0,0,1.179,2.846h73.282Z" transform="translate(-342.184 -211.827)"/><circle class="b" cx="6.405" cy="6.405" r="6.405" transform="translate(33.168 76.745)"/><path class="c" d="M350.245,446.25a2.788,2.788,0,0,0-2.745,2.824V513.08a2.788,2.788,0,0,0,2.745,2.824H492.525a2.788,2.788,0,0,0,2.745-2.824V449.073a2.788,2.788,0,0,0-2.745-2.824Z" transform="translate(-330.801 -293.561)"/><path class="b" d="M443.365,534.648h51.793a1.667,1.667,0,0,0,1.179-2.846l-33.148-33.148a1.67,1.67,0,0,0-2.358,0l-8.243,8.243a3.5,3.5,0,0,1-4.946,0l-25.818-25.819a1.67,1.67,0,0,0-2.358,0l-50.5,50.495a1.668,1.668,0,0,0,1.179,2.846h73.282Z" transform="translate(-342.184 -312.191)"/><circle class="b" cx="6.405" cy="6.405" r="6.405" transform="translate(33.168 161.381)"/><g class="g" transform="matrix(1, 0, 0, 1, -9, -6)"><path class="c" d="M449.117,227.5A4.122,4.122,0,0,0,445,231.617V460.365a4.122,4.122,0,0,0,4.117,4.117H618.39a4.122,4.122,0,0,0,4.117-4.117V231.617a4.122,4.122,0,0,0-4.117-4.117Z" transform="translate(-374.7 -168.89)"/></g><path class="b" d="M460.085,241.5A4.156,4.156,0,0,0,456,245.714V463.288a4.156,4.156,0,0,0,4.085,4.214H618.9a4.156,4.156,0,0,0,4.085-4.214V245.714A4.156,4.156,0,0,0,618.9,241.5Z" transform="translate(-389.663 -182.483)"/><path class="d" d="M517.08,310.683a1.832,1.832,0,0,0-1.83,1.83v8.4a1.832,1.832,0,0,0,1.83,1.83H625.049a1.832,1.832,0,0,0,1.83-1.83v-8.4a1.832,1.832,0,0,0-1.83-1.83Z" transform="translate(-421.807 -220.015)"/><path class="e" d="M517.208,371.439a.458.458,0,0,0-.458.458v3.279a.458.458,0,0,0,.458.457h109.8a.458.458,0,0,0,.458-.457V371.9a.458.458,0,0,0-.458-.458Z" transform="translate(-422.621 -252.976)"/><path class="e" d="M517.208,394.734a.458.458,0,0,0-.458.458v3.279a.458.458,0,0,0,.458.457h109.8a.458.458,0,0,0,.458-.457v-3.279a.458.458,0,0,0-.458-.458Z" transform="translate(-422.621 -265.614)"/><path class="e" d="M517.208,418.029a.458.458,0,0,0-.458.458v3.279a.458.458,0,0,0,.458.457h109.8a.458.458,0,0,0,.458-.457v-3.279a.458.458,0,0,0-.458-.458Z" transform="translate(-422.621 -278.251)"/><path class="e" d="M516.708,464.561a.458.458,0,0,0-.458.457V468.3a.458.458,0,0,0,.458.458h109.8a.458.458,0,0,0,.457-.458v-3.279a.458.458,0,0,0-.457-.457Z" transform="translate(-422.349 -303.495)"/><path class="e" d="M516.708,487.856a.458.458,0,0,0-.458.457v3.279a.458.458,0,0,0,.458.458h109.8a.458.458,0,0,0,.457-.458v-3.279a.458.458,0,0,0-.457-.457Z" transform="translate(-422.349 -316.133)"/><path class="e" d="M516.708,511.15a.458.458,0,0,0-.458.457v3.279a.458.458,0,0,0,.458.458h109.8a.458.458,0,0,0,.457-.458v-3.279a.458.458,0,0,0-.457-.457Z" transform="translate(-422.349 -328.77)"/><path class="e" d="M516.708,534.561a.458.458,0,0,0-.458.457V538.3a.458.458,0,0,0,.458.458h109.8a.458.458,0,0,0,.457-.457v-3.279a.458.458,0,0,0-.457-.457Z" transform="translate(-422.349 -341.471)"/><path class="e" d="M516.708,557.855a.458.458,0,0,0-.458.458v3.279a.458.458,0,0,0,.458.457h109.8a.458.458,0,0,0,.457-.457v-3.279a.458.458,0,0,0-.457-.458Z" transform="translate(-422.349 -354.108)"/><path class="e" d="M516.708,581.15a.458.458,0,0,0-.458.458v3.279a.458.458,0,0,0,.458.457h109.8a.458.458,0,0,0,.457-.457v-3.279a.458.458,0,0,0-.457-.458Z" transform="translate(-422.349 -366.745)"/><path class="e" d="M516.708,604.561a.458.458,0,0,0-.458.458V608.3a.458.458,0,0,0,.458.458h109.8a.458.458,0,0,0,.457-.458v-3.279a.458.458,0,0,0-.457-.458Z" transform="translate(-422.349 -379.446)"/><path class="e" d="M516.708,627.855a.458.458,0,0,0-.458.458v3.279a.458.458,0,0,0,.458.457h109.8a.458.458,0,0,0,.457-.457v-3.279a.458.458,0,0,0-.457-.458Z" transform="translate(-422.349 -392.083)"/><path class="e" d="M516.708,651.15a.458.458,0,0,0-.458.458v3.279a.458.458,0,0,0,.458.457h109.8a.458.458,0,0,0,.457-.457v-3.279a.458.458,0,0,0-.457-.458Z" transform="translate(-422.349 -404.721)"/><g class="f" transform="matrix(1, 0, 0, 1, -9, -6)"><circle class="d" cx="33.5" cy="33.5" r="33.5" transform="translate(206 248.18)"/></g><path class="b" d="M486.19,599.414l-10-12.852,5.813-4.522,4.733,6.086,15.989-16.878,5.347,5.065Z" transform="translate(-258.338 -309.905)"/></g></svg>