<svg xmlns="http://www.w3.org/2000/svg" width="392.557" height="127.348" viewBox="0 0 392.557 127.348"><defs><style>.a,.c{fill:none;}.a{stroke:#f44336;stroke-dasharray:10 10;}.a,.b,.c{stroke-linecap:round;stroke-linejoin:round;stroke-width:3px;}.b,.d{fill:#f44336;}.b{stroke:#fee8e6;}.c{stroke:#fff;}</style></defs><g transform="translate(-544.718 -39.494)"><g transform="translate(743 267.5)"><path class="a" d="M122.744-261.853s156.107-25,177.217-62.776-56.109-39.443-81.109-3.889-27.5,57.445,34.306,54.945S346.236-292.8,346.236-292.8" transform="translate(-252 127.612)"/></g><g transform="matrix(0.978, 0.208, -0.208, 0.978, 43.981, -105.356)"><g transform="translate(531.403 103.896) rotate(-21)"><path class="b" d="M32.866,2H9.773A5.773,5.773,0,0,0,4,7.773V53.959a5.773,5.773,0,0,0,5.773,5.773H44.413a5.773,5.773,0,0,0,5.773-5.773V19.32Z" transform="translate(0)"/><path class="b" d="M14,2V19.32H31.32" transform="translate(18.866)"/></g><g transform="translate(551.769 121.612) rotate(-21)"><path class="c" d="M10,21a1,1,0,1,1-1-1A1,1,0,0,1,10,21Z"/><path class="c" d="M21,21a1,1,0,1,1-1-1A1,1,0,0,1,21,21Z"/><path class="c" d="M1,1H5L7.68,14.39a2,2,0,0,0,2,1.61H19.4a2,2,0,0,0,2-1.61L23,6H6"/></g></g><path class="d" d="M39.664,0H4.76A4.88,4.88,0,0,0,0,4.76V46.01a4.88,4.88,0,0,0,4.76,4.76h34.9a4.88,4.88,0,0,0,4.76-4.76V4.76A4.88,4.88,0,0,0,39.664,0ZM12.692,43.154a1.365,1.365,0,0,1-1.269,1.269H7.615a1.365,1.365,0,0,1-1.269-1.269V39.347a1.365,1.365,0,0,1,1.269-1.269h3.808a1.365,1.365,0,0,1,1.269,1.269v3.808Zm0-12.692a1.365,1.365,0,0,1-1.269,1.269H7.615a1.365,1.365,0,0,1-1.269-1.269V26.654a1.365,1.365,0,0,1,1.269-1.269h3.808a1.365,1.365,0,0,1,1.269,1.269v3.808ZM25.385,43.154a1.365,1.365,0,0,1-1.269,1.269H20.308a1.365,1.365,0,0,1-1.269-1.269V39.347a1.365,1.365,0,0,1,1.269-1.269h3.808a1.365,1.365,0,0,1,1.269,1.269Zm0-12.692a1.365,1.365,0,0,1-1.269,1.269H20.308a1.365,1.365,0,0,1-1.269-1.269V26.654a1.365,1.365,0,0,1,1.269-1.269h3.808a1.365,1.365,0,0,1,1.269,1.269ZM38.077,43.154a1.365,1.365,0,0,1-1.269,1.269H33a1.365,1.365,0,0,1-1.269-1.269v-16.5A1.365,1.365,0,0,1,33,25.385h3.808a1.365,1.365,0,0,1,1.269,1.269v16.5Zm0-25.385a1.365,1.365,0,0,1-1.269,1.269H7.615a1.365,1.365,0,0,1-1.269-1.269V7.615A1.365,1.365,0,0,1,7.615,6.346H36.808a1.365,1.365,0,0,1,1.269,1.269Z" transform="translate(843.564 76.705) rotate(-11)"/><path class="d" d="M34.174,0,19.445,14.584,14.584,9.722,0,24.452l4.861,4.861,9.722-9.868,4.861,4.861L38.89,4.861ZM0,34.029V38.89H38.89V34.029Z" transform="translate(891.678 65.279) rotate(-11)"/></g></svg>