<svg xmlns="http://www.w3.org/2000/svg" xmlns:xlink="http://www.w3.org/1999/xlink" width="356" height="236" viewBox="0 0 356 236"><defs><style>.a{fill:url(#a);}.b{fill:#343333;}.ai,.c{fill:none;}.d{fill:url(#d);}.e{clip-path:url(#g);}.f{fill:#f5f5f6;}.g{fill:rgba(216,216,216,0.03);}.h{fill:#fafbfd;}.i{fill:url(#p);}.j{fill:url(#r);}.k{fill:url(#s);}.l{opacity:0.6;fill:url(#v);}.m{fill:url(#w);}.n{fill:url(#z);}.o{fill:url(#aa);}.p{fill:url(#ad);}.q{fill:url(#am);}.r{clip-path:url(#ar);}.s{fill:rgba(255,255,255,0.1);}.t{clip-path:url(#as);}.u{fill:#323234;}.v{fill:url(#av);}.w{clip-path:url(#bb);}.x{fill:#bee5ff;}.y{fill:#75c8ff;}.z{fill:#3358b6;}.aa{fill:#00154f;}.ab{fill:#101010;}.ac{fill:#6fcfee;}.ad{fill:#272727;}.ae{fill:#ff4d2f;}.af,.ah{fill:#fff;}.ag{fill:#42c565;}.ah{font-size:18px;font-family:Nunito-SemiBold, Nunito;font-weight:600;}.ai{stroke:#2bc5f4;stroke-linecap:round;stroke-linejoin:round;stroke-width:2px;}.aj{filter:url(#az);}.ak{filter:url(#aw);}.al{filter:url(#at);}.am{filter:url(#ap);}.an{filter:url(#an);}.ao{filter:url(#aj);}.ap{filter:url(#af);}.aq{filter:url(#ab);}.ar{filter:url(#x);}.as{filter:url(#n);}.at{filter:url(#l);}.au{filter:url(#j);}.av{filter:url(#h);}.aw{filter:url(#e);}.ax{filter:url(#b);}</style><linearGradient id="a" x1="-0.164" y1="-0.159" x2="1.148" y2="1.145" gradientUnits="objectBoundingBox"><stop offset="0" stop-color="#fff"/><stop offset="1" stop-color="#f1fbff"/></linearGradient><filter id="b" x="145.37" y="48.83" width="64.618" height="9.607" filterUnits="userSpaceOnUse"><feOffset dy="2" input="SourceAlpha"/><feGaussianBlur stdDeviation="1" result="c"/><feFlood flood-color="#fff"/><feComposite operator="in" in2="c"/><feComposite in="SourceGraphic"/></filter><radialGradient id="d" cx="0.5" cy="0" r="1" gradientUnits="objectBoundingBox"><stop offset="0" stop-color="#2a4893"/><stop offset="1" stop-color="#213054"/></radialGradient><filter id="e" x="115.012" y="45.33" width="13.509" height="13.509" filterUnits="userSpaceOnUse"><feOffset input="SourceAlpha"/><feGaussianBlur stdDeviation="1.5" result="f"/><feFlood flood-opacity="0.4"/><feComposite operator="in" in2="f"/><feComposite in="SourceGraphic"/></filter><clipPath id="g"><path class="a" d="M16,0H356a0,0,0,0,1,0,0V236a0,0,0,0,1,0,0H16A16,16,0,0,1,0,220V16A16,16,0,0,1,16,0Z" transform="translate(0 -0.004)"/></clipPath><filter id="h" x="-39.319" y="591.617" width="434.618" height="159.365" filterUnits="userSpaceOnUse"><feOffset dy="3" input="SourceAlpha"/><feGaussianBlur stdDeviation="25" result="i"/><feFlood flood-opacity="0.122"/><feComposite operator="in" in2="i"/><feComposite in="SourceGraphic"/></filter><filter id="j" x="10.482" y="637.303" width="335.246" height="67.31" filterUnits="userSpaceOnUse"><feOffset dy="3" input="SourceAlpha"/><feGaussianBlur stdDeviation="10" result="k"/><feFlood flood-opacity="0.078"/><feComposite operator="in" in2="k"/><feComposite in="SourceGraphic"/></filter><filter id="l" x="30.583" y="649.173" width="295.271" height="42.655" filterUnits="userSpaceOnUse"><feOffset dy="3" input="SourceAlpha"/><feGaussianBlur stdDeviation="6.5" result="m"/><feFlood flood-opacity="0.239"/><feComposite operator="in" in2="m"/><feComposite in="SourceGraphic"/></filter><filter id="n" x="21.519" y="16.944" width="313.4" height="645.988" filterUnits="userSpaceOnUse"><feOffset input="SourceAlpha"/><feGaussianBlur result="o"/><feFlood flood-color="#fff" flood-opacity="0.451"/><feComposite operator="in" in2="o"/><feComposite in="SourceGraphic"/></filter><linearGradient id="p" x1="0.5" y1="-0.008" x2="0.5" y2="1" gradientUnits="objectBoundingBox"><stop offset="0" stop-color="#fff" stop-opacity="0"/><stop offset="0.031" stop-color="#fff"/><stop offset="0.968" stop-color="#fff"/><stop offset="1" stop-color="#f1f3f4" stop-opacity="0"/></linearGradient><linearGradient id="r" y1="0.5" x2="0.949" y2="0.5" gradientUnits="objectBoundingBox"><stop offset="0" stop-color="#969696"/><stop offset="0.33" stop-color="#bebfc1"/><stop offset="0.927" stop-color="#e0e1e3"/><stop offset="1" stop-color="#ebecee"/></linearGradient><linearGradient id="s" x1="1" x2="0.051" xlink:href="#r"/><linearGradient id="v" x1="0.5" x2="0.5" y2="1" gradientUnits="objectBoundingBox"><stop offset="0" stop-color="#2c2c2c"/><stop offset="1" stop-color="#1d1d1d"/></linearGradient><linearGradient id="w" x1="0.5" x2="0.5" y2="1" gradientUnits="objectBoundingBox"><stop offset="0" stop-color="#afb0b1"/><stop offset="0.159" stop-color="#dddedf"/><stop offset="0.774" stop-color="#f4f5f6"/><stop offset="0.774" stop-color="#f3f4f5"/><stop offset="0.877" stop-color="#dfe0e1"/><stop offset="1" stop-color="#4d4e4f"/></linearGradient><filter id="x" x="13" y="86.51" width="8.705" height="28.545" filterUnits="userSpaceOnUse"><feOffset dx="2" input="SourceAlpha"/><feGaussianBlur stdDeviation="1" result="y"/><feFlood flood-opacity="0.102"/><feComposite operator="in" in2="y"/><feComposite in="SourceGraphic"/></filter><linearGradient id="z" x1="0.5" x2="0.5" y2="0.983" gradientUnits="objectBoundingBox"><stop offset="0" stop-color="#fffcfc"/><stop offset="0.021" stop-color="#6e6f6f"/><stop offset="0.142" stop-color="#f7f8f9"/><stop offset="0.849" stop-color="#f4f5f6"/><stop offset="0.894" stop-color="#a4a6a8"/><stop offset="1" stop-color="#707579"/></linearGradient><linearGradient id="aa" x1="0.5" x2="0.5" y2="1" gradientUnits="objectBoundingBox"><stop offset="0" stop-color="#afb0b1"/><stop offset="0.082" stop-color="#eff0f1"/><stop offset="0.159" stop-color="#dddedf"/><stop offset="0.774" stop-color="#f4f5f6"/><stop offset="0.774" stop-color="#f3f4f5"/><stop offset="0.877" stop-color="#dfe0e1"/><stop offset="0.953" stop-color="#fff"/><stop offset="1" stop-color="#4d4e4f"/></linearGradient><filter id="ab" x="13.902" y="135.208" width="7.804" height="48.385" filterUnits="userSpaceOnUse"><feOffset dx="2" input="SourceAlpha"/><feGaussianBlur stdDeviation="1" result="ac"/><feFlood flood-opacity="0.102"/><feComposite operator="in" in2="ac"/><feComposite in="SourceGraphic"/></filter><linearGradient id="ad" x1="0.5" x2="0.5" y2="0.983" gradientUnits="objectBoundingBox"><stop offset="0" stop-color="#fffcfc"/><stop offset="0.021" stop-color="#2e2f2f"/><stop offset="0.047" stop-color="#383838"/><stop offset="0.113" stop-color="#e4e5e6"/><stop offset="0.142" stop-color="#f7f8f9"/><stop offset="0.849" stop-color="#f4f5f6"/><stop offset="0.894" stop-color="#8d8e8f"/><stop offset="0.98" stop-color="#404142"/><stop offset="1" stop-color="#fff"/></linearGradient><filter id="af" x="13.902" y="187.513" width="7.804" height="47.483" filterUnits="userSpaceOnUse"><feOffset dx="2" input="SourceAlpha"/><feGaussianBlur stdDeviation="1" result="ag"/><feFlood flood-opacity="0.102"/><feComposite operator="in" in2="ag"/><feComposite in="SourceGraphic"/></filter><filter id="aj" x="338.259" y="134.796" width="8.741" height="48.914" filterUnits="userSpaceOnUse"><feOffset dx="2" input="SourceAlpha"/><feGaussianBlur stdDeviation="1" result="ak"/><feFlood flood-opacity="0.102"/><feComposite operator="in" in2="ak"/><feComposite in="SourceGraphic"/></filter><radialGradient id="am" cx="0.168" cy="0.113" r="1.016" gradientUnits="objectBoundingBox"><stop offset="0.119" stop-color="#fafafa"/><stop offset="0.142" stop-color="#bcbdbf"/><stop offset="0.161" stop-color="#636466"/><stop offset="0.281" stop-color="#5e5f61"/><stop offset="0.301" stop-color="#c5c6c8"/><stop offset="0.379" stop-color="#dedfe1"/><stop offset="0.401" stop-color="#fff"/><stop offset="0.498" stop-color="#f7f7f7"/><stop offset="0.513" stop-color="#acadaf"/><stop offset="0.528" stop-color="#444547"/><stop offset="0.615" stop-color="#414244"/><stop offset="0.63" stop-color="#757678"/><stop offset="0.731" stop-color="#707173"/><stop offset="0.752" stop-color="#fff"/><stop offset="0.793" stop-color="#fefefe"/><stop offset="0.8" stop-color="#bcbdbf"/><stop offset="0.876" stop-color="#acadaf"/><stop offset="0.937" stop-color="#6f7072"/><stop offset="0.962" stop-color="#bcbdbf"/><stop offset="0.969" stop-color="#f3f3f3"/></radialGradient><filter id="an" x="152.584" y="604.347" width="50.189" height="50.189" filterUnits="userSpaceOnUse"><feOffset dy="2" input="SourceAlpha"/><feGaussianBlur stdDeviation="1" result="ao"/><feFlood flood-color="#fff" flood-opacity="0.702"/><feComposite operator="in" in2="ao"/><feComposite in="SourceGraphic"/></filter><filter id="ap" x="145.37" y="48.83" width="64.618" height="9.607" filterUnits="userSpaceOnUse"><feOffset dy="2" input="SourceAlpha"/><feGaussianBlur stdDeviation="1" result="aq"/><feFlood flood-color="#fff"/><feComposite operator="in" in2="aq"/><feComposite in="SourceGraphic"/></filter><clipPath id="ar"><g class="ax" transform="matrix(1, 0, 0, 1, 0, 0)"><rect class="b" width="58.618" height="3.607" rx="1.804" transform="translate(0)"/></g></clipPath><clipPath id="as"><rect class="c" width="58.618" height="3.607" rx="1.804" transform="translate(0)"/></clipPath><filter id="at" x="175.424" y="29.99" width="6.313" height="8.313" filterUnits="userSpaceOnUse"><feOffset dy="2" input="SourceAlpha"/><feGaussianBlur result="au"/><feFlood flood-color="#fff"/><feComposite operator="in" in2="au"/><feComposite in="SourceGraphic"/></filter><radialGradient id="av" cx="1.211" cy="1.341" r="1.007" gradientUnits="objectBoundingBox"><stop offset="0" stop-color="#fff"/><stop offset="1" stop-color="#252525"/></radialGradient><filter id="aw" x="116.807" y="46.223" width="9.92" height="11.92" filterUnits="userSpaceOnUse"><feOffset dy="2" input="SourceAlpha"/><feGaussianBlur result="ax"/><feFlood flood-color="#fff"/><feComposite operator="in" in2="ax"/><feComposite in="SourceGraphic"/></filter><filter id="az" x="115.012" y="45.33" width="13.509" height="13.509" filterUnits="userSpaceOnUse"><feOffset input="SourceAlpha"/><feGaussianBlur stdDeviation="1.5" result="ba"/><feFlood flood-opacity="0.4"/><feComposite operator="in" in2="ba"/><feComposite in="SourceGraphic"/></filter><clipPath id="bb"><g class="aw" transform="matrix(1, 0, 0, 1, 0, 0)"><circle class="d" cx="2.255" cy="2.255" r="2.255" transform="translate(0 0)"/></g></clipPath></defs><g class="e" transform="translate(0 0.004)"><g transform="translate(14 11.458)"><g transform="translate(21.681 652.156)"><g class="av" transform="matrix(1, 0, 0, 1, -35.68, -663.62)"><path class="c" d="M142.309,9.365c78.6,0,142.309-2.326,142.309-5.2S197.35,0,142.309,0,0,1.3,0,4.17,63.714,9.365,142.309,9.365Z" transform="translate(35.68 663.62)"/></g><g class="au" transform="matrix(1, 0, 0, 1, -35.68, -663.62)"><path class="c" d="M137.623,7.31c76.007,0,137.623-1.815,137.623-4.055S190.851,0,137.623,0,0,1.015,0,3.255,61.616,7.31,137.623,7.31Z" transform="translate(40.48 664.3)"/></g><g class="at" transform="matrix(1, 0, 0, 1, -35.68, -663.62)"><path class="c" d="M128.136,3.655c70.767,0,128.136-.908,128.136-2.027S177.694,0,128.136,0,0,.508,0,1.627,57.368,3.655,128.136,3.655Z" transform="translate(50.08 665.67)"/></g></g><g transform="translate(0 0)"><g transform="translate(2.036)"><path class="f" d="M47.567,0H276.8c28.417,0,47.567,19.152,47.567,47.572V609.38c0,28.42-19.15,47.572-47.567,47.572H47.567C19.15,656.953,0,637.8,0,609.38V47.572C0,19.152,19.15,0,47.567,0Z" transform="translate(0 0)"/><path class="g" d="M47.567,0H276.8c28.417,0,47.567,19.152,47.567,47.572V609.38c0,28.42-19.15,47.572-47.567,47.572H47.567C19.15,656.953,0,637.8,0,609.38V47.572C0,19.152,19.15,0,47.567,0Z" transform="translate(0 0)"/></g><g class="as" transform="matrix(1, 0, 0, 1, -14, -11.46)"><path class="h" d="M42.119,0C16.711,0,0,16.715,0,42.13V603.859c0,25.414,16.711,42.13,42.119,42.13H271.281c25.408,0,42.119-16.715,42.119-42.13V42.13C313.4,16.715,296.689,0,271.281,0Z" transform="translate(21.52 16.94)"/></g><g transform="translate(9.574 12.343)"><path class="i" d="M1.279,631.554h0a34.38,34.38,0,0,0,6.062-6.028,36.222,36.222,0,0,0,4.494-7.489,41.648,41.648,0,0,0,2.792-8.815,50.911,50.911,0,0,0,.96-10.01V33.285a50.634,50.634,0,0,0-1.049-10.442,41.157,41.157,0,0,0-3.047-9.129,35.845,35.845,0,0,0-4.9-7.665A34.41,34.41,0,0,0,0,0,34.912,34.912,0,0,1,8.1,5.922a34.787,34.787,0,0,1,6.048,7.992,39.447,39.447,0,0,1,3.782,9.852,49.233,49.233,0,0,1,1.307,11.5V597a49.454,49.454,0,0,1-1.217,11.119,39.833,39.833,0,0,1-3.525,9.591,35,35,0,0,1-5.645,7.875A34.641,34.641,0,0,1,1.279,631.554Z" transform="translate(290.048 0)"/><path class="i" d="M17.961,631.554h0a34.38,34.38,0,0,1-6.062-6.028,36.222,36.222,0,0,1-4.494-7.489,41.648,41.648,0,0,1-2.792-8.815,50.911,50.911,0,0,1-.96-10.01V33.285A50.634,50.634,0,0,1,4.7,22.843a41.157,41.157,0,0,1,3.047-9.129,35.845,35.845,0,0,1,4.9-7.665A34.41,34.41,0,0,1,19.241,0,34.484,34.484,0,0,0,5.089,13.914a39.447,39.447,0,0,0-3.782,9.852A49.233,49.233,0,0,0,0,35.269V597a49.454,49.454,0,0,0,1.217,11.119,39.833,39.833,0,0,0,3.525,9.591,35,35,0,0,0,5.645,7.875A34.641,34.641,0,0,0,17.961,631.554Z" transform="translate(0 0)"/></g><g transform="translate(1.804 48.289)"><rect class="j" width="6.313" height="8.116" transform="translate(0 0)"/><rect class="k" width="4.509" height="8.116" transform="translate(319.242 0)"/><rect class="j" width="6.313" height="8.116" transform="translate(0 552.811)"/><rect class="k" width="4.509" height="8.116" transform="translate(319.242 552.811)"/></g><g transform="translate(142.975 655.354)"><path class="l" d="M3.441,0H41.4a6.26,6.26,0,0,1,3.375,1.6H0S1.934-.017,3.441,0Z" transform="translate(0 0)"/></g><g transform="translate(0 78.048)"><g class="ar" transform="matrix(1, 0, 0, 1, -14, -89.51)"><path class="m" d="M2.705,0h0a0,0,0,0,1,0,0V22.545a0,0,0,0,1,0,0h0A2.705,2.705,0,0,1,0,19.84V2.705A2.705,2.705,0,0,1,2.705,0Z" transform="translate(14 89.51)"/></g><rect class="n" width="0.902" height="21.644" rx="0.451" transform="translate(0.902 0.902)"/></g><g transform="translate(0.902 126.746)"><g class="aq" transform="matrix(1, 0, 0, 1, -14.9, -138.21)"><path class="o" d="M1.8,0h0a0,0,0,0,1,0,0V42.385a0,0,0,0,1,0,0h0a1.8,1.8,0,0,1-1.8-1.8V1.8A1.8,1.8,0,0,1,1.8,0Z" transform="translate(14.9 138.21)"/></g><rect class="p" height="41.483" transform="translate(0.902 0)"/></g><g transform="translate(0.902 179.051)"><g class="ap" transform="matrix(1, 0, 0, 1, -14.9, -190.51)"><path class="o" d="M1.8,0h0a0,0,0,0,1,0,0V41.483a0,0,0,0,1,0,0h0A1.8,1.8,0,0,1,0,39.68V1.8A1.8,1.8,0,0,1,1.8,0Z" transform="translate(14.9 190.51)"/></g><rect class="p" height="41.483" transform="translate(0.902 0)"/></g><g transform="translate(325.259 126.334)"><g class="ao" transform="matrix(1, 0, 0, 1, -339.26, -137.8)"><path class="o" d="M-9.259,1.2A1.138,1.138,0,0,0-10.531.073L-11,.129a1.138,1.138,0,0,0-1,1.13V41.786a1.138,1.138,0,0,0,1,1.13l.466.056a1.138,1.138,0,0,0,1.273-1.13Z" transform="translate(351.26 137.73)"/></g><rect class="p" width="0.902" height="42.385" rx="0.451" transform="translate(1.197 0.412)"/></g><g transform="translate(20.082 18.529)"><g class="an" transform="matrix(1, 0, 0, 1, -34.08, -29.99)"><path class="q" d="M0,22.095A22.094,22.094,0,1,1,22.094,44.189,22.094,22.094,0,0,1,0,22.095Z" transform="translate(155.58 605.35)"/></g><g transform="translate(114.288 19.84)"><g class="am" transform="matrix(1, 0, 0, 1, -148.37, -49.83)"><rect class="b" width="58.618" height="3.607" rx="1.804" transform="translate(148.37 49.83)"/></g><g class="r" transform="translate(0 0)"><path class="s" d="M0,4.509V4.058H58.618v.451Zm0-.9V3.156H58.618v.451ZM0,2.48V2.029H58.618V2.48Zm0-.9V1.127H58.618v.451ZM0,.451V0H58.618V.451Z" transform="translate(-0.902)"/><path class="s" d="M57.254,5.411V0h.462V5.411Zm-1.154,0V0h.462V5.411Zm-1.154,0V0h.462V5.411Zm-1.385,0V0h.462V5.411Zm-1.154,0V0h.462V5.411Zm-1.385,0V0h.462V5.411Zm-1.154,0V0h.462V5.411Zm-1.385,0V0h.462V5.411Zm-1.385,0V0h.462V5.411Zm-1.154,0V0H46.4V5.411Zm-1.385,0V0h.462V5.411Zm-1.154,0V0h.462V5.411Zm-1.385,0V0h.462V5.411Zm-1.154,0V0h.462V5.411Zm-1.385,0V0h.462V5.411Zm-1.154,0V0h.462V5.411Zm-1.385,0V0H37.4V5.411Zm-1.154,0V0h.462V5.411Zm-1.385,0V0h.462V5.411Zm-1.154,0V0h.462V5.411Zm-1.385,0V0h.462V5.411Zm-1.154,0V0h.462V5.411Zm-1.385,0V0h.462V5.411Zm-1.154,0V0h.462V5.411Zm-1.385,0V0h.462V5.411Zm-1.154,0V0h.462V5.411Zm-1.385,0V0H24.7V5.411Zm-1.385,0V0h.462V5.411Zm-1.154,0V0h.462V5.411Zm-1.385,0V0h.462V5.411Zm-1.154,0V0h.462V5.411Zm-1.385,0V0h.462V5.411Zm-1.154,0V0h.462V5.411Zm-1.385,0V0H15.7V5.411Zm-1.154,0V0h.462V5.411Zm-1.385,0V0h.462V5.411Zm-1.154,0V0H12V5.411Zm-1.385,0V0h.462V5.411ZM9,5.411V0h.462V5.411Zm-1.385,0V0H8.08V5.411Zm-1.154,0V0h.462V5.411Zm-1.385,0V0h.462V5.411Zm-1.154,0V0h.462V5.411Zm-1.385,0V0H3V5.411Zm-1.154,0V0h.462V5.411ZM0,5.411V0H.462V5.411Z" transform="translate(0.902 -0.902)"/></g><rect class="c" width="58.618" height="3.607" rx="1.804" transform="translate(0 0)"/></g><g class="al" transform="matrix(1, 0, 0, 1, -34.08, -29.99)"><circle class="u" cx="3.156" cy="3.156" r="3.156" transform="translate(175.42 29.99)"/></g><g transform="translate(82.725 16.233)"><g class="ak" transform="matrix(1, 0, 0, 1, -116.81, -46.22)"><circle class="v" cx="4.96" cy="4.96" r="4.96" transform="translate(116.81 46.22)"/></g><g class="aj" transform="matrix(1, 0, 0, 1, -116.81, -46.22)"><circle class="d" cx="2.255" cy="2.255" r="2.255" transform="translate(119.51 49.83)"/></g><g class="w" transform="translate(2.705 3.607)"><circle class="x" transform="translate(0 2.705)"/><circle class="x" transform="translate(0 2.705)"/><circle class="y" transform="translate(4.509 0)"/><circle class="y" transform="translate(4.509 0)"/><ellipse class="z" cx="1.371" cy="0.571" rx="1.371" ry="0.571" transform="matrix(0.875, -0.485, 0.485, 0.875, 0.23, 0.422)"/><circle class="aa" cx="1.371" cy="1.371" r="1.371" transform="translate(1.143 0.991) rotate(-16)"/></g></g><path class="ab" d="M2.284,0h283.7a2.284,2.284,0,0,1,2.284,2.284V506.649a2.284,2.284,0,0,1-2.284,2.284H2.284A2.284,2.284,0,0,1,0,506.649V2.284A2.284,2.284,0,0,1,2.284,0Z" transform="translate(0 55.71)"/></g></g><rect class="ac" width="284.071" height="504.113" transform="translate(22.545 76.245)"/><g transform="translate(39 95.546)"><rect class="ad" width="252.07" height="103" rx="10"/><g transform="translate(16 9.996)"><g transform="translate(0 43)"><g transform="translate(180.07 0.004)"><circle class="ae" cx="20" cy="20" r="20"/><path class="af" d="M12,9a14.911,14.911,0,0,0-4.6.72v3.1a1.008,1.008,0,0,1-.56.9,11.511,11.511,0,0,0-2.66,1.85.982.982,0,0,1-.7.28,1,1,0,0,1-.71-.29L.29,13.08a.956.956,0,0,1-.29-.7,1,1,0,0,1,.29-.71,17.016,17.016,0,0,1,23.42,0,1.014,1.014,0,0,1,0,1.42l-2.48,2.48a1,1,0,0,1-.71.29,1.026,1.026,0,0,1-.7-.28,11.27,11.27,0,0,0-2.67-1.85,1,1,0,0,1-.56-.9V9.73A14.516,14.516,0,0,0,12,9Z" transform="translate(8 9)"/></g><g transform="translate(0 0)"><circle class="ag" cx="20" cy="20" r="20" transform="translate(0 -0.004)"/><path class="af" d="M20.48,17.1a15.124,15.124,0,0,0-3.159-2.114c-.947-.455-1.294-.445-1.964.038-.558.4-.919.778-1.561.637a9.312,9.312,0,0,1-3.136-2.32A9.245,9.245,0,0,1,8.339,10.2c-.136-.647.239-1,.637-1.561.483-.67.5-1.017.038-1.964A14.825,14.825,0,0,0,6.9,3.52c-.689-.689-.844-.539-1.223-.4a6.962,6.962,0,0,0-1.12.6,3.38,3.38,0,0,0-1.345,1.42c-.267.577-.577,1.65,1,4.453a24.848,24.848,0,0,0,4.369,5.827h0l0,0,0,0h0a24.945,24.945,0,0,0,5.827,4.369c2.8,1.575,3.877,1.266,4.453,1a3.322,3.322,0,0,0,1.42-1.345,6.962,6.962,0,0,0,.6-1.12C21.019,17.944,21.173,17.789,20.48,17.1Z" transform="translate(8.007 8.002)"/></g></g><g transform="translate(0 0)"><text class="ah" transform="translate(0 19.996)"><tspan x="0" y="0">+62 999-9999-</tspan></text><g transform="translate(133)"><text class="ah" transform="translate(8 19.996)"><tspan x="0" y="0">1234</tspan></text><rect class="ai" width="60" height="27" rx="5" transform="translate(0 -0.004)"/></g></g></g></g></g></g></svg>