<svg xmlns="http://www.w3.org/2000/svg" width="150" height="150" viewBox="0 0 150 150"><defs><style>.a{fill:#f2ffec;}.b{fill:#6ebe46;}</style></defs><g transform="translate(-806 -378)"><rect class="a" width="150" height="150" rx="10" transform="translate(806 378)"/><path class="b" d="M26.315,21.23A11.531,11.531,0,0,1,31.127,12.5,3.468,3.468,0,0,0,28,10.5H24.783l3.358-2.406a1.739,1.739,0,0,0,.4-2.439L27.529,4.233a1.739,1.739,0,0,0-2.439-.4l-3.5,2.5,1.258-3.347A1.749,1.749,0,0,0,21.819.734L20.179.121a1.749,1.749,0,0,0-2.253,1.028l-2.176,5.8L13.573,1.138A1.749,1.749,0,0,0,11.32.11L9.679.723A1.738,1.738,0,0,0,8.662,2.976L9.92,6.322,6.409,3.829a1.749,1.749,0,0,0-2.439.4L2.953,5.655a1.749,1.749,0,0,0,.4,2.439L6.715,10.5H3.5A3.5,3.5,0,0,0,0,14V52.5A3.5,3.5,0,0,0,3.5,56H21.973A6.95,6.95,0,0,1,21,52.5V28A7,7,0,0,1,26.315,21.23ZM24.5,52.5A3.5,3.5,0,0,0,28,56H45.5V42h-21ZM49,56H66.5A3.5,3.5,0,0,0,70,52.5V42H49ZM66.5,24.5H64.266a8.012,8.012,0,0,0,.481-2.6A7.817,7.817,0,0,0,56.862,14c-5.261,0-8.3,5.217-9.614,8.236C45.925,19.217,42.884,14,37.634,14a7.817,7.817,0,0,0-7.886,7.9,7.733,7.733,0,0,0,.481,2.6H28A3.5,3.5,0,0,0,24.5,28V38.5h21v-14h1.673l.077-.022.077.022H49v14H70V28A3.5,3.5,0,0,0,66.5,24.5Zm-29.749,0a4.113,4.113,0,0,1-.787-.525A2.685,2.685,0,0,1,35,21.9a2.568,2.568,0,0,1,2.636-2.647c2.045,0,3.894,3,4.867,5.25Zm21.787-.525a4.113,4.113,0,0,1-.787.525H51.995c.962-2.22,2.822-5.25,4.867-5.25A2.568,2.568,0,0,1,59.5,21.9,2.685,2.685,0,0,1,58.535,23.975Z" transform="translate(846 425.001)"/></g></svg>