<svg xmlns="http://www.w3.org/2000/svg" xmlns:xlink="http://www.w3.org/1999/xlink" width="361.03" height="227.5" viewBox="0 0 361.03 227.5"><defs><style>.a,.d{stroke:rgba(0,0,0,0);stroke-miterlimit:10;}.a{fill:url(#a);}.b{fill:url(#b);}.c{fill:#6fcfee;}.d{fill:url(#e);}.e{fill:#fff;}.f{fill:#0085cd;}.g{fill:none;stroke:#fff;stroke-linecap:round;stroke-linejoin:round;stroke-width:3px;}.h{fill:url(#j);}.i{fill:url(#m);}.j{fill:#eaeaea;}.k{fill:#272727;}.l{filter:url(#k);}.m{filter:url(#h);}.n{filter:url(#f);}.o{filter:url(#c);}</style><linearGradient id="a" x1="0.5" y1="-0.334" x2="0.5" y2="1" gradientUnits="objectBoundingBox"><stop offset="0" stop-color="#6fcfee"/><stop offset="1" stop-color="#fff" stop-opacity="0"/></linearGradient><linearGradient id="b" x1="0.399" y1="0.468" x2="0.531" y2="0.863" gradientUnits="objectBoundingBox"><stop offset="0" stop-color="#fff"/><stop offset="0.573" stop-color="#e8f6fb"/><stop offset="1" stop-color="#ddf2fa"/></linearGradient><filter id="c" x="20.53" y="63.5" width="134.72" height="116.771" filterUnits="userSpaceOnUse"><feOffset dx="3" dy="3" input="SourceAlpha"/><feGaussianBlur stdDeviation="3" result="d"/><feFlood flood-opacity="0.02"/><feComposite operator="in" in2="d"/><feComposite in="SourceGraphic"/></filter><linearGradient id="e" x1="0.604" y1="0.301" x2="0.87" y2="0.546" gradientUnits="objectBoundingBox"><stop offset="0" stop-color="#f5f5f5"/><stop offset="1" stop-color="#fff"/></linearGradient><filter id="f" x="175.648" y="75.884" width="136.669" height="140.14" filterUnits="userSpaceOnUse"><feOffset dx="-3" dy="3" input="SourceAlpha"/><feGaussianBlur stdDeviation="3" result="g"/><feFlood flood-opacity="0.02"/><feComposite operator="in" in2="g"/><feComposite in="SourceGraphic"/></filter><filter id="h" x="72.53" y="39.5" width="188" height="188" filterUnits="userSpaceOnUse"><feOffset dx="-3" dy="3" input="SourceAlpha"/><feGaussianBlur stdDeviation="3" result="i"/><feFlood flood-opacity="0.02"/><feComposite operator="in" in2="i"/><feComposite in="SourceGraphic"/></filter><linearGradient id="j" x1="1.58" y1="0.102" x2="2.156" y2="1.014" gradientUnits="objectBoundingBox"><stop offset="0" stop-color="#fdfefe"/><stop offset="0.577" stop-color="#f9fafa"/><stop offset="1" stop-color="#f1f2f2"/></linearGradient><filter id="k" x="225.142" y="50.379" width="108.842" height="104.136" filterUnits="userSpaceOnUse"><feOffset dx="-3" dy="3" input="SourceAlpha"/><feGaussianBlur stdDeviation="3" result="l"/><feFlood flood-opacity="0.02"/><feComposite operator="in" in2="l"/><feComposite in="SourceGraphic"/></filter><linearGradient id="m" x1="0.5" x2="0.5" y2="1" gradientUnits="objectBoundingBox"><stop offset="0" stop-color="#565656"/><stop offset="1"/></linearGradient></defs><g transform="translate(-127.321 -96.527)"><path class="a" d="M3.664,139.689C-4.276,96.04.494,48.369,19.9,11.107c59.983-115.19,251.679-115.259,316.188,0C351.679,38.969,359.928,73.722,360,108.384v.921a213.764,213.764,0,0,1-2.212,30.384Z" transform="translate(127.851 172.338)"/><g transform="translate(5.268 9)"><g transform="translate(148.583 173.448) rotate(-9)"><g transform="translate(0 0)"><g class="o" transform="matrix(0.99, 0.16, -0.16, 0.99, -12.76, -89.01)"><path class="b" d="M104.589,76.923C104.808,75.033,108.7,36.9,85.8,14,65.828-5.973,35.543-4.293,16.8,17.229,2.644,33.483-3.045,58.891,1.574,83.376Z" transform="translate(26.53 85.92) rotate(-9)"/></g></g><path class="c" d="M38.485,27.575,1.936,29.328S-2.9,18.322,2.719,9.083C7.749.817,16.825.231,19.208.077,21.575-.076,30.47-.65,36.2,6.547,41.1,12.691,38.485,27.575,38.485,27.575Z" transform="translate(32.894 52.06)"/></g><g class="n" transform="matrix(1, 0, 0, 1, 122.05, 87.53)"><path class="d" d="M520.24,398.469c11.217-6,36.638-8.475,50.871,1.081,25.161,16.893,19.5,58.183,12.808,76.34-4.216,11.437-10.5,44.76-38.473,37.348s-62.361-38.6-73.406-66.994C475.969,440.136,505.28,406.472,520.24,398.469Z" transform="translate(-283.83 -310.78)"/></g><g transform="translate(206.583 133.027)"><g class="m" transform="matrix(1, 0, 0, 1, -84.53, -45.5)"><circle class="e" cx="85" cy="85" r="85" transform="translate(84.53 45.5)"/></g><g transform="translate(39.49 39.5)"><path class="c" d="M74.45,1.5H51.227a2.722,2.722,0,0,0-1.925.806L3.091,48.693a5.455,5.455,0,0,0,0,7.7L25,78.5c2.122,2.122,5.383,3.163,8.527.413L79.087,33.27a2.722,2.722,0,0,0,.806-1.925V6.942A5.442,5.442,0,0,0,74.45,1.5ZM65.432,22.621A6.047,6.047,0,1,1,70.8,17.257,6.044,6.044,0,0,1,65.432,22.621Z" transform="translate(0 0)"/><path class="f" d="M60.764,3.764V26.1a2.722,2.722,0,0,1-.806,1.925L9.033,78.954l1.729,1.729a5.455,5.455,0,0,0,7.7,0l46.21-46.407a2.722,2.722,0,0,0,.806-1.925V9.147A5.446,5.446,0,0,0,60.764,3.764Z" transform="translate(24.04 7.226)"/></g><g transform="translate(62.664 81.112) rotate(-42)"><path class="g" d="M19,5,5,19"/><path class="g" d="M9,6.5A2.5,2.5,0,1,1,6.5,4,2.5,2.5,0,0,1,9,6.5Z"/><path class="g" d="M20,17.5A2.5,2.5,0,1,1,17.5,15,2.5,2.5,0,0,1,20,17.5Z"/></g></g><g transform="matrix(0.996, 0.087, -0.087, 0.996, 366.087, 143.906)"><g class="l" transform="matrix(1, -0.09, 0.09, 1, -248.02, -34.9)"><path class="h" d="M591.722,367.424s-2.1,14.061-.221,24.753,6.039,29.041,21.461,33.413,28.706-6.746,37.263-14.767,14.887-21.872,14.887-21.872,11.963-7.5,9.559-15.571-16.812-4.931-16.812-4.931-4.62-11.975-22.1-16.385-25.9,2.3-25.9,2.3-10.516-9.641-15.852-6.092S591.722,367.424,591.722,367.424Z" transform="matrix(1, 0.09, -0.09, 1, -314.15, -341.27)"/></g><path class="i" d="M644.988,446.9c-.476,1.623.775,8.406,4.574,9.52s9.119-4.132,9.108-5.925-1.11-4.423-5.565-5.73S645.464,445.281,644.988,446.9Z" transform="translate(-623.188 -394.884)"/><path class="j" d="M604.164,358.931c-1.712,1.123-1.352,6.985,1.569,7.937,2.038.665,4.966-1.176,5.223-3.161C611.331,360.8,605.94,357.765,604.164,358.931Z" transform="translate(-597.568 -353.657)"/><path class="j" d="M754.835,407.005c.834,1.87-2.635,6.608-5.608,5.832-2.074-.541-3.544-3.672-2.687-5.481C747.795,404.7,753.969,405.064,754.835,407.005Z" transform="translate(-676.528 -379.46)"/><path class="k" d="M15.1,3.63c-.669.929-2.79,2.825-8.555,2.213S-.488.928.149.044c.288-.4,2.233,2.061,6.6,3S15.47,3.121,15.1,3.63Z" transform="matrix(0.998, -0.07, 0.07, 0.998, 18.7, 64.89)"/><path class="k" d="M2.915,0A2.915,2.915,0,1,1,0,2.915,2.915,2.915,0,0,1,2.915,0Z" transform="translate(20.033 26.269)"/><path class="k" d="M698.444,427.074a2.977,2.977,0,1,1-2.018-3.694A2.977,2.977,0,0,1,698.444,427.074Z" transform="translate(-646.919 -389.279)"/></g></g></g></svg>