<svg xmlns="http://www.w3.org/2000/svg" xmlns:xlink="http://www.w3.org/1999/xlink" width="361.03" height="227.5" viewBox="0 0 361.03 227.5"><defs><style>.a,.b{stroke:rgba(0,0,0,0);stroke-miterlimit:10;}.a{fill:url(#a);}.b{fill:url(#b);}.c{fill:url(#e);}.d{fill:#6fcfee;}.e{fill:url(#h);}.f{fill:url(#k);}.g{fill:#272727;}.h{fill:#eaeaea;}.i{filter:url(#i);}.j{filter:url(#f);}.k{filter:url(#c);}</style><linearGradient id="a" x1="0.5" y1="-0.334" x2="0.5" y2="1" gradientUnits="objectBoundingBox"><stop offset="0" stop-color="#6fcfee"/><stop offset="1" stop-color="#fff" stop-opacity="0"/></linearGradient><linearGradient id="b" x1="0.604" y1="0.301" x2="0.87" y2="0.546" gradientUnits="objectBoundingBox"><stop offset="0" stop-color="#f5f5f5"/><stop offset="1" stop-color="#fff"/></linearGradient><filter id="c" x="175.648" y="86.884" width="136.669" height="140.14" filterUnits="userSpaceOnUse"><feOffset dx="-3" dy="3" input="SourceAlpha"/><feGaussianBlur stdDeviation="3" result="d"/><feFlood flood-opacity="0.02"/><feComposite operator="in" in2="d"/><feComposite in="SourceGraphic"/></filter><linearGradient id="e" x1="0.399" y1="0.468" x2="0.531" y2="0.863" gradientUnits="objectBoundingBox"><stop offset="0" stop-color="#fff"/><stop offset="0.573" stop-color="#e8f6fb"/><stop offset="1" stop-color="#ddf2fa"/></linearGradient><filter id="f" x="74.531" y="67.5" width="196" height="160" filterUnits="userSpaceOnUse"><feOffset dx="3" dy="3" input="SourceAlpha"/><feGaussianBlur stdDeviation="3" result="g"/><feFlood flood-opacity="0.02"/><feComposite operator="in" in2="g"/><feComposite in="SourceGraphic"/></filter><linearGradient id="h" x1="1.58" y1="0.102" x2="2.156" y2="1.014" gradientUnits="objectBoundingBox"><stop offset="0" stop-color="#fdfefe"/><stop offset="0.577" stop-color="#f9fafa"/><stop offset="1" stop-color="#f1f2f2"/></linearGradient><filter id="i" x="225.142" y="61.379" width="108.842" height="104.136" filterUnits="userSpaceOnUse"><feOffset dx="-3" dy="3" input="SourceAlpha"/><feGaussianBlur stdDeviation="3" result="j"/><feFlood flood-opacity="0.02"/><feComposite operator="in" in2="j"/><feComposite in="SourceGraphic"/></filter><linearGradient id="k" x1="0.5" x2="0.5" y2="1" gradientUnits="objectBoundingBox"><stop offset="0" stop-color="#565656"/><stop offset="1"/></linearGradient></defs><g transform="translate(-127.321 -96.527)"><path class="a" d="M3.664,139.689C-4.276,96.04.494,48.369,19.9,11.107c59.983-115.19,251.679-115.259,316.188,0C351.679,38.969,359.928,73.722,360,108.384v.921a213.764,213.764,0,0,1-2.212,30.384Z" transform="translate(127.851 172.338)"/><g transform="translate(5.268 20)"><g class="k" transform="matrix(1, 0, 0, 1, 122.05, 76.53)"><path class="b" d="M520.24,398.469c11.217-6,36.638-8.475,50.871,1.081,25.161,16.893,19.5,58.183,12.808,76.34-4.216,11.437-10.5,44.76-38.473,37.348s-62.361-38.6-73.406-66.994C475.969,440.136,505.28,406.472,520.24,398.469Z" transform="translate(-283.83 -299.78)"/></g><g transform="translate(202.801 149.607)"><g transform="translate(-0.218 0.419)"><g class="j" transform="matrix(1, 0, 0, 1, -80.53, -73.5)"><path class="c" d="M177.576,142c0-5.873,6.594-79.15-32.2-118.153-33.839-34.019-85.153-31.158-116.91,5.5C4.479,57.025-5.16,100.3,2.666,142Z" transform="translate(80.53 73.5)"/></g></g><path class="d" d="M61.966,50H2.982S-4.782,30.905,4.476,15.322C12.761,1.377,27.709.389,31.635.129c3.9-.257,18.548-1.226,27.99,10.914C67.686,21.408,61.966,50,61.966,50Z" transform="translate(55.848 92.419)"/></g><g transform="matrix(0.996, 0.087, -0.087, 0.996, 366.087, 143.906)"><g class="i" transform="matrix(1, -0.09, 0.09, 1, -248.98, -45.85)"><path class="e" d="M591.722,367.424s-2.1,14.061-.221,24.753,6.039,29.041,21.461,33.413,28.706-6.746,37.263-14.767,14.887-21.872,14.887-21.872,11.963-7.5,9.559-15.571-16.812-4.931-16.812-4.931-4.62-11.975-22.1-16.385-25.9,2.3-25.9,2.3-10.516-9.641-15.852-6.092S591.722,367.424,591.722,367.424Z" transform="matrix(1, 0.09, -0.09, 1, -314.15, -330.27)"/></g><path class="f" d="M644.988,446.9c-.476,1.623.775,8.406,4.574,9.52s9.119-4.132,9.108-5.925-1.11-4.423-5.565-5.73S645.464,445.281,644.988,446.9Z" transform="translate(-623.188 -394.884)"/><path class="g" d="M10.966,2.966c-.361,1.994-2.023,2.554-6.2,2S-.241,1.717.12-.277s2.442-3.76,6.085-2.733S11.327.971,10.966,2.966Z" transform="translate(29.769 70.805) rotate(-172)"/><path class="g" d="M8.958,2.583c-.4.662-1.654,2.011-5.073,1.575S-.289.66.088.031C.259-.254,1.413,1.5,4,2.167S9.175,2.222,8.958,2.583Z" transform="translate(26.952 32.088) rotate(-180)"/><path class="g" d="M8.958,2.583c-.4.662-1.654,2.011-5.073,1.575S-.289.66.088.031C.259-.254,1.413,1.5,4,2.167S9.175,2.222,8.958,2.583Z" transform="translate(52.729 39.871) rotate(-180)"/><path class="h" d="M604.164,358.931c-1.712,1.123-1.352,6.985,1.569,7.937,2.038.665,4.966-1.176,5.223-3.161C611.331,360.8,605.94,357.765,604.164,358.931Z" transform="translate(-597.568 -353.657)"/><path class="h" d="M754.835,407.005c.834,1.87-2.635,6.608-5.608,5.832-2.074-.541-3.544-3.672-2.687-5.481C747.795,404.7,753.969,405.064,754.835,407.005Z" transform="translate(-676.528 -379.46)"/></g></g></g></svg>