<svg xmlns="http://www.w3.org/2000/svg" xmlns:xlink="http://www.w3.org/1999/xlink" width="361.03" height="227.5" viewBox="0 0 361.03 227.5"><defs><style>.a,.f{stroke:rgba(0,0,0,0);stroke-miterlimit:10;}.a{fill:url(#a);}.b{opacity:0;}.c{fill:url(#b);}.d{fill:url(#c);}.e,.j{fill:#6fcfee;}.f{fill:url(#f);}.g,.m{fill:#fff;}.h{fill:#38413e;}.i,.l{fill:#0085cd;}.i,.j,.k,.m,.n,.o{fill-rule:evenodd;}.k{fill:#656e6b;}.n{fill:#cfeeff;}.o{fill:#e4f8ff;}.p{fill:url(#k);}.q{fill:#323e2a;}.r{fill:#eaeaea;}.s{filter:url(#l);}.t{filter:url(#i);}.u{filter:url(#g);}.v{filter:url(#d);}</style><linearGradient id="a" x1="0.5" y1="-0.334" x2="0.5" y2="1" gradientUnits="objectBoundingBox"><stop offset="0" stop-color="#6fcfee"/><stop offset="1" stop-color="#fff"/></linearGradient><linearGradient id="b" x1="0.464" y1="0.223" x2="0.589" y2="0.612" gradientUnits="objectBoundingBox"><stop offset="0" stop-color="#fff"/><stop offset="0.718" stop-color="#f6f6f6"/><stop offset="1" stop-color="#f2f3f3"/><stop offset="1" stop-color="#f1f2f2"/></linearGradient><linearGradient id="c" x1="0.399" y1="0.468" x2="0.531" y2="0.863" gradientUnits="objectBoundingBox"><stop offset="0" stop-color="#fff"/><stop offset="0.573" stop-color="#e8f6fb"/><stop offset="1" stop-color="#ddf2fa"/></linearGradient><filter id="d" x="20.53" y="63.5" width="134.72" height="116.771" filterUnits="userSpaceOnUse"><feOffset dx="3" dy="3" input="SourceAlpha"/><feGaussianBlur stdDeviation="3" result="e"/><feFlood flood-opacity="0.02"/><feComposite operator="in" in2="e"/><feComposite in="SourceGraphic"/></filter><linearGradient id="f" x1="0.604" y1="0.301" x2="0.87" y2="0.546" gradientUnits="objectBoundingBox"><stop offset="0" stop-color="#f5f5f5"/><stop offset="1" stop-color="#fff"/></linearGradient><filter id="g" x="175.648" y="75.884" width="136.669" height="140.14" filterUnits="userSpaceOnUse"><feOffset dx="-3" dy="3" input="SourceAlpha"/><feGaussianBlur stdDeviation="3" result="h"/><feFlood flood-opacity="0.02"/><feComposite operator="in" in2="h"/><feComposite in="SourceGraphic"/></filter><filter id="i" x="72.53" y="39.5" width="188" height="188" filterUnits="userSpaceOnUse"><feOffset dx="-3" dy="3" input="SourceAlpha"/><feGaussianBlur stdDeviation="3" result="j"/><feFlood flood-opacity="0.02"/><feComposite operator="in" in2="j"/><feComposite in="SourceGraphic"/></filter><linearGradient id="k" x1="1.58" y1="0.102" x2="2.156" y2="1.014" gradientUnits="objectBoundingBox"><stop offset="0" stop-color="#fdfefe"/><stop offset="0.577" stop-color="#f9fafa"/><stop offset="1" stop-color="#f1f2f2"/></linearGradient><filter id="l" x="225.142" y="50.379" width="108.842" height="104.136" filterUnits="userSpaceOnUse"><feOffset dx="-3" dy="3" input="SourceAlpha"/><feGaussianBlur stdDeviation="3" result="m"/><feFlood flood-opacity="0.02"/><feComposite operator="in" in2="m"/><feComposite in="SourceGraphic"/></filter></defs><g transform="translate(-127.321 -96.527)"><path class="a" d="M3.664,139.689C-4.276,96.04.494,48.369,19.9,11.107c59.983-115.19,251.679-115.259,316.188,0C351.679,38.969,359.928,73.722,360,108.384v.921a213.764,213.764,0,0,1-2.212,30.384Z" transform="translate(127.851 172.338)"/><g class="b" transform="translate(173.769 160.604)"><path class="c" d="M441.823,389.423c10.713-17.985,15.214-39.562,14.062-60.815-75.443-50.352-222.666-42.761-272.705,22.686-.054.07-.1.142-.158.212A113.837,113.837,0,0,0,201.5,396.154C253.232,469.263,397.8,463.34,441.823,389.423Z" transform="translate(-183.023 -295.784)"/></g><g transform="translate(5.268 9)"><g transform="translate(148.583 173.448) rotate(-9)"><g transform="translate(0 0)"><g class="v" transform="matrix(0.99, 0.16, -0.16, 0.99, -12.76, -89.01)"><path class="d" d="M104.589,76.923C104.808,75.033,108.7,36.9,85.8,14,65.828-5.973,35.543-4.293,16.8,17.229,2.644,33.483-3.045,58.891,1.574,83.376Z" transform="translate(26.53 85.92) rotate(-9)"/></g></g><path class="e" d="M38.485,27.575,1.936,29.328S-2.9,18.322,2.719,9.083C7.749.817,16.825.231,19.208.077,21.575-.076,30.47-.65,36.2,6.547,41.1,12.691,38.485,27.575,38.485,27.575Z" transform="translate(32.894 52.06)"/></g><g class="u" transform="matrix(1, 0, 0, 1, 122.05, 87.53)"><path class="f" d="M520.24,398.469c11.217-6,36.638-8.475,50.871,1.081,25.161,16.893,19.5,58.183,12.808,76.34-4.216,11.437-10.5,44.76-38.473,37.348s-62.361-38.6-73.406-66.994C475.969,440.136,505.28,406.472,520.24,398.469Z" transform="translate(-283.83 -310.78)"/></g><g transform="translate(206.583 133.027)"><g class="t" transform="matrix(1, 0, 0, 1, -84.53, -45.5)"><circle class="g" cx="85" cy="85" r="85" transform="translate(84.53 45.5)"/></g><g transform="translate(0 5.392)"><g transform="translate(34 41)"><rect class="h" width="4.577" height="4.577" transform="translate(26.251 41.035) rotate(-68.206)"/><g transform="translate(2.92 65.517)"><path class="i" d="M198.11,585.325a4.068,4.068,0,1,0-4.068-4.067A4.075,4.075,0,0,0,198.11,585.325Z" transform="translate(-186.869 -570.017)"/><path class="i" d="M169.117,541.024a11.241,11.241,0,0,1,0,22.483v-5.468a5.773,5.773,0,0,0,0-11.546Zm0,0h0v5.468h0a5.773,5.773,0,0,0,0,11.546h0v5.468h0a11.241,11.241,0,0,1,0-22.483Z" transform="translate(-157.876 -541.024)"/><path class="i" d="M184.113,559.731a7.531,7.531,0,0,1,0,15.062v-1.758a5.773,5.773,0,1,0,0-11.546Zm0,0h0v1.758a5.773,5.773,0,1,0,0,11.546v1.758h0a7.531,7.531,0,0,1,0-15.062Z" transform="translate(-172.872 -556.021)"/><path class="i" d="M195.081,565.771l.444.769-5.367,3.1,5.34,3.083-.444.769-5.367-3.1v6.167H188.8v-6.2l-5.34,3.083-.444-.769,5.367-3.1-5.34-3.083.444-.769,5.367,3.1v-6.166h.888v6.2Z" transform="translate(-178.029 -558.366)"/><path class="j" d="M217.178,556.766l.494.264a.22.22,0,0,1,.09.3l-2.259,4.2a.22.22,0,0,1-.3.09l-.494-.265a.219.219,0,0,1-.09-.3l2.259-4.2A.22.22,0,0,1,217.178,556.766Z" transform="translate(-203.346 -553.623)"/><path class="j" d="M198.532,565.927l1.055.565a.469.469,0,0,1,.192.634l-4.825,8.982a.47.47,0,0,1-.634.192l-1.055-.565a.47.47,0,0,1-.192-.634l4.825-8.982A.47.47,0,0,1,198.532,565.927Z" transform="translate(-186.048 -560.944)"/></g><path class="i" d="M156.872,516.611a14.715,14.715,0,0,1,13.716,9.384H143.156A14.715,14.715,0,0,1,156.872,516.611Z" transform="translate(-143.156 -455.936)"/><path class="j" d="M223.9,366.341l2.444,1.165a1.21,1.21,0,0,0,1.485-.476l3.156-8.022-7.085-3.729v11.062Zm0,37.006V390.182l.043.12c.764,2.1,3.722,3.44,5.578,3.154l11.5-1.776c2.438-.376,3.585-3.049,2.731-6.2l-1.729-6.384,33.532-4.881c3.012-.439,8.151,5.663,9.428,12.2l-27.531,6.384-4.921,4.921c-1.226,1.226-2.672,2.552-4.389,2.793l-21.812,3.059a5.709,5.709,0,0,1-2.43-.217Zm0-26.332V366.882l2.32,1.1a1.3,1.3,0,0,1,.666,1.441Zm-.5-22-5.245.506c-1.825,2.491-1.823,5.1.2,7.851.016.377.276.455.79.7l4.751,2.266V355.279l-.5-.261Zm.5,11.864v10.134l-2.491,6.332,2.491,6.835v13.165a11.063,11.063,0,0,1-5.284-3.907l-12.236-16.226c1.331-6.872,5.191-13.044,10.708-18.55a1.291,1.291,0,0,1,1.837-.147Z" transform="translate(-193.843 -326.394)"/><path class="i" d="M265.586,355.018l-5.245.506c-1.825,2.491-1.823,5.1.2,7.851C262.643,361.278,260.864,358.059,265.586,355.018Z" transform="translate(-236.021 -326.394)"/><g transform="translate(68.943 65.517)"><path class="k" d="M530.982,585.325a4.068,4.068,0,1,0-4.068-4.067A4.075,4.075,0,0,0,530.982,585.325Z" transform="translate(-519.741 -570.017)"/><path class="i" d="M501.989,541.024a11.241,11.241,0,1,1,0,22.483v-5.468a5.773,5.773,0,0,0,0-11.546Zm0,0h0v5.468h0a5.773,5.773,0,0,0,0,11.546h0v5.468h0a11.241,11.241,0,0,1,0-22.483Z" transform="translate(-490.748 -541.024)"/><path class="i" d="M516.986,559.731a7.531,7.531,0,1,1,0,15.062v-1.758a5.773,5.773,0,0,0,0-11.546Zm0,0h0v1.758a5.773,5.773,0,1,0,0,11.546v1.758h0a7.531,7.531,0,0,1,0-15.062Z" transform="translate(-505.744 -556.021)"/><path class="i" d="M527.954,565.771l.444.769-5.367,3.1,5.34,3.083-.444.769-5.367-3.1v6.167h-.888v-6.2l-5.34,3.083-.444-.769,5.367-3.1-5.341-3.083.444-.769,5.367,3.1v-6.166h.888v6.2Z" transform="translate(-510.902 -558.366)"/></g><path class="i" d="M268.217,536.706l.632,1.112c1.417,2.493,4.149,4.981,7.055,4.847l21.95-1.011c1.728-.079,3.336-1.269,4.713-2.381l5.528-4.459,25.221-3.416a20.085,20.085,0,0,0-9.817-5.2l-16.473,3.82-4.921,4.921c-1.226,1.226-2.672,2.553-4.389,2.793L275.9,540.793C273.031,541.2,269.977,539.021,268.217,536.706Z" transform="translate(-243.412 -463.623)"/><rect class="l" width="0.643" height="6.916" transform="translate(32.502 24.314)"/><path class="l" d="M.708,0h0a.708.708,0,0,1,.708.708v.387A.707.707,0,0,1,.708,1.8h0A.707.707,0,0,1,0,1.094V.708A.708.708,0,0,1,.708,0Z" transform="translate(32.116 22.513)"/><rect class="l" width="1.158" height="0.643" transform="translate(33.531 23.092)"/><path class="i" d="M318.694,316.614a8.484,8.484,0,0,1,0,4.813,2.464,2.464,0,0,1,0-4.813Z" transform="translate(-282.326 -295.607)"/><path class="i" d="M298.832,374.269a1.3,1.3,0,1,0-1.3-1.3A1.3,1.3,0,0,0,298.832,374.269Z" transform="translate(-266.911 -339.74)"/><path class="l" d="M.838,0H6.385a.837.837,0,0,1,.837.837v0a.838.838,0,0,1-.838.838H.838A.838.838,0,0,1,0,.838v0A.838.838,0,0,1,.838,0Z" transform="translate(31.054 32.391)"/><path class="i" d="M381.177,434.048c.451.412.591.625,1.955.427l28.319-4.125s2.747-.139,3.087-.987-.34-4.666-1.145-4.962c-.4-.147.491-.074-2.695.15-3.248.228-6.572.032-7.171.2-1.188.339-4.072,1.909-8.016,2.205s-10.985-.085-12.045.3C381.656,427.908,380.266,433.217,381.177,434.048Z" transform="translate(-333.737 -381.954)"/><path class="i" d="M535.076,433.339l19.757-2.831a.691.691,0,0,1,.817.609h0a.766.766,0,0,1-.609.816L531.568,435.3C528.35,435.757,534.406,433.435,535.076,433.339Z" transform="translate(-453.778 -386.905)"/><path class="j" d="M277.216,438.309l1.551-1.552-27.6,3.515c-2.729.347-5.623-1.694-7.28-3.891l-8.238-10.924c1.155-5.966,4.423-11.281,8.907-16.223l-.99-.471c-4.781,5.254-8.267,10.907-9.5,17.255l8.729,11.575c1.756,2.328,4.822,4.492,7.714,4.123Z" transform="translate(-216.035 -369.479)"/><path class="j" d="M425.547,480.276c-2.7-.321-4.957-.958-7.559-5.295-1.784-2.973-3.666-7.139,1.03-8.511,4.825-1.41,15.879-3.433,22.444-1.572,6.664,1.889,10.28,6.012,11.047,9.126Z" transform="translate(-361.933 -413.879)"/><path class="i" d="M589.327,513.936l5.331,10.345-.471.366s-1.622-.419-1.622-.942-5.834-9.167-5.834-9.167Z" transform="translate(-498.752 -453.791)"/><path class="m" d="M260.341,357.567c-1.825,2.491-1.823,5.1.2,7.851-.036.039-.073.076-.11.11l.11-.11C262.713,363.035,261.258,358.262,260.341,357.567Z" transform="translate(-236.021 -328.437)"/><path class="n" d="M259.894,360.968a5.849,5.849,0,0,0,.192,6.506C261.257,365.43,260.623,362.375,259.894,360.968Z" transform="translate(-236.021 -331.164)"/><ellipse class="g" cx="0.349" cy="2.407" rx="0.349" ry="2.407" transform="translate(36.02 21.007)"/><path class="j" d="M458.648,566.059a3.219,3.219,0,0,1,1.8-6.181L474.6,562.1h0a5.194,5.194,0,1,1-2.825,9.687h0Z" transform="translate(-394.213 -490.517)"/><path class="j" d="M347.151,403.532h.139c2.3,0,3.25,1.64,3.147,3.933l-.858,19.042-4.361.673-2.242-19.473C342.714,405.426,344.855,403.532,347.151,403.532Z" transform="translate(-303.326 -365.285)"/><path class="j" d="M387.244,353l.027.137c.437,2.254-1.014,4.816-3.3,4.987l-19.316,1.438-.54-8.043,18.24-1.821C385.475,349.389,381.644,322.949,387.244,353Z" transform="translate(-320.286 -313.276)"/><path class="i" d="M328.691,520.106c-2.54.517-6.168,2.042-5.759,5.1l11.19-1.728-.619-4.113Z" transform="translate(-287.249 -458.142)"/><path class="o" d="M404.893,248.943a3.185,3.185,0,0,0-3.142-2.856.912.912,0,0,1-.713-1.548c.17-.222-.7-.295-.146-.78.222-.194-.478-.276-.227-.622.478-.656.086-.5-.2-.62-.681-.283.239-1.285.525-2a7.884,7.884,0,0,0,.261-2.571c0-.714,9.711-2,9.069,1.428s-2.785,7.212-2.142,9.211S405.679,251.3,404.893,248.943Z" transform="translate(-349.233 -231.87)"/><path class="i" d="M417.739,289.261c3.434.039,4.685,2.964,5.33,6.081.718,3.468,1.566,12.735,2.068,14.979.49,2.2-9.2,2.964-11.966.775-1.677-1.328.056-7.431-.806-11.887-.433-2.239.086-8.138,2.1-9.174A2.244,2.244,0,0,0,417.739,289.261Z" transform="translate(-358.856 -273.679)"/><path class="o" d="M398.824,322.754h0c.844.844,1.369,2.015.683,2.992l-6.716,9.572A2.307,2.307,0,0,1,389.8,336h0a2.076,2.076,0,0,1-.684-2.992l6.717-9.572A2.218,2.218,0,0,1,398.824,322.754Z" transform="translate(-340.037 -300.27)"/><path class="i" d="M421.067,308.767h0a3.237,3.237,0,0,1,1.017,4.449l-2.19,3.487-5.466-3.433,2.19-3.487A3.237,3.237,0,0,1,421.067,308.767Z" transform="translate(-360.623 -288.922)"/><path class="o" d="M337.275,366.041l10.7,1.131c1.187.125,1.365,1.556,1.365,2.749h0c0,1.193-1.613,1.729-2.749,1.365l-9.8-3.148C334.056,367.26,334.42,365.74,337.275,366.041Z" transform="translate(-296.889 -335.199)"/><path class="o" d="M324.482,365.723c-2.67-.295-4.778.094-4.954,2.5s1.244.522,1.352-.176a1.036,1.036,0,0,1,1.889-.237c.9,1.442,1.623-.025,2.745.326S326.464,365.942,324.482,365.723Z" transform="translate(-284.533 -334.908)"/><path class="j" d="M402.652,224.868c0,1.07,1.3,2.484,3.21,3.4s5.35,3.4,5.045,4.2,2.713-.841,3.019-4.2S405.595,219.173,402.652,224.868Z" transform="translate(-351.183 -220.124)"/><path class="i" d="M402.331,227.451c.555-.464,1.4-2.419,2.124-3.529l.005-.008.091-.136.077-.111.077-.109.085-.117.014-.018q.07-.095.141-.187l.029-.036.076-.1.09-.111.086-.1.088-.1c.055-.063.11-.125.165-.185l.012-.013.02-.022.071-.076.09-.094.092-.093.1-.1c.057-.055.114-.108.171-.161l.011-.01.092-.083c.06-.053.121-.105.182-.156l.007-.006q.086-.072.173-.139l.019-.015a5.023,5.023,0,0,1,3.675-1.172,6.8,6.8,0,1,0-12.663-4.853c4.978,1.984,5.783,4.211,3.848,10.41A3.349,3.349,0,0,1,402.331,227.451Z" transform="translate(-347.075 -210.702)"/><rect class="e" width="20.684" height="20.683" rx="2" transform="matrix(0.99, -0.142, 0.142, 0.99, 78.065, 26.002)"/><g transform="translate(82.893 28.601)"><path class="i" d="M569.053,352.951a6.369,6.369,0,1,0-6.369-6.369A6.381,6.381,0,0,0,569.053,352.951Z" transform="translate(-562.684 -340.213)"/></g></g><path class="e" d="M15.977.563A15.415,15.415,0,1,0,31.392,15.977,15.412,15.412,0,0,0,15.977.563Zm3.549,21.761-5.482-3.984a.751.751,0,0,1-.3-.6V7.275a.748.748,0,0,1,.746-.746h2.983a.748.748,0,0,1,.746.746v8.559l3.947,2.872a.745.745,0,0,1,.162,1.044L20.57,22.162A.751.751,0,0,1,19.526,22.323Z" transform="translate(42.911 30.046)"/></g></g><g transform="matrix(0.996, 0.087, -0.087, 0.996, 366.087, 143.906)"><g class="s" transform="matrix(1, -0.09, 0.09, 1, -248.02, -34.9)"><path class="p" d="M591.722,367.424s-2.1,14.061-.221,24.753,6.039,29.041,21.461,33.413,28.706-6.746,37.263-14.767,14.887-21.872,14.887-21.872,11.963-7.5,9.559-15.571-16.812-4.931-16.812-4.931-4.62-11.975-22.1-16.385-25.9,2.3-25.9,2.3-10.516-9.641-15.852-6.092S591.722,367.424,591.722,367.424Z" transform="matrix(1, 0.09, -0.09, 1, -314.15, -341.27)"/></g><path class="q" d="M644.988,446.9c-.476,1.623.775,8.406,4.574,9.52s9.119-4.132,9.108-5.925-1.11-4.423-5.565-5.73S645.464,445.281,644.988,446.9Z" transform="translate(-623.188 -394.884)"/><path class="q" d="M15.1,3.63c-.669.929-2.79,2.825-8.555,2.213S-.488.928.149.044c.288-.4,2.233,2.061,6.6,3S15.47,3.121,15.1,3.63Z" transform="matrix(0.998, -0.07, 0.07, 0.998, 18.699, 64.89)"/><path class="q" d="M2.915,0A2.915,2.915,0,1,1,0,2.915,2.915,2.915,0,0,1,2.915,0Z" transform="translate(20.032 26.269)"/><path class="q" d="M698.444,427.074a2.977,2.977,0,1,1-2.018-3.694A2.977,2.977,0,0,1,698.444,427.074Z" transform="translate(-646.919 -389.278)"/><path class="r" d="M604.164,358.931c-1.712,1.123-1.352,6.985,1.569,7.937,2.038.665,4.966-1.176,5.223-3.161C611.331,360.8,605.94,357.765,604.164,358.931Z" transform="translate(-597.568 -353.657)"/><path class="r" d="M754.835,407.005c.834,1.87-2.635,6.608-5.608,5.832-2.074-.541-3.544-3.672-2.687-5.481C747.795,404.7,753.969,405.064,754.835,407.005Z" transform="translate(-676.528 -379.46)"/></g></g></g></svg>