<svg xmlns="http://www.w3.org/2000/svg" width="100" height="100" viewBox="0 0 100 100">
  <g id="Group_24850" data-name="Group 24850" transform="translate(-3131.582 260.91)">
    <path id="calendar" d="M6.064,78.846H19.711V65.2H6.064Zm16.678,0H37.906V65.2H22.744V78.846ZM6.064,62.168H19.711V47H6.064Zm16.678,0H37.906V47H22.744V62.168ZM6.064,43.972H19.711V30.325H6.064ZM40.939,78.846H56.1V65.2H40.939ZM22.744,43.972H37.907V30.325H22.744ZM59.135,78.846H72.782V65.2H59.135ZM40.94,62.168H56.1V47H40.939V62.168Zm-16.68-40.94V7.581a1.536,1.536,0,0,0-1.516-1.516H19.711a1.536,1.536,0,0,0-1.516,1.516V21.228a1.536,1.536,0,0,0,1.516,1.516h3.033a1.536,1.536,0,0,0,1.516-1.516ZM59.135,62.167H72.782V47H59.135V62.168Zm-18.2-18.195H56.1V30.325H40.939Zm18.195,0H72.78V30.325H59.134ZM60.65,21.228V7.581a1.536,1.536,0,0,0-1.516-1.516H56.1a1.534,1.534,0,0,0-1.515,1.516V21.228A1.536,1.536,0,0,0,56.1,22.744h3.033a1.536,1.536,0,0,0,1.516-1.516Zm18.195-3.033v60.65a6.149,6.149,0,0,1-6.064,6.064H6.064a5.828,5.828,0,0,1-4.264-1.8A5.828,5.828,0,0,1,0,78.845V18.195a5.828,5.828,0,0,1,1.8-4.264,5.828,5.828,0,0,1,4.264-1.8h6.064V7.581a7.3,7.3,0,0,1,2.228-5.355A7.3,7.3,0,0,1,19.711,0h3.033A7.3,7.3,0,0,1,28.1,2.228a7.3,7.3,0,0,1,2.228,5.355v4.549H48.521V7.582a7.3,7.3,0,0,1,2.228-5.355A7.3,7.3,0,0,1,56.1,0h3.033a7.3,7.3,0,0,1,5.355,2.228,7.3,7.3,0,0,1,2.228,5.355v4.549h6.064a5.828,5.828,0,0,1,4.264,1.8,5.828,5.828,0,0,1,1.8,4.264Z" transform="translate(3131.582 -260.91)" fill="#1685c7"/>
    <g id="Group_24850-2" data-name="Group 24850" transform="translate(3180.715 -211)">
      <ellipse id="Ellipse_290" data-name="Ellipse 290" cx="25.434" cy="25.045" rx="25.434" ry="25.045" transform="translate(0 0)" fill="#6fcfee"/>
      <path id="Icon_awesome-map-marker-alt" data-name="Icon awesome-map-marker-alt" d="M11.362,33.088C1.779,19.2,0,17.769,0,12.663a12.663,12.663,0,0,1,25.327,0c0,5.106-1.779,6.532-11.362,20.424a1.584,1.584,0,0,1-2.6,0Zm1.3-15.148a5.276,5.276,0,1,0-5.276-5.276A5.276,5.276,0,0,0,12.663,17.94Z" transform="translate(12.77 8.418)" fill="#fff"/>
    </g>
  </g>
</svg>
