<svg xmlns="http://www.w3.org/2000/svg" xmlns:xlink="http://www.w3.org/1999/xlink" width="356" height="299" viewBox="0 0 356 299"><defs><style>.a{fill:url(#a);}.b{fill:#343333;}.ae,.ag,.c{fill:none;}.d{fill:url(#d);}.e{clip-path:url(#g);}.f{fill:#f5f5f6;}.g{fill:rgba(216,216,216,0.03);}.h{fill:#fafbfd;}.i{fill:url(#p);}.j{fill:url(#r);}.k{fill:url(#s);}.l{opacity:0.6;fill:url(#v);}.m{fill:url(#w);}.n{fill:url(#z);}.o{fill:url(#aa);}.p{fill:url(#ad);}.q{fill:url(#am);}.r{clip-path:url(#ar);}.s{fill:rgba(255,255,255,0.1);}.t{clip-path:url(#as);}.u{fill:#323234;}.v{fill:url(#av);}.w{clip-path:url(#bb);}.x{fill:#bee5ff;}.y{fill:#75c8ff;}.z{fill:#3358b6;}.aa{fill:#00154f;}.ab{fill:#101010;}.ac{fill:#eee5dc;}.ad{fill:#fff;}.ae{stroke:#000;}.ae,.ag{stroke-linecap:round;}.af{font-size:12px;}.af,.ah{font-family:Nunito-SemiBold, Nunito;font-weight:600;}.ag{stroke:#128c7e;stroke-linejoin:round;}.ah{font-size:7px;}.ai{fill:#128c7e;}.aj{filter:url(#az);}.ak{filter:url(#aw);}.al{filter:url(#at);}.am{filter:url(#ap);}.an{filter:url(#an);}.ao{filter:url(#aj);}.ap{filter:url(#af);}.aq{filter:url(#ab);}.ar{filter:url(#x);}.as{filter:url(#n);}.at{filter:url(#l);}.au{filter:url(#j);}.av{filter:url(#h);}.aw{filter:url(#e);}.ax{filter:url(#b);}</style><linearGradient id="a" x1="-0.164" y1="-0.159" x2="1.148" y2="1.145" gradientUnits="objectBoundingBox"><stop offset="0" stop-color="#fff"/><stop offset="1" stop-color="#f1fbff"/></linearGradient><filter id="b" x="144.49" y="56.457" width="64.641" height="9.609" filterUnits="userSpaceOnUse"><feOffset dy="2" input="SourceAlpha"/><feGaussianBlur stdDeviation="1" result="c"/><feFlood flood-color="#fff"/><feComposite operator="in" in2="c"/><feComposite in="SourceGraphic"/></filter><radialGradient id="d" cx="0.5" cy="0" r="1" gradientUnits="objectBoundingBox"><stop offset="0" stop-color="#2a4893"/><stop offset="1" stop-color="#213054"/></radialGradient><filter id="e" x="114.121" y="52.957" width="13.511" height="13.511" filterUnits="userSpaceOnUse"><feOffset input="SourceAlpha"/><feGaussianBlur stdDeviation="1.5" result="f"/><feFlood flood-opacity="0.4"/><feComposite operator="in" in2="f"/><feComposite in="SourceGraphic"/></filter><clipPath id="g"><rect class="a" width="356" height="299" transform="translate(0 -0.303)"/></clipPath><filter id="h" x="-40.244" y="599.491" width="434.733" height="159.369" filterUnits="userSpaceOnUse"><feOffset dy="3" input="SourceAlpha"/><feGaussianBlur stdDeviation="25" result="i"/><feFlood flood-opacity="0.122"/><feComposite operator="in" in2="i"/><feComposite in="SourceGraphic"/></filter><filter id="j" x="9.558" y="645.177" width="335.357" height="67.313" filterUnits="userSpaceOnUse"><feOffset dy="3" input="SourceAlpha"/><feGaussianBlur stdDeviation="10" result="k"/><feFlood flood-opacity="0.078"/><feComposite operator="in" in2="k"/><feComposite in="SourceGraphic"/></filter><filter id="l" x="29.664" y="657.048" width="295.374" height="42.656" filterUnits="userSpaceOnUse"><feOffset dy="3" input="SourceAlpha"/><feGaussianBlur stdDeviation="6.5" result="m"/><feFlood flood-opacity="0.239"/><feComposite operator="in" in2="m"/><feComposite in="SourceGraphic"/></filter><filter id="n" x="20.588" y="24.557" width="313.527" height="646.249" filterUnits="userSpaceOnUse"><feOffset input="SourceAlpha"/><feGaussianBlur result="o"/><feFlood flood-color="#fff" flood-opacity="0.451"/><feComposite operator="in" in2="o"/><feComposite in="SourceGraphic"/></filter><linearGradient id="p" x1="0.5" y1="-0.008" x2="0.5" y2="1" gradientUnits="objectBoundingBox"><stop offset="0" stop-color="#fff" stop-opacity="0"/><stop offset="0.031" stop-color="#fff"/><stop offset="0.968" stop-color="#fff"/><stop offset="1" stop-color="#f1f3f4" stop-opacity="0"/></linearGradient><linearGradient id="r" y1="0.5" x2="0.949" y2="0.5" gradientUnits="objectBoundingBox"><stop offset="0" stop-color="#969696"/><stop offset="0.33" stop-color="#bebfc1"/><stop offset="0.927" stop-color="#e0e1e3"/><stop offset="1" stop-color="#ebecee"/></linearGradient><linearGradient id="s" x1="1" x2="0.051" xlink:href="#r"/><linearGradient id="v" x1="0.5" x2="0.5" y2="1" gradientUnits="objectBoundingBox"><stop offset="0" stop-color="#2c2c2c"/><stop offset="1" stop-color="#1d1d1d"/></linearGradient><linearGradient id="w" x1="0.5" x2="0.5" y2="1" gradientUnits="objectBoundingBox"><stop offset="0" stop-color="#afb0b1"/><stop offset="0.159" stop-color="#dddedf"/><stop offset="0.774" stop-color="#f4f5f6"/><stop offset="0.774" stop-color="#f3f4f5"/><stop offset="0.877" stop-color="#dfe0e1"/><stop offset="1" stop-color="#4d4e4f"/></linearGradient><filter id="x" x="12.066" y="94.152" width="8.707" height="28.554" filterUnits="userSpaceOnUse"><feOffset dx="2" input="SourceAlpha"/><feGaussianBlur stdDeviation="1" result="y"/><feFlood flood-opacity="0.102"/><feComposite operator="in" in2="y"/><feComposite in="SourceGraphic"/></filter><linearGradient id="z" x1="0.5" x2="0.5" y2="0.983" gradientUnits="objectBoundingBox"><stop offset="0" stop-color="#fffcfc"/><stop offset="0.021" stop-color="#6e6f6f"/><stop offset="0.142" stop-color="#f7f8f9"/><stop offset="0.849" stop-color="#f4f5f6"/><stop offset="0.894" stop-color="#a4a6a8"/><stop offset="1" stop-color="#707579"/></linearGradient><linearGradient id="aa" x1="0.5" x2="0.5" y2="1" gradientUnits="objectBoundingBox"><stop offset="0" stop-color="#afb0b1"/><stop offset="0.082" stop-color="#eff0f1"/><stop offset="0.159" stop-color="#dddedf"/><stop offset="0.774" stop-color="#f4f5f6"/><stop offset="0.774" stop-color="#f3f4f5"/><stop offset="0.877" stop-color="#dfe0e1"/><stop offset="0.953" stop-color="#fff"/><stop offset="1" stop-color="#4d4e4f"/></linearGradient><filter id="ab" x="12.968" y="142.87" width="7.804" height="48.402" filterUnits="userSpaceOnUse"><feOffset dx="2" input="SourceAlpha"/><feGaussianBlur stdDeviation="1" result="ac"/><feFlood flood-opacity="0.102"/><feComposite operator="in" in2="ac"/><feComposite in="SourceGraphic"/></filter><linearGradient id="ad" x1="0.5" x2="0.5" y2="0.983" gradientUnits="objectBoundingBox"><stop offset="0" stop-color="#fffcfc"/><stop offset="0.021" stop-color="#2e2f2f"/><stop offset="0.047" stop-color="#383838"/><stop offset="0.113" stop-color="#e4e5e6"/><stop offset="0.142" stop-color="#f7f8f9"/><stop offset="0.849" stop-color="#f4f5f6"/><stop offset="0.894" stop-color="#8d8e8f"/><stop offset="0.98" stop-color="#404142"/><stop offset="1" stop-color="#fff"/></linearGradient><filter id="af" x="12.968" y="195.196" width="7.804" height="47.5" filterUnits="userSpaceOnUse"><feOffset dx="2" input="SourceAlpha"/><feGaussianBlur stdDeviation="1" result="ag"/><feFlood flood-opacity="0.102"/><feComposite operator="in" in2="ag"/><feComposite in="SourceGraphic"/></filter><filter id="aj" x="337.456" y="142.458" width="8.742" height="48.932" filterUnits="userSpaceOnUse"><feOffset dx="2" input="SourceAlpha"/><feGaussianBlur stdDeviation="1" result="ak"/><feFlood flood-opacity="0.102"/><feComposite operator="in" in2="ak"/><feComposite in="SourceGraphic"/></filter><radialGradient id="am" cx="0.168" cy="0.113" r="1.016" gradientUnits="objectBoundingBox"><stop offset="0.119" stop-color="#fafafa"/><stop offset="0.142" stop-color="#bcbdbf"/><stop offset="0.161" stop-color="#636466"/><stop offset="0.281" stop-color="#5e5f61"/><stop offset="0.301" stop-color="#c5c6c8"/><stop offset="0.379" stop-color="#dedfe1"/><stop offset="0.401" stop-color="#fff"/><stop offset="0.498" stop-color="#f7f7f7"/><stop offset="0.513" stop-color="#acadaf"/><stop offset="0.528" stop-color="#444547"/><stop offset="0.615" stop-color="#414244"/><stop offset="0.63" stop-color="#757678"/><stop offset="0.731" stop-color="#707173"/><stop offset="0.752" stop-color="#fff"/><stop offset="0.793" stop-color="#fefefe"/><stop offset="0.8" stop-color="#bcbdbf"/><stop offset="0.876" stop-color="#acadaf"/><stop offset="0.937" stop-color="#6f7072"/><stop offset="0.962" stop-color="#bcbdbf"/><stop offset="0.969" stop-color="#f3f3f3"/></radialGradient><filter id="an" x="151.708" y="612.197" width="50.206" height="50.206" filterUnits="userSpaceOnUse"><feOffset dy="2" input="SourceAlpha"/><feGaussianBlur stdDeviation="1" result="ao"/><feFlood flood-color="#fff" flood-opacity="0.702"/><feComposite operator="in" in2="ao"/><feComposite in="SourceGraphic"/></filter><filter id="ap" x="144.49" y="56.457" width="64.641" height="9.609" filterUnits="userSpaceOnUse"><feOffset dy="2" input="SourceAlpha"/><feGaussianBlur stdDeviation="1" result="aq"/><feFlood flood-color="#fff"/><feComposite operator="in" in2="aq"/><feComposite in="SourceGraphic"/></filter><clipPath id="ar"><g class="ax" transform="matrix(1, 0, 0, 1, 0, 0)"><rect class="b" width="58.641" height="3.609" rx="1.804" transform="translate(0)"/></g></clipPath><clipPath id="as"><rect class="c" width="58.641" height="3.609" rx="1.804" transform="translate(0)"/></clipPath><filter id="at" x="174.555" y="37.609" width="6.315" height="8.315" filterUnits="userSpaceOnUse"><feOffset dy="2" input="SourceAlpha"/><feGaussianBlur result="au"/><feFlood flood-color="#fff"/><feComposite operator="in" in2="au"/><feComposite in="SourceGraphic"/></filter><radialGradient id="av" cx="1.211" cy="1.341" r="1.007" gradientUnits="objectBoundingBox"><stop offset="0" stop-color="#fff"/><stop offset="1" stop-color="#252525"/></radialGradient><filter id="aw" x="115.914" y="53.848" width="9.924" height="11.924" filterUnits="userSpaceOnUse"><feOffset dy="2" input="SourceAlpha"/><feGaussianBlur result="ax"/><feFlood flood-color="#fff"/><feComposite operator="in" in2="ax"/><feComposite in="SourceGraphic"/></filter><filter id="az" x="114.121" y="52.957" width="13.511" height="13.511" filterUnits="userSpaceOnUse"><feOffset input="SourceAlpha"/><feGaussianBlur stdDeviation="1.5" result="ba"/><feFlood flood-opacity="0.4"/><feComposite operator="in" in2="ba"/><feComposite in="SourceGraphic"/></filter><clipPath id="bb"><g class="aw" transform="matrix(1, 0, 0, 1, 0, 0)"><circle class="d" cx="2.255" cy="2.255" r="2.255" transform="translate(0 0)"/></g></clipPath></defs><g class="e" transform="translate(0 0.303)"><g transform="translate(13.066 18.769)"><g transform="translate(21.69 652.419)"><g class="av" transform="matrix(1, 0, 0, 1, -34.76, -671.49)"><path class="c" d="M142.367,9.369c78.627,0,142.367-2.327,142.367-5.2S197.43,0,142.367,0,0,1.3,0,4.172,63.74,9.369,142.367,9.369Z" transform="translate(34.76 671.49)"/></g><g class="au" transform="matrix(1, 0, 0, 1, -34.76, -671.49)"><path class="c" d="M137.678,7.313c76.038,0,137.678-1.816,137.678-4.057S190.928,0,137.678,0,0,1.016,0,3.256,61.641,7.313,137.678,7.313Z" transform="translate(39.56 672.18)"/></g><g class="at" transform="matrix(1, 0, 0, 1, -34.76, -671.49)"><path class="c" d="M128.187,3.656c70.8,0,128.187-.908,128.187-2.028S177.766,0,128.187,0,0,.508,0,1.628,57.391,3.656,128.187,3.656Z" transform="translate(49.16 673.55)"/></g></g><g transform="translate(0 0)"><g transform="translate(2.037)"><path class="f" d="M47.587,0H276.909C305.338,0,324.5,19.16,324.5,47.592V609.626c0,28.432-19.158,47.592-47.587,47.592H47.587C19.158,657.218,0,638.058,0,609.626V47.592C0,19.16,19.158,0,47.587,0Z" transform="translate(0 0)"/><path class="g" d="M47.587,0H276.909C305.338,0,324.5,19.16,324.5,47.592V609.626c0,28.432-19.158,47.592-47.587,47.592H47.587C19.158,657.218,0,638.058,0,609.626V47.592C0,19.16,19.158,0,47.587,0Z" transform="translate(0 0)"/></g><g class="as" transform="matrix(1, 0, 0, 1, -13.07, -19.07)"><path class="h" d="M42.136,0C16.718,0,0,16.722,0,42.147V604.1c0,25.425,16.718,42.147,42.136,42.147H271.391c25.418,0,42.136-16.722,42.136-42.147V42.147C313.527,16.722,296.809,0,271.391,0Z" transform="translate(20.59 24.56)"/></g><g transform="translate(28.832 12.349)"><path class="i" d="M1.29,631.8v0c9.222-7.131,14.3-18.619,14.3-32.346V33.3C15.59,18.884,10.053,7.059,0,0A34.317,34.317,0,0,1,14.156,13.919a43.654,43.654,0,0,1,5.09,21.363V597.237A44,44,0,0,1,14.5,617.956,34.329,34.329,0,0,1,1.29,631.8Z" transform="translate(270.914 0)"/><path class="i" d="M1.29,631.8v0c9.22-7.132,14.3-18.619,14.3-32.344V33.3C15.587,18.884,10.051,7.06,0,0A34.317,34.317,0,0,1,14.154,13.919a43.653,43.653,0,0,1,5.089,21.361V597.236A44,44,0,0,1,14.5,617.953,34.331,34.331,0,0,1,1.29,631.8Z" transform="translate(0 0.002)"/></g><g transform="translate(1.804 48.308)"><rect class="j" width="6.315" height="8.12" transform="translate(0 0)"/><rect class="k" width="4.511" height="8.12" transform="translate(319.37 0)"/><rect class="j" width="6.315" height="8.12" transform="translate(0 553.034)"/><rect class="k" width="4.511" height="8.12" transform="translate(319.37 553.034)"/></g><g transform="translate(143.033 655.618)"><path class="l" d="M3.442,0H41.413A6.262,6.262,0,0,1,44.79,1.6H0S1.935-.017,3.442,0Z" transform="translate(0 0)"/></g><g transform="translate(0 78.08)"><g class="ar" transform="matrix(1, 0, 0, 1, -13.07, -97.15)"><path class="m" d="M2.707,0h0a0,0,0,0,1,0,0V22.554a0,0,0,0,1,0,0h0A2.707,2.707,0,0,1,0,19.848V2.707A2.707,2.707,0,0,1,2.707,0Z" transform="translate(13.07 97.15)"/></g><rect class="n" width="0.902" height="21.652" rx="0.451" transform="translate(0.902 0.902)"/></g><g transform="translate(0.902 126.798)"><g class="aq" transform="matrix(1, 0, 0, 1, -13.97, -145.87)"><path class="o" d="M1.8,0h0a0,0,0,0,1,0,0V42.4a0,0,0,0,1,0,0h0A1.8,1.8,0,0,1,0,40.6V1.8A1.8,1.8,0,0,1,1.8,0Z" transform="translate(13.97 145.87)"/></g><rect class="p" height="41.5" transform="translate(0.902 0)"/></g><g transform="translate(0.902 179.124)"><g class="ap" transform="matrix(1, 0, 0, 1, -13.97, -198.2)"><path class="o" d="M1.8,0h0a0,0,0,0,1,0,0V41.5a0,0,0,0,1,0,0h0A1.8,1.8,0,0,1,0,39.7V1.8A1.8,1.8,0,0,1,1.8,0Z" transform="translate(13.97 198.2)"/></g><rect class="p" height="41.5" transform="translate(0.902 0)"/></g><g transform="translate(325.39 126.385)"><g class="ao" transform="matrix(1, 0, 0, 1, -338.46, -145.46)"><path class="o" d="M-9.258,1.2A1.138,1.138,0,0,0-10.531.073L-11,.129a1.138,1.138,0,0,0-1,1.13V41.8a1.138,1.138,0,0,0,1,1.13l.466.056a1.138,1.138,0,0,0,1.273-1.13Z" transform="translate(350.46 145.39)"/></g><rect class="p" width="0.902" height="42.402" rx="0.451" transform="translate(1.198 0.412)"/></g><g transform="translate(20.09 18.536)"><g class="an" transform="matrix(1, 0, 0, 1, -33.16, -37.61)"><path class="q" d="M0,22.1a22.1,22.1,0,1,1,22.1,22.1A22.1,22.1,0,0,1,0,22.1Z" transform="translate(154.71 613.2)"/></g><g transform="translate(114.334 19.848)"><g class="am" transform="matrix(1, 0, 0, 1, -147.49, -57.46)"><rect class="b" width="58.641" height="3.609" rx="1.804" transform="translate(147.49 57.46)"/></g><g class="r" transform="translate(0 0)"><path class="s" d="M0,4.511V4.06H58.641v.451Zm0-.9V3.158H58.641v.451ZM0,2.481V2.03H58.641v.451Zm0-.9V1.128H58.641v.451ZM0,.451V0H58.641V.451Z" transform="translate(-0.902)"/><path class="s" d="M57.277,5.413V0h.462V5.413Zm-1.155,0V0h.462V5.413Zm-1.155,0V0h.462V5.413Zm-1.386,0V0h.462V5.413Zm-1.155,0V0h.462V5.413Zm-1.386,0V0H51.5V5.413Zm-1.155,0V0h.462V5.413Zm-1.386,0V0h.462V5.413Zm-1.386,0V0h.462V5.413Zm-1.155,0V0h.462V5.413Zm-1.386,0V0h.462V5.413Zm-1.155,0V0h.462V5.413Zm-1.386,0V0H42.5V5.413Zm-1.155,0V0h.462V5.413Zm-1.386,0V0h.462V5.413Zm-1.155,0V0H38.8V5.413Zm-1.386,0V0h.462V5.413Zm-1.155,0V0h.462V5.413Zm-1.386,0V0h.462V5.413Zm-1.155,0V0h.462V5.413Zm-1.386,0V0h.462V5.413Zm-1.155,0V0h.462V5.413Zm-1.386,0V0h.462V5.413Zm-1.155,0V0h.462V5.413Zm-1.386,0V0h.462V5.413Zm-1.155,0V0H26.1V5.413Zm-1.386,0V0h.462V5.413Zm-1.386,0V0h.462V5.413Zm-1.155,0V0h.462V5.413Zm-1.386,0V0h.462V5.413Zm-1.155,0V0h.462V5.413Zm-1.386,0V0h.462V5.413Zm-1.155,0V0h.462V5.413Zm-1.386,0V0h.462V5.413Zm-1.155,0V0h.462V5.413Zm-1.386,0V0h.462V5.413Zm-1.155,0V0h.462V5.413Zm-1.386,0V0h.462V5.413Zm-1.155,0V0h.462V5.413Zm-1.386,0V0h.462V5.413Zm-1.155,0V0h.462V5.413Zm-1.386,0V0h.462V5.413Zm-1.155,0V0h.462V5.413Zm-1.386,0V0H3V5.413Zm-1.155,0V0h.462V5.413ZM0,5.413V0H.462V5.413Z" transform="translate(0.902 -0.902)"/></g><rect class="c" width="58.641" height="3.609" rx="1.804" transform="translate(0 0)"/></g><g class="al" transform="matrix(1, 0, 0, 1, -33.16, -37.61)"><circle class="u" cx="3.158" cy="3.158" r="3.158" transform="translate(174.56 37.61)"/></g><g transform="translate(82.758 16.239)"><g class="ak" transform="matrix(1, 0, 0, 1, -115.91, -53.85)"><circle class="v" cx="4.962" cy="4.962" r="4.962" transform="translate(115.91 53.85)"/></g><g class="aj" transform="matrix(1, 0, 0, 1, -115.91, -53.85)"><circle class="d" cx="2.255" cy="2.255" r="2.255" transform="translate(118.62 57.46)"/></g><g class="w" transform="translate(2.707 3.609)"><circle class="x" transform="translate(0 2.707)"/><circle class="x" transform="translate(0 2.707)"/><circle class="y" transform="translate(4.511 0)"/><circle class="y" transform="translate(4.511 0)"/><ellipse class="z" cx="1.371" cy="0.571" rx="1.371" ry="0.571" transform="matrix(0.875, -0.485, 0.485, 0.875, 0.23, 0.422)"/><circle class="aa" cx="1.371" cy="1.371" r="1.371" transform="translate(1.144 0.991) rotate(-16)"/></g></g><path class="ab" d="M2.285,0H286.1a2.285,2.285,0,0,1,2.285,2.285V506.853a2.285,2.285,0,0,1-2.285,2.285H2.285A2.285,2.285,0,0,1,0,506.853V2.285A2.285,2.285,0,0,1,2.285,0Z" transform="translate(0 55.732)"/></g></g><rect class="ac" width="284.186" height="504.317" transform="translate(22.554 76.276)"/><g transform="translate(49.541 134.946)"><g transform="translate(17.393 0)"><path class="ad" d="M0,0H202a10,10,0,0,1,10,10v98a10,10,0,0,1-10,10H10A10,10,0,0,1,0,108V0A0,0,0,0,1,0,0Z" transform="translate(0 -0.019)"/><g transform="translate(19 20)"><g transform="translate(0 39)"><line class="ae" x2="174" transform="translate(0 38.981)"/><line class="ae" x2="174" transform="translate(0 19.981)"/><line class="ae" x2="174" transform="translate(0 -0.019)"/></g><g transform="translate(0 0)"><text class="af" transform="translate(4 12.981)"><tspan x="0" y="0">123456</tspan></text><rect class="ag" width="52" height="19" rx="3" transform="translate(0 -0.019)"/><text class="ah" transform="translate(62 2.981)"><tspan x="0" y="7">adalah kode OTP Anda.</tspan></text></g></g></g><path class="ad" d="M54.24,149.682H37.054L54.24,166.868Z" transform="translate(-37.054 -149.613)"/></g><rect class="ai" width="284" height="39" transform="translate(22.933 75.928)"/><path class="ad" d="M11.358,1.5a9.47,9.47,0,0,0-9.507,9.434A9.336,9.336,0,0,0,3.216,15.8L1.5,20.866l5.264-1.672a9.523,9.523,0,0,0,14.1-8.26A9.47,9.47,0,0,0,11.358,1.5Zm4.727,13.016A2.456,2.456,0,0,1,14.4,15.6c-.446.024-.459.346-2.889-.71A9.919,9.919,0,0,1,7.507,11.1a4.662,4.662,0,0,1-.9-2.527A2.694,2.694,0,0,1,7.535,6.6a.931.931,0,0,1,.658-.277c.191,0,.315-.006.457,0s.354-.03.538.46.624,1.692.681,1.815a.44.44,0,0,1,0,.422,1.651,1.651,0,0,1-.258.393c-.127.136-.267.3-.38.408s-.258.241-.125.487A7.275,7.275,0,0,0,10.4,12.022,6.633,6.633,0,0,0,12.3,13.289c.238.13.381.115.528-.04s.633-.681.8-.915.331-.189.551-.1,1.39.716,1.628.845.4.2.454.3A2,2,0,0,1,16.086,14.516Z" transform="translate(38.358 84.55)"/></g></g></svg>