<svg xmlns="http://www.w3.org/2000/svg" xmlns:xlink="http://www.w3.org/1999/xlink" width="344.263" height="267.76" viewBox="0 0 344.263 267.76"><defs><style>.a{fill:url(#a);}</style><linearGradient id="a" x1="0.5" x2="0.5" y2="1" gradientUnits="objectBoundingBox"><stop offset="0" stop-color="#bf2326"/><stop offset="1" stop-color="#f19091"/></linearGradient></defs><path class="a" d="M315.574,2.25H28.689A28.7,28.7,0,0,0,0,30.939V241.321A28.7,28.7,0,0,0,28.689,270.01H315.574a28.7,28.7,0,0,0,28.689-28.689V30.939A28.7,28.7,0,0,0,315.574,2.25ZM105.191,59.627A38.251,38.251,0,1,1,66.94,97.878,38.287,38.287,0,0,1,105.191,59.627Zm66.94,141.53c0,6.335-5.977,11.475-13.388,11.475H51.639c-7.411,0-13.388-5.14-13.388-11.475V189.682c0-19.006,17.99-34.426,40.164-34.426H81.4a61.562,61.562,0,0,0,47.575,0h2.988c22.174,0,40.164,15.42,40.164,34.426ZM306.011,169.6a4.8,4.8,0,0,1-4.781,4.781H215.164a4.8,4.8,0,0,1-4.781-4.781v-9.563a4.8,4.8,0,0,1,4.781-4.781H301.23a4.8,4.8,0,0,1,4.781,4.781Zm0-38.251a4.8,4.8,0,0,1-4.781,4.781H215.164a4.8,4.8,0,0,1-4.781-4.781v-9.563A4.8,4.8,0,0,1,215.164,117H301.23a4.8,4.8,0,0,1,4.781,4.781Zm0-38.251a4.8,4.8,0,0,1-4.781,4.781H215.164a4.8,4.8,0,0,1-4.781-4.781V83.534a4.8,4.8,0,0,1,4.781-4.781H301.23a4.8,4.8,0,0,1,4.781,4.781Z" transform="translate(0 -2.25)"/></svg>