<svg xmlns="http://www.w3.org/2000/svg" width="296.659" height="307.893" viewBox="0 0 296.659 307.893"><defs><style>.a{fill:#fb5053;}</style></defs><path class="a" d="M37.56,22.006,80.826,42.448A35.233,35.233,0,0,1,110.869,23.91l39.941-1.1a42.167,42.167,0,0,0,4.714-.4,42.185,42.185,0,0,0,4.626-.922,42.2,42.2,0,0,0,4.494-1.433,42.178,42.178,0,0,0,4.319-1.932l4.064-2.106a71.677,71.677,0,0,1,66.4.07l-.254-9.207a5.518,5.518,0,0,1,5.369-5.674L288.339,0a5.517,5.517,0,0,1,5.672,5.369l2.646,96.112a5.518,5.518,0,0,1-5.369,5.674l-43.8,1.206h-.151a5.518,5.518,0,0,1-5.523-5.372l-.127-4.6L230.311,92.3a19.515,19.515,0,0,0-14.566-1.594L147.8,109.776l-.089.025-.089.023-.09.021-.091.02q-1.842.385-3.7.674t-3.727.482q-1.869.193-3.747.289t-3.759.095a73.678,73.678,0,0,1-30.785-6.718q-.089-.04-.176-.084t-.173-.091q-.086-.047-.17-.1t-.166-.1L2.525,40.588A5.522,5.522,0,0,1,.715,33.23,27.879,27.879,0,0,1,37.56,22.006Zm247.9,74.262L283.121,11.2l-32.754.9,2.341,85.073ZM106.7,94.822a62.626,62.626,0,0,0,38.3,4.275l67.762-19.021a30.536,30.536,0,0,1,22.767,2.489l5.814,3.115-1.556-56.562a60.7,60.7,0,0,0-61.678-3.29l-4.064,2.106a53.336,53.336,0,0,1-5.456,2.44,53.325,53.325,0,0,1-5.676,1.81,53.361,53.361,0,0,1-5.842,1.165,53.378,53.378,0,0,1-5.955.507l-39.943,1.1a24.214,24.214,0,0,0-23.023,19.3l59.5-1.642a5.524,5.524,0,1,1,.3,11.044L82.287,65.466h-.154a5.518,5.518,0,0,1-5.518-5.372q-.025-.9,0-1.8t.087-1.8q.067-.9.18-1.79t.272-1.779L32.772,31.96l-.032-.015-.032-.015-.032-.016-.032-.016A16.87,16.87,0,0,0,13.56,34.571Z" transform="translate(0 196.488)"/><path class="a" d="M9.084,47.69V4.542A4.542,4.542,0,1,0,0,4.542V47.69a4.542,4.542,0,1,0,9.084,0Z" transform="translate(116.235)"/><path class="a" d="M9.084,24.98V4.542A4.542,4.542,0,1,0,0,4.542V24.98a4.542,4.542,0,1,0,9.084,0Z" transform="translate(150.298 22.709)"/><path class="a" d="M9.084,24.98V4.542A4.542,4.542,0,1,0,0,4.542V24.98a4.542,4.542,0,1,0,9.084,0Z" transform="translate(82.17 22.709)"/><g transform="translate(37.732 69.094)"><path class="a" d="M149.728,12.515,11.072,9.865l5.3,80.121,143.06-1.495ZM10.435.236a10.65,10.65,0,0,0-4,.663,9.413,9.413,0,0,0-3.19,1.989A8.531,8.531,0,0,0,.594,9.665L5.541,90.1A10.379,10.379,0,0,0,6.646,94.15a11.229,11.229,0,0,0,2.54,3.295,11.682,11.682,0,0,0,3.6,2.2,11.468,11.468,0,0,0,4.277.763l143.63-2.054a8.871,8.871,0,0,0,3.675-.831,8.222,8.222,0,0,0,2.8-2.156,8.465,8.465,0,0,0,1.656-3.151,9.483,9.483,0,0,0,.253-3.822l-9.983-75.7a10.019,10.019,0,0,0-1.2-3.573,11.319,11.319,0,0,0-2.378-2.941,11.483,11.483,0,0,0-3.22-2.017,10.407,10.407,0,0,0-3.732-.8Z"/><path class="a" d="M119.722,2.288a19.959,19.959,0,0,0,2.365,7.251,22.617,22.617,0,0,0,4.81,5.99,22.956,22.956,0,0,0,6.552,4.087,20.75,20.75,0,0,0,7.574,1.559L138.656,2.65ZM20.716.4a17.284,17.284,0,0,1-1.057,7.47,17.169,17.169,0,0,1-3.983,6.1,18.731,18.731,0,0,1-6.325,4.1,21.211,21.211,0,0,1-8.06,1.443L0,0ZM128.856,78.83a18.871,18.871,0,0,1,.623-7.688,16.874,16.874,0,0,1,3.43-6.249,16.465,16.465,0,0,1,5.653-4.194,17.818,17.818,0,0,1,7.311-1.544l2.487,19.471ZM26.707,79.9a20.8,20.8,0,0,0-2.266-7.97,22.476,22.476,0,0,0-5.022-6.459,23.365,23.365,0,0,0-7.064-4.334A22.961,22.961,0,0,0,3.94,59.56L5.3,80.121ZM94.845,39.783a18.094,18.094,0,0,1-.757,7.553,17,17,0,0,1-3.622,6.213,17.5,17.5,0,0,1-5.945,4.228,19.377,19.377,0,0,1-7.706,1.575,21.767,21.767,0,0,1-8.058-1.539,23.149,23.149,0,0,1-6.881-4.245,22.533,22.533,0,0,1-4.951-6.3,20.312,20.312,0,0,1-2.29-7.674,18,18,0,0,1,.921-7.608,16.979,16.979,0,0,1,3.784-6.139,17.575,17.575,0,0,1,6.018-4.069A19.488,19.488,0,0,1,73,20.363,21.828,21.828,0,0,1,80.9,21.958a23.157,23.157,0,0,1,6.718,4.17,22.559,22.559,0,0,1,4.877,6.138A20.4,20.4,0,0,1,94.845,39.783Z" transform="translate(11.072 9.865)"/></g></svg>