<svg xmlns="http://www.w3.org/2000/svg" xmlns:xlink="http://www.w3.org/1999/xlink" width="188" height="142" viewBox="0 0 188 142">
  <defs>
    <linearGradient id="linear-gradient" x1="0.985" y1="0.525" x2="0" y2="0.52" gradientUnits="objectBoundingBox">
      <stop offset="0" stop-color="#014e7a"/>
      <stop offset="1" stop-color="#005382"/>
    </linearGradient>
    <linearGradient id="linear-gradient-2" x1="0.5" x2="0.5" y2="1" gradientUnits="objectBoundingBox">
      <stop offset="0" stop-color="#cef2ff"/>
      <stop offset="1" stop-color="#e6f8ff"/>
    </linearGradient>
    <filter id="Ellipse_662" x="46" y="0" width="142" height="142" filterUnits="userSpaceOnUse">
      <feOffset dy="3" input="SourceAlpha"/>
      <feGaussianBlur stdDeviation="3" result="blur"/>
      <feFlood flood-opacity="0.161"/>
      <feComposite operator="in" in2="blur"/>
      <feComposite in="SourceGraphic"/>
    </filter>
    <filter id="Union_5" x="40" y="25" width="98" height="98" filterUnits="userSpaceOnUse">
      <feOffset dy="3" input="SourceAlpha"/>
      <feGaussianBlur stdDeviation="3" result="blur-2"/>
      <feFlood flood-opacity="0.161"/>
      <feComposite operator="in" in2="blur-2"/>
      <feComposite in="SourceGraphic"/>
    </filter>
    <linearGradient id="linear-gradient-3" x1="0.136" y1="0.131" x2="1.277" y2="1.638" gradientUnits="objectBoundingBox">
      <stop offset="0" stop-color="#056ea7"/>
      <stop offset="1" stop-color="#005b8c"/>
    </linearGradient>
  </defs>
  <g id="Group_24824" data-name="Group 24824" transform="translate(0 6)">
    <circle id="Ellipse_661" data-name="Ellipse 661" cx="62" cy="62" r="62" fill="url(#linear-gradient)"/>
    <g transform="matrix(1, 0, 0, 1, 0, -6)" filter="url(#Ellipse_662)">
      <circle id="Ellipse_662-2" data-name="Ellipse 662" cx="62" cy="62" r="62" transform="translate(55 6)" fill="url(#linear-gradient-2)"/>
    </g>
    <g id="Group_24825" data-name="Group 24825">
      <g transform="matrix(1, 0, 0, 1, 0, -6)" filter="url(#Union_5)">
        <path id="Union_5-2" data-name="Union 5" d="M-1656-38a10,10,0,0,1-10-10v-58h70a10,10,0,0,1,10,10v48a10,10,0,0,1-10,10Zm-10-68v-2a10,10,0,0,1,10-10h60v12Z" transform="translate(1715 149)" fill="#6fcfee"/>
      </g>
      <g id="Group_24822" data-name="Group 24822" transform="translate(49 25)">
        <g id="Group_23377" data-name="Group 23377">
          <path id="Rectangle_1981" data-name="Rectangle 1981" d="M10,0H70a0,0,0,0,1,0,0V12a0,0,0,0,1,0,0H0a0,0,0,0,1,0,0V10A10,10,0,0,1,10,0Z" transform="translate(0 0)" fill="#6fcfee"/>
          <path id="Rectangle_1982" data-name="Rectangle 1982" d="M0,0H70A10,10,0,0,1,80,10V58A10,10,0,0,1,70,68H10A10,10,0,0,1,0,58V0A0,0,0,0,1,0,0Z" transform="translate(0 12)" fill="url(#linear-gradient-3)"/>
        </g>
      </g>
    </g>
  </g>
</svg>
