<svg id="Group_24408" data-name="Group 24408" xmlns="http://www.w3.org/2000/svg" xmlns:xlink="http://www.w3.org/1999/xlink" width="1612" height="200" viewBox="0 0 1612 200">
  <defs>
    <linearGradient id="linear-gradient" x1="-0.222" y1="-0.496" x2="0.609" y2="1.913" gradientUnits="objectBoundingBox">
      <stop offset="0" stop-color="#1685c7"/>
      <stop offset="1" stop-color="#1bb4e6"/>
    </linearGradient>
    <linearGradient id="linear-gradient-2" x1="-0.222" y1="-0.496" x2="0.519" y2="1.235" xlink:href="#linear-gradient"/>
    <clipPath id="clip-path">
      <rect id="Rectangle_3171" data-name="Rectangle 3171" width="1612" height="200" rx="10" transform="translate(284 136)" stroke="#cecece" stroke-linecap="round" stroke-linejoin="round" stroke-width="1" fill="url(#linear-gradient)"/>
    </clipPath>
  </defs>
  <g id="Rectangle_3168" data-name="Rectangle 3168" stroke="#cecece" stroke-linecap="round" stroke-linejoin="round" stroke-width="1" fill="url(#linear-gradient-2)">
    <rect width="1612" height="200" rx="10" stroke="none"/>
    <rect x="0.5" y="0.5" width="1611" height="199" rx="9.5" fill="none"/>
  </g>
  <g id="Mask_Group_4" data-name="Mask Group 4" transform="translate(-284 -136)" clip-path="url(#clip-path)">
    <g id="undraw_video_files_fu10" transform="translate(1548.828 133.844)">
      <path id="Path_40752" data-name="Path 40752" d="M839.345,369.619a6,6,0,0,1-2.439-.52,2.958,2.958,0,0,1-.508-.289l-15.517-10.922h0a6,6,0,0,1-2.548-4.908v-14.9a6,6,0,0,1,2.547-4.907L836.4,322.255a2.961,2.961,0,0,1,.508-.289,6,6,0,0,1,8.442,5.486v36.163a6,6,0,0,1-6,6Z" transform="translate(-561.11 -259.108)" fill="#3f3d56"/>
      <path id="Path_40753" data-name="Path 40753" d="M672.516,367.243H629.239c-8.829-.007-15.985-5.715-15.994-12.757V325.97c.009-7.043,7.164-12.75,15.994-12.757h43.39c8.766.008,15.87,5.675,15.881,12.667v28.606C688.5,361.528,681.345,367.236,672.516,367.243Z" transform="translate(-429.007 -253.804)" fill="#3f3d56"/>
      <path id="Path_40755" data-name="Path 40755" d="M497.335,369.97a5.459,5.459,0,0,1-5.43,5.488H252.97a5.459,5.459,0,0,1-5.431-5.487V206.763a5.459,5.459,0,0,1,5.43-5.488H491.9a5.459,5.459,0,0,1,5.431,5.487h0Z" transform="translate(-191.447 -173.94)" fill="#e6e6e6"/>
      <path id="Path_40756" data-name="Path 40756" d="M499.914,372.6a5.306,5.306,0,0,1-5.306,5.306H261.226a5.306,5.306,0,0,1-5.306-5.306V214.811a5.306,5.306,0,0,1,5.306-5.306H494.619a5.306,5.306,0,0,1,5.3,5.306Z" transform="translate(-198.845 -187.003)" fill="#fff"/>
      <path id="c6fe725a-3b03-4a96-90af-cfbd2676500a" d="M189.729,82.48h219.3a3.149,3.149,0,0,1,3.149,3.149V233.417a3.149,3.149,0,0,1-3.149,3.149h-219.3a3.15,3.15,0,0,1-3.149-3.149V85.63A3.149,3.149,0,0,1,189.729,82.48Z" transform="translate(-120.181 -53.128)" fill="#e6e6e6"/>
      <path id="Path_40757" data-name="Path 40757" d="M197.529,92.44H411.036a3.149,3.149,0,0,1,3.149,3.149v139.9a3.149,3.149,0,0,1-3.15,3.149H197.529a3.15,3.15,0,0,1-3.15-3.15V95.589A3.149,3.149,0,0,1,197.529,92.44Z" transform="translate(-125.205 -59.543)" fill="#fff"/>
      <path id="Path_40758" data-name="Path 40758" d="M684.345,424.619a6,6,0,0,1-2.439-.52,2.961,2.961,0,0,1-.508-.289l-15.517-10.922h0a6,6,0,0,1-2.548-4.908v-14.9a6,6,0,0,1,2.547-4.907L681.4,377.255a2.955,2.955,0,0,1,.508-.289,6,6,0,0,1,8.442,5.485v36.163a6,6,0,0,1-6,6Z" transform="translate(-461.27 -294.535)" fill="#3f3d56"/>
      <path id="Path_40759" data-name="Path 40759" d="M517.516,422.243H474.239c-8.829-.007-15.985-5.715-15.994-12.757V380.97c.009-7.043,7.164-12.75,15.994-12.757h43.39c8.766.008,15.87,5.675,15.881,12.667v28.606C533.5,416.528,526.345,422.236,517.516,422.243Z" transform="translate(-329.168 -289.231)" fill="#3f3d56"/>
      <circle id="Ellipse_2786" data-name="Ellipse 2786" cx="12.871" cy="12.871" r="12.871" transform="translate(252.568 144.359)" fill="#e6e6e6"/>
      <path id="Path_40760" data-name="Path 40760" d="M840.911,576.654l-10.26-5.923a.266.266,0,0,0-.4.231v11.847a.266.266,0,0,0,.4.231l10.26-5.923a.266.266,0,0,0,0-.461l-10.26-5.923a.266.266,0,0,0-.4.231v11.847a.266.266,0,0,0,.4.231l10.259-5.923a.266.266,0,0,0,0-.462Z" transform="translate(-568.787 -419.655)" fill="#fff"/>
      <path id="Path_40761" data-name="Path 40761" d="M345.335,432.97a5.459,5.459,0,0,1-5.43,5.488H100.971a5.459,5.459,0,0,1-5.431-5.487V269.763a5.459,5.459,0,0,1,5.43-5.488H339.9a5.459,5.459,0,0,1,5.431,5.487h0Z" transform="translate(-92.767 -212.503)" fill="#e6e6e6"/>
      <path id="Path_40762" data-name="Path 40762" d="M347.914,435.6a5.306,5.306,0,0,1-5.306,5.306H109.226a5.306,5.306,0,0,1-5.306-5.306V277.811a5.306,5.306,0,0,1,5.306-5.306H342.619a5.306,5.306,0,0,1,5.3,5.306Z" transform="translate(-100.938 -227.583)" fill="#fff"/>
      <path id="c6fe725a-3b03-4a96-90af-cfbd2676500a-2" data-name="c6fe725a-3b03-4a96-90af-cfbd2676500a" d="M37.73,145.48h219.3a3.149,3.149,0,0,1,3.149,3.149V296.417a3.149,3.149,0,0,1-3.149,3.149H37.73a3.15,3.15,0,0,1-3.149-3.15V148.629a3.149,3.149,0,0,1,3.149-3.149Z" transform="translate(-22.274 -93.707)" fill="#e6e6e6"/>
      <path id="Path_40763" data-name="Path 40763" d="M45.53,155.44H259.036a3.149,3.149,0,0,1,3.149,3.149v139.9a3.149,3.149,0,0,1-3.149,3.149H45.53a3.15,3.15,0,0,1-3.149-3.15v-139.9a3.149,3.149,0,0,1,3.149-3.149Z" transform="translate(-27.298 -100.123)" fill="#fff"/>
      <path id="Path_40764" data-name="Path 40764" d="M532.345,487.619a6,6,0,0,1-2.439-.52,2.95,2.95,0,0,1-.508-.289l-15.517-10.922h0a6,6,0,0,1-2.548-4.908v-14.9a6,6,0,0,1,2.547-4.907L529.4,440.255a2.954,2.954,0,0,1,.508-.289,6,6,0,0,1,8.442,5.485v36.163a6,6,0,0,1-6,6Z" transform="translate(-363.363 -335.115)" fill="#0085cd"/>
      <path id="Path_40765" data-name="Path 40765" d="M365.516,485.243H322.239c-8.829-.007-15.985-5.715-15.994-12.757V443.97c.009-7.043,7.164-12.75,15.994-12.757h43.39c8.766.008,15.87,5.675,15.881,12.667v28.606C381.5,479.528,374.345,485.236,365.516,485.243Z" transform="translate(-231.26 -329.811)" fill="#0085cd"/>
      <circle id="Ellipse_2787" data-name="Ellipse 2787" cx="12.871" cy="12.871" r="12.871" transform="translate(198.475 166.779)" fill="#3f3d56"/>
      <path id="Path_40766" data-name="Path 40766" d="M688.911,639.654l-10.26-5.923a.266.266,0,0,0-.4.231v11.847a.266.266,0,0,0,.4.231l10.26-5.923a.266.266,0,0,0,0-.461l-10.26-5.923a.266.266,0,0,0-.4.231v11.847a.266.266,0,0,0,.4.231l10.26-5.923a.266.266,0,0,0,0-.462Z" transform="translate(-470.88 -460.235)" fill="#fff"/>
    </g>
  </g>
</svg>
